0
SECTION
2
HEADER
9
$INSUNITS
70
4
9
$ACADVER
1
AC1014
9
$HANDSEED
5
FFFF
0
ENDSEC
0
SECTION
2
TABLES
0
TABLE
2
VPORT
5
8
100
AcDbSymbolTable
0
ENDTAB
0
TABLE
2
LTYPE
5
5
100
AcDbSymbolTable
0
LTYPE
5
14
100
AcDbSymbolTableRecord
100
AcDbLinetypeTableRecord
2
BYBLOCK
70
0
0
LTYPE
5
15
100
AcDbSymbolTableRecord
100
AcDbLinetypeTableRecord
2
BYLAYER
70
0
0
ENDTAB
0
TABLE
2
LAYER
5
2
100
AcDbSymbolTable
70
2
0
LAYER
5
50
100
AcDbSymbolTableRecord
100
AcDbLayerTableRecord
2
0
70
0
6
CONTINUOUS
0
ENDTAB
0
TABLE
2
STYLE
5
3
100
AcDbSymbolTable
70
1
0
STYLE
5
11
100
AcDbSymbolTableRecord
100
AcDbTextStyleTableRecord
2
STANDARD
70
0
0
ENDTAB
0
TABLE
2
VIEW
5
6
100
AcDbSymbolTable
70
0
0
ENDTAB
0
TABLE
2
UCS
5
7
100
AcDbSymbolTable
70
0
0
ENDTAB
0
TABLE
2
APPID
5
9
100
AcDbSymbolTable
70
2
0
APPID
5
12
100
AcDbSymbolTableRecord
100
AcDbRegAppTableRecord
2
ACAD
70
0
0
ENDTAB
0
TABLE
2
DIMSTYLE
5
A
100
AcDbSymbolTable
70
1
0
ENDTAB
0
TABLE
2
BLOCK_RECORD
5
1
100
AcDbSymbolTable
70
1
0
BLOCK_RECORD
5
1F
100
AcDbSymbolTableRecord
100
AcDbBlockTableRecord
2
*MODEL_SPACE
0
BLOCK_RECORD
5
1B
100
AcDbSymbolTableRecord
100
AcDbBlockTableRecord
2
*PAPER_SPACE
0
ENDTAB
0
ENDSEC
0
SECTION
2
BLOCKS
0
BLOCK
5
20
100
AcDbEntity
100
AcDbBlockBegin
2
*MODEL_SPACE
0
ENDBLK
5
21
100
AcDbEntity
100
AcDbBlockEnd
0
BLOCK
5
1C
100
AcDbEntity
100
AcDbBlockBegin
2
*PAPER_SPACE
0
ENDBLK
5
1D
100
AcDbEntity
100
AcDbBlockEnd
0
ENDSEC
0
SECTION
2
ENTITIES
0
CIRCLE
5
100
100
AcDbEntity
8
0
100
AcDbCircle
10
0
20
0
30
0
40
60
210
0
220
0
230
1
0
CIRCLE
5
101
100
AcDbEntity
8
0
100
AcDbCircle
10
-47.499990566411455
20
0.030708154627534498
30
0
40
1.6500000000000004
210
0
220
0
230
1
0
CIRCLE
5
102
100
AcDbEntity
8
0
100
AcDbCircle
10
47.499990566411455
20
0.030708154627534498
30
0
40
1.6500000000000004
210
0
220
0
230
1
0
CIRCLE
5
103
100
AcDbEntity
8
0
100
AcDbCircle
10
25.331243060694835
20
-14.625
30
0
40
1.6000000000000014
210
0
220
-0
230
1
0
CIRCLE
5
104
100
AcDbEntity
8
0
100
AcDbCircle
10
-34.5
20
23
30
0
40
1.6499999999999959
210
0
220
0
230
1
0
CIRCLE
5
105
100
AcDbEntity
8
0
100
AcDbCircle
10
34.5
20
23
30
0
40
1.6499999999999959
210
0
220
0
230
1
0
CIRCLE
5
106
100
AcDbEntity
8
0
100
AcDbCircle
10
6.1629758220391547e-32
20
-45.000000894069672
30
0
40
1.6500000000000004
210
0
220
0
230
1
0
CIRCLE
5
107
100
AcDbEntity
8
0
100
AcDbCircle
10
25.331243060694835
20
14.625
30
0
40
1.6000000000000014
210
0
220
-0
230
1
0
LWPOLYLINE
5
108
100
AcDbEntity
8
0
100
AcDbPolyline
90
12
70
1
43
0.0
10
-25
20
-18.80414468253025
10
-25.000000000000004
20
-32.82148686455259
42
-0.63365145252527788
10
-28.27058823529411
20
-34.366027422884471
42
-0.34245361460586621
10
-40.311764705882347
20
18.84705882352938
42
-0.29120068720076209
10
-38.499999999999972
20
20.000000000000004
10
-28.3077132856425
20
19.999999999999996
42
-0.69108049464047205
10
-26.984837630110206
20
16.5
42
0.55901432267562445
10
-26.258330249197705
20
12.303252954149862
42
-0.30684215867881615
10
-25
20
10.44585531746975
10
-25.000000000000004
20
-10.44585531746975
42
-0.30684215867881615
10
-26.258330249197705
20
-12.303252954149858
42
0.67746950052484645
10
-26.258330249197705
20
-16.946747045850138
42
-0.30684215867881626
0
CIRCLE
5
109
100
AcDbEntity
8
0
100
AcDbCircle
10
-25.331243060694835
20
-14.625
30
0
40
1.6000000000000014
210
0
220
-0
230
1
0
LWPOLYLINE
5
110
100
AcDbEntity
8
0
100
AcDbPolyline
90
12
70
1
43
0.0
10
28.3077132856425
20
20
42
0.69108049464047172
10
26.984837630110206
20
16.5
42
-0.55901432267562479
10
26.258330249197705
20
12.303252954149858
42
0.30684215867881615
10
25
20
10.44585531746975
10
25
20
-10.44585531746975
42
0.30684215867881615
10
26.258330249197705
20
-12.303252954149858
42
-0.67746950052484656
10
26.258330249197705
20
-16.946747045850138
42
0.30684215867881615
10
25
20
-18.80414468253025
10
25
20
-32.821486864552639
42
0.63365145252527721
10
28.27058823529412
20
-34.366027422884528
42
0.3424536146058666
10
40.311764705882382
20
18.847058823529416
42
0.29120068720075648
10
38.500000000000028
20
20
0
CIRCLE
5
111
100
AcDbEntity
8
0
100
AcDbCircle
10
-25.331243060694835
20
14.625
30
0
40
1.6000000000000014
210
0
220
-0
230
1
0
ENDSEC
0
SECTION
2
OBJECTS
0
DICTIONARY
5
C
100
AcDbDictionary
3
ACAD_GROUP
350
D
3
ACAD_MLINESTYLE
350
17
0
DICTIONARY
5
D
100
AcDbDictionary
0
DICTIONARY
5
1A
330
C
100
AcDbDictionary
0
DICTIONARY
5
17
100
AcDbDictionary
0
ENDSEC
0
EOF
