G04 #@! TF.GenerationSoftware,KiCad,Pcbnew,7.0.9*
G04 #@! TF.CreationDate,2025-08-30T11:03:23+09:00*
G04 #@! TF.ProjectId,____,ade3c3c1-2e6b-4696-9361-645f70636258,rev?*
G04 #@! TF.SameCoordinates,Original*
G04 #@! TF.FileFunction,Copper,L1,Top*
G04 #@! TF.FilePolarity,Positive*
%FSLAX46Y46*%
G04 Gerber Fmt 4.6, Leading zero omitted, Abs format (unit mm)*
G04 Created by KiCad (PCBNEW 7.0.9) date 2025-08-30 11:03:23*
%MOMM*%
%LPD*%
G01*
G04 APERTURE LIST*
G04 #@! TA.AperFunction,ComponentPad*
%ADD10C,2.000000*%
G04 #@! TD*
G04 #@! TA.AperFunction,ComponentPad*
%ADD11R,1.700000X1.700000*%
G04 #@! TD*
G04 #@! TA.AperFunction,ComponentPad*
%ADD12O,1.700000X1.700000*%
G04 #@! TD*
G04 #@! TA.AperFunction,Conductor*
%ADD13C,1.000000*%
G04 #@! TD*
G04 APERTURE END LIST*
D10*
X45250000Y-38500000D03*
X45250000Y-42091556D03*
X51750000Y-41966171D03*
X51750000Y-38374620D03*
D11*
X52550000Y-46625000D03*
D12*
X50010000Y-46625000D03*
X47470000Y-46625000D03*
X44930000Y-46625000D03*
D10*
X32000000Y-38250000D03*
X32000000Y-41841556D03*
X38500000Y-41716171D03*
X38500000Y-38124620D03*
D11*
X39300000Y-46375000D03*
D12*
X36760000Y-46375000D03*
X34220000Y-46375000D03*
X31680000Y-46375000D03*
D13*
X48658449Y-40500000D02*
X48658449Y-40591551D01*
X45250000Y-46305000D02*
X44930000Y-46625000D01*
X45250000Y-42091556D02*
X45250000Y-46305000D01*
X47470000Y-41780000D02*
X47470000Y-46625000D01*
X48658449Y-40591551D02*
X47470000Y-41780000D01*
X50783829Y-38374620D02*
X48658449Y-40500000D01*
X50010000Y-43706171D02*
X50010000Y-46625000D01*
X51750000Y-38374620D02*
X50783829Y-38374620D01*
X51750000Y-41966171D02*
X50010000Y-43706171D01*
X53750000Y-36750000D02*
X53000000Y-36000000D01*
X53750000Y-44000000D02*
X53750000Y-36750000D01*
X46783829Y-36000000D02*
X45250000Y-37533829D01*
X53000000Y-36000000D02*
X46783829Y-36000000D01*
X52550000Y-46625000D02*
X52550000Y-45200000D01*
X52550000Y-45200000D02*
X53750000Y-44000000D01*
X33533829Y-35750000D02*
X32000000Y-37283829D01*
X39750000Y-35750000D02*
X33533829Y-35750000D01*
X40500000Y-36500000D02*
X39750000Y-35750000D01*
X40500000Y-43750000D02*
X40500000Y-36500000D01*
X39300000Y-46375000D02*
X39300000Y-44950000D01*
X39300000Y-44950000D02*
X40500000Y-43750000D01*
X32000000Y-46055000D02*
X31680000Y-46375000D01*
X32000000Y-41841556D02*
X32000000Y-46055000D01*
X35408449Y-40341551D02*
X34220000Y-41530000D01*
X35408449Y-40250000D02*
X35408449Y-40341551D01*
X37533829Y-38124620D02*
X35408449Y-40250000D01*
X34220000Y-41530000D02*
X34220000Y-46375000D01*
X38500000Y-38124620D02*
X37533829Y-38124620D01*
X36760000Y-43456171D02*
X36760000Y-46375000D01*
X38500000Y-41716171D02*
X36760000Y-43456171D01*
M02*
