%TF.GenerationSoftware,KiCad,Pcbnew,7.0.9*%
%TF.CreationDate,2024-07-27T15:43:32+09:00*%
%TF.ProjectId,____,fb90fa7f-2e6b-4696-9361-645f70636258,rev?*%
%TF.SameCoordinates,Original*%
%TF.FileFunction,Legend,Top*%
%TF.FilePolarity,Positive*%
%FSLAX46Y46*%
G04 Gerber Fmt 4.6, Leading zero omitted, Abs format (unit mm)*
G04 Created by KiCad (PCBNEW 7.0.9) date 2024-07-27 15:43:32*
%MOMM*%
%LPD*%
G01*
G04 APERTURE LIST*
%ADD10C,0.150000*%
%ADD11C,0.120000*%
%ADD12C,0.010000*%
G04 APERTURE END LIST*
D10*
X137403551Y-92095864D02*
X137229903Y-91111056D01*
X137966299Y-91996636D02*
X137445011Y-91508309D01*
X137792650Y-91011828D02*
X137329131Y-91673803D01*
X138388359Y-91922215D02*
X138272594Y-91265677D01*
X138214711Y-90937408D02*
X138176084Y-90992572D01*
X138176084Y-90992572D02*
X138231249Y-91031199D01*
X138231249Y-91031199D02*
X138269875Y-90976034D01*
X138269875Y-90976034D02*
X138214711Y-90937408D01*
X138214711Y-90937408D02*
X138231249Y-91031199D01*
X139271106Y-91718210D02*
X139185584Y-91781643D01*
X139185584Y-91781643D02*
X138998001Y-91814719D01*
X138998001Y-91814719D02*
X138895941Y-91784361D01*
X138895941Y-91784361D02*
X138840777Y-91745735D01*
X138840777Y-91745735D02*
X138777343Y-91660212D01*
X138777343Y-91660212D02*
X138727729Y-91378839D01*
X138727729Y-91378839D02*
X138758087Y-91276779D01*
X138758087Y-91276779D02*
X138796714Y-91221614D01*
X138796714Y-91221614D02*
X138882236Y-91158181D01*
X138882236Y-91158181D02*
X139069818Y-91125105D01*
X139069818Y-91125105D02*
X139171879Y-91155462D01*
X139701436Y-91690685D02*
X139527787Y-90705877D01*
X139729075Y-91298982D02*
X140076601Y-91624533D01*
X139960835Y-90967994D02*
X139651822Y-91409311D01*
X140865557Y-91437065D02*
X140780035Y-91500499D01*
X140780035Y-91500499D02*
X140592452Y-91533574D01*
X140592452Y-91533574D02*
X140490392Y-91503217D01*
X140490392Y-91503217D02*
X140426959Y-91417694D01*
X140426959Y-91417694D02*
X140360807Y-91042530D01*
X140360807Y-91042530D02*
X140391165Y-90940469D01*
X140391165Y-90940469D02*
X140476687Y-90877036D01*
X140476687Y-90877036D02*
X140664269Y-90843960D01*
X140664269Y-90843960D02*
X140766330Y-90874318D01*
X140766330Y-90874318D02*
X140829763Y-90959840D01*
X140829763Y-90959840D02*
X140846301Y-91053631D01*
X140846301Y-91053631D02*
X140393883Y-91230112D01*
X141342782Y-91401271D02*
X141227017Y-90744732D01*
X141260093Y-90932315D02*
X141290450Y-90830255D01*
X141290450Y-90830255D02*
X141329077Y-90775090D01*
X141329077Y-90775090D02*
X141414599Y-90711657D01*
X141414599Y-90711657D02*
X141508390Y-90695119D01*
X141734485Y-91428910D02*
X142484815Y-91296607D01*
X142940066Y-90587737D02*
X143089022Y-90609825D01*
X143089022Y-90609825D02*
X143144187Y-90648452D01*
X143144187Y-90648452D02*
X143207620Y-90733974D01*
X143207620Y-90733974D02*
X143232427Y-90874661D01*
X143232427Y-90874661D02*
X143202069Y-90976721D01*
X143202069Y-90976721D02*
X143163443Y-91031886D01*
X143163443Y-91031886D02*
X143077920Y-91095319D01*
X143077920Y-91095319D02*
X142702755Y-91161471D01*
X142702755Y-91161471D02*
X142529107Y-90176663D01*
X142529107Y-90176663D02*
X142857377Y-90118780D01*
X142857377Y-90118780D02*
X142959437Y-90149138D01*
X142959437Y-90149138D02*
X143014601Y-90187765D01*
X143014601Y-90187765D02*
X143078035Y-90273287D01*
X143078035Y-90273287D02*
X143094573Y-90367078D01*
X143094573Y-90367078D02*
X143064215Y-90469138D01*
X143064215Y-90469138D02*
X143025588Y-90524303D01*
X143025588Y-90524303D02*
X142940066Y-90587737D01*
X142940066Y-90587737D02*
X142611797Y-90645619D01*
X143828250Y-90963016D02*
X143726190Y-90932658D01*
X143726190Y-90932658D02*
X143671025Y-90894032D01*
X143671025Y-90894032D02*
X143607592Y-90808509D01*
X143607592Y-90808509D02*
X143557978Y-90527136D01*
X143557978Y-90527136D02*
X143588336Y-90425076D01*
X143588336Y-90425076D02*
X143626962Y-90369911D01*
X143626962Y-90369911D02*
X143712485Y-90306477D01*
X143712485Y-90306477D02*
X143853171Y-90281671D01*
X143853171Y-90281671D02*
X143955232Y-90312028D01*
X143955232Y-90312028D02*
X144010396Y-90350655D01*
X144010396Y-90350655D02*
X144073830Y-90436177D01*
X144073830Y-90436177D02*
X144123443Y-90717551D01*
X144123443Y-90717551D02*
X144093086Y-90819611D01*
X144093086Y-90819611D02*
X144054459Y-90874776D01*
X144054459Y-90874776D02*
X143968937Y-90938209D01*
X143968937Y-90938209D02*
X143828250Y-90963016D01*
X144578580Y-90830713D02*
X144462814Y-90174174D01*
X144495890Y-90361756D02*
X144526248Y-90259696D01*
X144526248Y-90259696D02*
X144564875Y-90204532D01*
X144564875Y-90204532D02*
X144650397Y-90141098D01*
X144650397Y-90141098D02*
X144744188Y-90124560D01*
X145555119Y-90610169D02*
X145469597Y-90673602D01*
X145469597Y-90673602D02*
X145282014Y-90706678D01*
X145282014Y-90706678D02*
X145179954Y-90676320D01*
X145179954Y-90676320D02*
X145116521Y-90590798D01*
X145116521Y-90590798D02*
X145050369Y-90215633D01*
X145050369Y-90215633D02*
X145080727Y-90113573D01*
X145080727Y-90113573D02*
X145166249Y-90050140D01*
X145166249Y-90050140D02*
X145353831Y-90017064D01*
X145353831Y-90017064D02*
X145455891Y-90047421D01*
X145455891Y-90047421D02*
X145519325Y-90132944D01*
X145519325Y-90132944D02*
X145535863Y-90226735D01*
X145535863Y-90226735D02*
X145083445Y-90403216D01*
X146454405Y-90499954D02*
X146280756Y-89515146D01*
X146446136Y-90453058D02*
X146360613Y-90516492D01*
X146360613Y-90516492D02*
X146173031Y-90549568D01*
X146173031Y-90549568D02*
X146070971Y-90519210D01*
X146070971Y-90519210D02*
X146015806Y-90480583D01*
X146015806Y-90480583D02*
X145952373Y-90395061D01*
X145952373Y-90395061D02*
X145902759Y-90113688D01*
X145902759Y-90113688D02*
X145933117Y-90011627D01*
X145933117Y-90011627D02*
X145971743Y-89956463D01*
X145971743Y-89956463D02*
X146057266Y-89893029D01*
X146057266Y-89893029D02*
X146244848Y-89859953D01*
X146244848Y-89859953D02*
X146346908Y-89890311D01*
X136888199Y-59946442D02*
X137230219Y-59006750D01*
X137107987Y-59621037D02*
X137246177Y-60076736D01*
X137474190Y-59450274D02*
X136985919Y-59677959D01*
X137648903Y-60223316D02*
X137876916Y-59596854D01*
X137990923Y-59283623D02*
X137929889Y-59312084D01*
X137929889Y-59312084D02*
X137958349Y-59373118D01*
X137958349Y-59373118D02*
X138019383Y-59344657D01*
X138019383Y-59344657D02*
X137990923Y-59283623D01*
X137990923Y-59283623D02*
X137958349Y-59373118D01*
X138515387Y-60488015D02*
X138409606Y-60500189D01*
X138409606Y-60500189D02*
X138230617Y-60435042D01*
X138230617Y-60435042D02*
X138157409Y-60357722D01*
X138157409Y-60357722D02*
X138128948Y-60296688D01*
X138128948Y-60296688D02*
X138116774Y-60190907D01*
X138116774Y-60190907D02*
X138214494Y-59922423D01*
X138214494Y-59922423D02*
X138291815Y-59849215D01*
X138291815Y-59849215D02*
X138352849Y-59820754D01*
X138352849Y-59820754D02*
X138458630Y-59808581D01*
X138458630Y-59808581D02*
X138637619Y-59873727D01*
X138637619Y-59873727D02*
X138710827Y-59951048D01*
X138901826Y-60679342D02*
X139243846Y-59739650D01*
X139121614Y-60353938D02*
X139259804Y-60809636D01*
X139487817Y-60183174D02*
X138999546Y-60410859D01*
X140036794Y-61041762D02*
X139931013Y-61053936D01*
X139931013Y-61053936D02*
X139752024Y-60988789D01*
X139752024Y-60988789D02*
X139678816Y-60911469D01*
X139678816Y-60911469D02*
X139666642Y-60805687D01*
X139666642Y-60805687D02*
X139796936Y-60447709D01*
X139796936Y-60447709D02*
X139874256Y-60374501D01*
X139874256Y-60374501D02*
X139980037Y-60362328D01*
X139980037Y-60362328D02*
X140159026Y-60427474D01*
X140159026Y-60427474D02*
X140232234Y-60504795D01*
X140232234Y-60504795D02*
X140244408Y-60610576D01*
X140244408Y-60610576D02*
X140211835Y-60700071D01*
X140211835Y-60700071D02*
X139731789Y-60626698D01*
X140467980Y-61249376D02*
X140695994Y-60622914D01*
X140630847Y-60801903D02*
X140708168Y-60728696D01*
X140708168Y-60728696D02*
X140769202Y-60700235D01*
X140769202Y-60700235D02*
X140874983Y-60688061D01*
X140874983Y-60688061D02*
X140964477Y-60720634D01*
X141765652Y-61721690D02*
X142107672Y-60781997D01*
X141977378Y-61139975D02*
X142083160Y-61127801D01*
X142083160Y-61127801D02*
X142262149Y-61192948D01*
X142262149Y-61192948D02*
X142335357Y-61270269D01*
X142335357Y-61270269D02*
X142363817Y-61331303D01*
X142363817Y-61331303D02*
X142375991Y-61437084D01*
X142375991Y-61437084D02*
X142278271Y-61705568D01*
X142278271Y-61705568D02*
X142200950Y-61778775D01*
X142200950Y-61778775D02*
X142139917Y-61807236D01*
X142139917Y-61807236D02*
X142034135Y-61819410D01*
X142034135Y-61819410D02*
X141855146Y-61754263D01*
X141855146Y-61754263D02*
X141781938Y-61676943D01*
X142750092Y-62079997D02*
X142676884Y-62002676D01*
X142676884Y-62002676D02*
X142648423Y-61941642D01*
X142648423Y-61941642D02*
X142636249Y-61835861D01*
X142636249Y-61835861D02*
X142733969Y-61567377D01*
X142733969Y-61567377D02*
X142811290Y-61494170D01*
X142811290Y-61494170D02*
X142872324Y-61465709D01*
X142872324Y-61465709D02*
X142978105Y-61453535D01*
X142978105Y-61453535D02*
X143112347Y-61502395D01*
X143112347Y-61502395D02*
X143185555Y-61579716D01*
X143185555Y-61579716D02*
X143214015Y-61640750D01*
X143214015Y-61640750D02*
X143226189Y-61746531D01*
X143226189Y-61746531D02*
X143128469Y-62015014D01*
X143128469Y-62015014D02*
X143051149Y-62088222D01*
X143051149Y-62088222D02*
X142990115Y-62116683D01*
X142990115Y-62116683D02*
X142884334Y-62128857D01*
X142884334Y-62128857D02*
X142750092Y-62079997D01*
X143868773Y-62487164D02*
X144047927Y-61994944D01*
X144047927Y-61994944D02*
X144035753Y-61889162D01*
X144035753Y-61889162D02*
X143962545Y-61811842D01*
X143962545Y-61811842D02*
X143783556Y-61746695D01*
X143783556Y-61746695D02*
X143677775Y-61758869D01*
X143885060Y-62442416D02*
X143779279Y-62454590D01*
X143779279Y-62454590D02*
X143555543Y-62373157D01*
X143555543Y-62373157D02*
X143482335Y-62295836D01*
X143482335Y-62295836D02*
X143470161Y-62190055D01*
X143470161Y-62190055D02*
X143502734Y-62100561D01*
X143502734Y-62100561D02*
X143580055Y-62027353D01*
X143580055Y-62027353D02*
X143685836Y-62015179D01*
X143685836Y-62015179D02*
X143909572Y-62096612D01*
X143909572Y-62096612D02*
X144015354Y-62084438D01*
X144316246Y-62650030D02*
X144544260Y-62023569D01*
X144479113Y-62202558D02*
X144556434Y-62129350D01*
X144556434Y-62129350D02*
X144617468Y-62100889D01*
X144617468Y-62100889D02*
X144723249Y-62088715D01*
X144723249Y-62088715D02*
X144812743Y-62121289D01*
X145300687Y-63008337D02*
X145642707Y-62068645D01*
X145316973Y-62963590D02*
X145211192Y-62975764D01*
X145211192Y-62975764D02*
X145032203Y-62910617D01*
X145032203Y-62910617D02*
X144958995Y-62833297D01*
X144958995Y-62833297D02*
X144930534Y-62772263D01*
X144930534Y-62772263D02*
X144918361Y-62666482D01*
X144918361Y-62666482D02*
X145016081Y-62397998D01*
X145016081Y-62397998D02*
X145093401Y-62324790D01*
X145093401Y-62324790D02*
X145154435Y-62296329D01*
X145154435Y-62296329D02*
X145260216Y-62284156D01*
X145260216Y-62284156D02*
X145439205Y-62349302D01*
X145439205Y-62349302D02*
X145512413Y-62426623D01*
X136779861Y-82676711D02*
X136692705Y-81680516D01*
X136692705Y-81680516D02*
X137087024Y-82363032D01*
X137087024Y-82363032D02*
X137356835Y-81622412D01*
X137356835Y-81622412D02*
X137443991Y-82618607D01*
X138345310Y-82539752D02*
X138299657Y-82017935D01*
X138299657Y-82017935D02*
X138243918Y-81927210D01*
X138243918Y-81927210D02*
X138144892Y-81888073D01*
X138144892Y-81888073D02*
X137955141Y-81904674D01*
X137955141Y-81904674D02*
X137864416Y-81960412D01*
X138341159Y-82492314D02*
X138250434Y-82548052D01*
X138250434Y-82548052D02*
X138013245Y-82568804D01*
X138013245Y-82568804D02*
X137914219Y-82529666D01*
X137914219Y-82529666D02*
X137858480Y-82438941D01*
X137858480Y-82438941D02*
X137850180Y-82344065D01*
X137850180Y-82344065D02*
X137889317Y-82245039D01*
X137889317Y-82245039D02*
X137980043Y-82189301D01*
X137980043Y-82189301D02*
X138217232Y-82168550D01*
X138217232Y-82168550D02*
X138307957Y-82112811D01*
X138819688Y-82498249D02*
X138761584Y-81834119D01*
X138732532Y-81502054D02*
X138689245Y-81553642D01*
X138689245Y-81553642D02*
X138740833Y-81596930D01*
X138740833Y-81596930D02*
X138784121Y-81545342D01*
X138784121Y-81545342D02*
X138732532Y-81502054D01*
X138732532Y-81502054D02*
X138740833Y-81596930D01*
X139235962Y-81792617D02*
X139294066Y-82456746D01*
X139244263Y-81887492D02*
X139287550Y-81835904D01*
X139287550Y-81835904D02*
X139378276Y-81780166D01*
X139378276Y-81780166D02*
X139520589Y-81767715D01*
X139520589Y-81767715D02*
X139619615Y-81806852D01*
X139619615Y-81806852D02*
X139675354Y-81897578D01*
X139675354Y-81897578D02*
X139721007Y-82419394D01*
X139966497Y-82493518D02*
X140725502Y-82427114D01*
X141240803Y-81760619D02*
X141387267Y-81795606D01*
X141387267Y-81795606D02*
X141438855Y-81838893D01*
X141438855Y-81838893D02*
X141494593Y-81929619D01*
X141494593Y-81929619D02*
X141507044Y-82071932D01*
X141507044Y-82071932D02*
X141467907Y-82170958D01*
X141467907Y-82170958D02*
X141424619Y-82222546D01*
X141424619Y-82222546D02*
X141333894Y-82278285D01*
X141333894Y-82278285D02*
X140954391Y-82311487D01*
X140954391Y-82311487D02*
X140867235Y-81315292D01*
X140867235Y-81315292D02*
X141199300Y-81286240D01*
X141199300Y-81286240D02*
X141298326Y-81325377D01*
X141298326Y-81325377D02*
X141349914Y-81368665D01*
X141349914Y-81368665D02*
X141405653Y-81459390D01*
X141405653Y-81459390D02*
X141413953Y-81554266D01*
X141413953Y-81554266D02*
X141374816Y-81653292D01*
X141374816Y-81653292D02*
X141331528Y-81704880D01*
X141331528Y-81704880D02*
X141240803Y-81760619D01*
X141240803Y-81760619D02*
X140908738Y-81789670D01*
X142092899Y-82211880D02*
X141993873Y-82172743D01*
X141993873Y-82172743D02*
X141942285Y-82129455D01*
X141942285Y-82129455D02*
X141886547Y-82038730D01*
X141886547Y-82038730D02*
X141861645Y-81754103D01*
X141861645Y-81754103D02*
X141900782Y-81655077D01*
X141900782Y-81655077D02*
X141944070Y-81603489D01*
X141944070Y-81603489D02*
X142034795Y-81547750D01*
X142034795Y-81547750D02*
X142177109Y-81535300D01*
X142177109Y-81535300D02*
X142276135Y-81574437D01*
X142276135Y-81574437D02*
X142327723Y-81617724D01*
X142327723Y-81617724D02*
X142383461Y-81708450D01*
X142383461Y-81708450D02*
X142408363Y-81993077D01*
X142408363Y-81993077D02*
X142369226Y-82092103D01*
X142369226Y-82092103D02*
X142325938Y-82143691D01*
X142325938Y-82143691D02*
X142235213Y-82199429D01*
X142235213Y-82199429D02*
X142092899Y-82211880D01*
X142851905Y-82145476D02*
X142793801Y-81481346D01*
X142810402Y-81671097D02*
X142849539Y-81572071D01*
X142849539Y-81572071D02*
X142892827Y-81520483D01*
X142892827Y-81520483D02*
X142983552Y-81464745D01*
X142983552Y-81464745D02*
X143078428Y-81456444D01*
X143843950Y-82010882D02*
X143753224Y-82066621D01*
X143753224Y-82066621D02*
X143563473Y-82083222D01*
X143563473Y-82083222D02*
X143464447Y-82044084D01*
X143464447Y-82044084D02*
X143408708Y-81953359D01*
X143408708Y-81953359D02*
X143375506Y-81573856D01*
X143375506Y-81573856D02*
X143414644Y-81474830D01*
X143414644Y-81474830D02*
X143505369Y-81419092D01*
X143505369Y-81419092D02*
X143695120Y-81402491D01*
X143695120Y-81402491D02*
X143794146Y-81441628D01*
X143794146Y-81441628D02*
X143849885Y-81532353D01*
X143849885Y-81532353D02*
X143858185Y-81627229D01*
X143858185Y-81627229D02*
X143392107Y-81763608D01*
X144749419Y-81979465D02*
X144662263Y-80983270D01*
X144745269Y-81932027D02*
X144654543Y-81987765D01*
X144654543Y-81987765D02*
X144464792Y-82004366D01*
X144464792Y-82004366D02*
X144365766Y-81965229D01*
X144365766Y-81965229D02*
X144314178Y-81921942D01*
X144314178Y-81921942D02*
X144258440Y-81831216D01*
X144258440Y-81831216D02*
X144233538Y-81546589D01*
X144233538Y-81546589D02*
X144272675Y-81447563D01*
X144272675Y-81447563D02*
X144315963Y-81395975D01*
X144315963Y-81395975D02*
X144406688Y-81340237D01*
X144406688Y-81340237D02*
X144596440Y-81323636D01*
X144596440Y-81323636D02*
X144695465Y-81362773D01*
X134304100Y-66065669D02*
X134156203Y-66617627D01*
X134230151Y-66341648D02*
X133264226Y-66082829D01*
X133264226Y-66082829D02*
X133377566Y-66211796D01*
X133377566Y-66211796D02*
X133444909Y-66328438D01*
X133444909Y-66328438D02*
X133466256Y-66432756D01*
X133528765Y-65463528D02*
X133495093Y-65405206D01*
X133495093Y-65405206D02*
X133473746Y-65300889D01*
X133473746Y-65300889D02*
X133535369Y-65070906D01*
X133535369Y-65070906D02*
X133606015Y-64991238D01*
X133606015Y-64991238D02*
X133664336Y-64957566D01*
X133664336Y-64957566D02*
X133768654Y-64936219D01*
X133768654Y-64936219D02*
X133860647Y-64960869D01*
X133860647Y-64960869D02*
X133986312Y-65043840D01*
X133986312Y-65043840D02*
X134390373Y-65743694D01*
X134390373Y-65743694D02*
X134550594Y-65145740D01*
X133658617Y-64610942D02*
X134710815Y-64547786D01*
X134710815Y-64547786D02*
X133831163Y-63966991D01*
X135023494Y-77962267D02*
X135064997Y-78436645D01*
X135064997Y-78436645D02*
X135543526Y-78442580D01*
X135543526Y-78442580D02*
X135491938Y-78399293D01*
X135491938Y-78399293D02*
X135436199Y-78308567D01*
X135436199Y-78308567D02*
X135415448Y-78071378D01*
X135415448Y-78071378D02*
X135454585Y-77972352D01*
X135454585Y-77972352D02*
X135497873Y-77920764D01*
X135497873Y-77920764D02*
X135588598Y-77865025D01*
X135588598Y-77865025D02*
X135825787Y-77844274D01*
X135825787Y-77844274D02*
X135924813Y-77883411D01*
X135924813Y-77883411D02*
X135976401Y-77926699D01*
X135976401Y-77926699D02*
X136032140Y-78017424D01*
X136032140Y-78017424D02*
X136052891Y-78254614D01*
X136052891Y-78254614D02*
X136013754Y-78353640D01*
X136013754Y-78353640D02*
X135970466Y-78405228D01*
X134994442Y-77630202D02*
X135961585Y-77210981D01*
X135961585Y-77210981D02*
X134936338Y-76966072D01*
X136671177Y-87657252D02*
X136753867Y-88126208D01*
X136753867Y-88126208D02*
X137231092Y-88090414D01*
X137231092Y-88090414D02*
X137175927Y-88051787D01*
X137175927Y-88051787D02*
X137112493Y-87966265D01*
X137112493Y-87966265D02*
X137071149Y-87731787D01*
X137071149Y-87731787D02*
X137101506Y-87629727D01*
X137101506Y-87629727D02*
X137140133Y-87574562D01*
X137140133Y-87574562D02*
X137225655Y-87511129D01*
X137225655Y-87511129D02*
X137460133Y-87469784D01*
X137460133Y-87469784D02*
X137562193Y-87500141D01*
X137562193Y-87500141D02*
X137617358Y-87538768D01*
X137617358Y-87538768D02*
X137680792Y-87624290D01*
X137680792Y-87624290D02*
X137722136Y-87858768D01*
X137722136Y-87858768D02*
X137691779Y-87960829D01*
X137691779Y-87960829D02*
X137653152Y-88015993D01*
X136613294Y-87328982D02*
X137540219Y-86827065D01*
X137540219Y-86827065D02*
X136497529Y-86672444D01*
X137115663Y-55937271D02*
X136920223Y-56474238D01*
X137017943Y-56205755D02*
X136078250Y-55863734D01*
X136078250Y-55863734D02*
X136179919Y-56002089D01*
X136179919Y-56002089D02*
X136236840Y-56124157D01*
X136236840Y-56124157D02*
X136249014Y-56229938D01*
X136395758Y-55269846D02*
X136367298Y-55208812D01*
X136367298Y-55208812D02*
X136355124Y-55103031D01*
X136355124Y-55103031D02*
X136436557Y-54879294D01*
X136436557Y-54879294D02*
X136513878Y-54806087D01*
X136513878Y-54806087D02*
X136574912Y-54777626D01*
X136574912Y-54777626D02*
X136680693Y-54765452D01*
X136680693Y-54765452D02*
X136770187Y-54798025D01*
X136770187Y-54798025D02*
X136888143Y-54891633D01*
X136888143Y-54891633D02*
X137229670Y-55624040D01*
X137229670Y-55624040D02*
X137441396Y-55042325D01*
X136599424Y-54431822D02*
X137653123Y-54460611D01*
X137653123Y-54460611D02*
X136827437Y-53805360D01*
X138525348Y-71253202D02*
X138698997Y-70268394D01*
X138698997Y-70268394D02*
X138903231Y-71029711D01*
X138903231Y-71029711D02*
X139355535Y-70384160D01*
X139355535Y-70384160D02*
X139181887Y-71368968D01*
X139650843Y-71451657D02*
X139824491Y-70466849D01*
X139824491Y-70466849D02*
X140058969Y-70508194D01*
X140058969Y-70508194D02*
X140191387Y-70579897D01*
X140191387Y-70579897D02*
X140268640Y-70690226D01*
X140268640Y-70690226D02*
X140298998Y-70792286D01*
X140298998Y-70792286D02*
X140312818Y-70988137D01*
X140312818Y-70988137D02*
X140288011Y-71128824D01*
X140288011Y-71128824D02*
X140208039Y-71308138D01*
X140208039Y-71308138D02*
X140144606Y-71393660D01*
X140144606Y-71393660D02*
X140034277Y-71470913D01*
X140034277Y-71470913D02*
X139885321Y-71493002D01*
X139885321Y-71493002D02*
X139650843Y-71451657D01*
X125754819Y-99471904D02*
X124754819Y-99471904D01*
X125754819Y-98900476D02*
X125183390Y-99329047D01*
X124754819Y-98900476D02*
X125326247Y-99471904D01*
X116304666Y-111796819D02*
X116304666Y-112511104D01*
X116304666Y-112511104D02*
X116257047Y-112653961D01*
X116257047Y-112653961D02*
X116161809Y-112749200D01*
X116161809Y-112749200D02*
X116018952Y-112796819D01*
X116018952Y-112796819D02*
X115923714Y-112796819D01*
X116685619Y-111796819D02*
X117304666Y-111796819D01*
X117304666Y-111796819D02*
X116971333Y-112177771D01*
X116971333Y-112177771D02*
X117114190Y-112177771D01*
X117114190Y-112177771D02*
X117209428Y-112225390D01*
X117209428Y-112225390D02*
X117257047Y-112273009D01*
X117257047Y-112273009D02*
X117304666Y-112368247D01*
X117304666Y-112368247D02*
X117304666Y-112606342D01*
X117304666Y-112606342D02*
X117257047Y-112701580D01*
X117257047Y-112701580D02*
X117209428Y-112749200D01*
X117209428Y-112749200D02*
X117114190Y-112796819D01*
X117114190Y-112796819D02*
X116828476Y-112796819D01*
X116828476Y-112796819D02*
X116733238Y-112749200D01*
X116733238Y-112749200D02*
X116685619Y-112701580D01*
X93559819Y-76668094D02*
X92559819Y-76668094D01*
X92559819Y-76668094D02*
X93274104Y-76334761D01*
X93274104Y-76334761D02*
X92559819Y-76001428D01*
X92559819Y-76001428D02*
X93559819Y-76001428D01*
X93036009Y-75525237D02*
X93036009Y-75191904D01*
X93559819Y-75049047D02*
X93559819Y-75525237D01*
X93559819Y-75525237D02*
X92559819Y-75525237D01*
X92559819Y-75525237D02*
X92559819Y-75049047D01*
X93512200Y-74668094D02*
X93559819Y-74525237D01*
X93559819Y-74525237D02*
X93559819Y-74287142D01*
X93559819Y-74287142D02*
X93512200Y-74191904D01*
X93512200Y-74191904D02*
X93464580Y-74144285D01*
X93464580Y-74144285D02*
X93369342Y-74096666D01*
X93369342Y-74096666D02*
X93274104Y-74096666D01*
X93274104Y-74096666D02*
X93178866Y-74144285D01*
X93178866Y-74144285D02*
X93131247Y-74191904D01*
X93131247Y-74191904D02*
X93083628Y-74287142D01*
X93083628Y-74287142D02*
X93036009Y-74477618D01*
X93036009Y-74477618D02*
X92988390Y-74572856D01*
X92988390Y-74572856D02*
X92940771Y-74620475D01*
X92940771Y-74620475D02*
X92845533Y-74668094D01*
X92845533Y-74668094D02*
X92750295Y-74668094D01*
X92750295Y-74668094D02*
X92655057Y-74620475D01*
X92655057Y-74620475D02*
X92607438Y-74572856D01*
X92607438Y-74572856D02*
X92559819Y-74477618D01*
X92559819Y-74477618D02*
X92559819Y-74239523D01*
X92559819Y-74239523D02*
X92607438Y-74096666D01*
X93559819Y-73144285D02*
X93559819Y-73715713D01*
X93559819Y-73429999D02*
X92559819Y-73429999D01*
X92559819Y-73429999D02*
X92702676Y-73525237D01*
X92702676Y-73525237D02*
X92797914Y-73620475D01*
X92797914Y-73620475D02*
X92845533Y-73715713D01*
X130644819Y-99561904D02*
X129644819Y-99561904D01*
X130644819Y-98990476D02*
X130073390Y-99419047D01*
X129644819Y-98990476D02*
X130216247Y-99561904D01*
X137730737Y-94742048D02*
X137865424Y-94674704D01*
X137865424Y-94674704D02*
X137932767Y-94674704D01*
X137932767Y-94674704D02*
X138033783Y-94708376D01*
X138033783Y-94708376D02*
X138134798Y-94809391D01*
X138134798Y-94809391D02*
X138168470Y-94910407D01*
X138168470Y-94910407D02*
X138168470Y-94977750D01*
X138168470Y-94977750D02*
X138134798Y-95078765D01*
X138134798Y-95078765D02*
X137865424Y-95348139D01*
X137865424Y-95348139D02*
X137158317Y-94641033D01*
X137158317Y-94641033D02*
X137394019Y-94405330D01*
X137394019Y-94405330D02*
X137495035Y-94371659D01*
X137495035Y-94371659D02*
X137562378Y-94371659D01*
X137562378Y-94371659D02*
X137663393Y-94405330D01*
X137663393Y-94405330D02*
X137730737Y-94472674D01*
X137730737Y-94472674D02*
X137764409Y-94573689D01*
X137764409Y-94573689D02*
X137764409Y-94641033D01*
X137764409Y-94641033D02*
X137730737Y-94742048D01*
X137730737Y-94742048D02*
X137495035Y-94977750D01*
X137764409Y-94034941D02*
X138168470Y-93630880D01*
X138673546Y-94540017D02*
X137966439Y-93832911D01*
X139481668Y-93731895D02*
X139077607Y-94135956D01*
X139279638Y-93933926D02*
X138572531Y-93226819D01*
X138572531Y-93226819D02*
X138606203Y-93395178D01*
X138606203Y-93395178D02*
X138606203Y-93529865D01*
X138606203Y-93529865D02*
X138572531Y-93630880D01*
X98547200Y-100393332D02*
X98594819Y-100250475D01*
X98594819Y-100250475D02*
X98594819Y-100012380D01*
X98594819Y-100012380D02*
X98547200Y-99917142D01*
X98547200Y-99917142D02*
X98499580Y-99869523D01*
X98499580Y-99869523D02*
X98404342Y-99821904D01*
X98404342Y-99821904D02*
X98309104Y-99821904D01*
X98309104Y-99821904D02*
X98213866Y-99869523D01*
X98213866Y-99869523D02*
X98166247Y-99917142D01*
X98166247Y-99917142D02*
X98118628Y-100012380D01*
X98118628Y-100012380D02*
X98071009Y-100202856D01*
X98071009Y-100202856D02*
X98023390Y-100298094D01*
X98023390Y-100298094D02*
X97975771Y-100345713D01*
X97975771Y-100345713D02*
X97880533Y-100393332D01*
X97880533Y-100393332D02*
X97785295Y-100393332D01*
X97785295Y-100393332D02*
X97690057Y-100345713D01*
X97690057Y-100345713D02*
X97642438Y-100298094D01*
X97642438Y-100298094D02*
X97594819Y-100202856D01*
X97594819Y-100202856D02*
X97594819Y-99964761D01*
X97594819Y-99964761D02*
X97642438Y-99821904D01*
X97594819Y-99488570D02*
X98594819Y-99250475D01*
X98594819Y-99250475D02*
X97880533Y-99059999D01*
X97880533Y-99059999D02*
X98594819Y-98869523D01*
X98594819Y-98869523D02*
X97594819Y-98631428D01*
X98594819Y-97726666D02*
X98594819Y-98298094D01*
X98594819Y-98012380D02*
X97594819Y-98012380D01*
X97594819Y-98012380D02*
X97737676Y-98107618D01*
X97737676Y-98107618D02*
X97832914Y-98202856D01*
X97832914Y-98202856D02*
X97880533Y-98298094D01*
X103520952Y-104514819D02*
X103711428Y-104514819D01*
X103711428Y-104514819D02*
X103806666Y-104562438D01*
X103806666Y-104562438D02*
X103901904Y-104657676D01*
X103901904Y-104657676D02*
X103949523Y-104848152D01*
X103949523Y-104848152D02*
X103949523Y-105181485D01*
X103949523Y-105181485D02*
X103901904Y-105371961D01*
X103901904Y-105371961D02*
X103806666Y-105467200D01*
X103806666Y-105467200D02*
X103711428Y-105514819D01*
X103711428Y-105514819D02*
X103520952Y-105514819D01*
X103520952Y-105514819D02*
X103425714Y-105467200D01*
X103425714Y-105467200D02*
X103330476Y-105371961D01*
X103330476Y-105371961D02*
X103282857Y-105181485D01*
X103282857Y-105181485D02*
X103282857Y-104848152D01*
X103282857Y-104848152D02*
X103330476Y-104657676D01*
X103330476Y-104657676D02*
X103425714Y-104562438D01*
X103425714Y-104562438D02*
X103520952Y-104514819D01*
X104378095Y-105514819D02*
X104378095Y-104514819D01*
X104378095Y-104514819D02*
X104949523Y-105514819D01*
X104949523Y-105514819D02*
X104949523Y-104514819D01*
X124862561Y-60594285D02*
X122862561Y-61927618D01*
X124862561Y-61927618D02*
X122862561Y-60594285D01*
X122862561Y-63641904D02*
X122862561Y-62689523D01*
X122862561Y-62689523D02*
X124862561Y-62689523D01*
X124862561Y-65165714D02*
X124862561Y-64784761D01*
X124862561Y-64784761D02*
X124767323Y-64594285D01*
X124767323Y-64594285D02*
X124672085Y-64499047D01*
X124672085Y-64499047D02*
X124386371Y-64308571D01*
X124386371Y-64308571D02*
X124005419Y-64213333D01*
X124005419Y-64213333D02*
X123243514Y-64213333D01*
X123243514Y-64213333D02*
X123053038Y-64308571D01*
X123053038Y-64308571D02*
X122957800Y-64403809D01*
X122957800Y-64403809D02*
X122862561Y-64594285D01*
X122862561Y-64594285D02*
X122862561Y-64975238D01*
X122862561Y-64975238D02*
X122957800Y-65165714D01*
X122957800Y-65165714D02*
X123053038Y-65260952D01*
X123053038Y-65260952D02*
X123243514Y-65356190D01*
X123243514Y-65356190D02*
X123719704Y-65356190D01*
X123719704Y-65356190D02*
X123910180Y-65260952D01*
X123910180Y-65260952D02*
X124005419Y-65165714D01*
X124005419Y-65165714D02*
X124100657Y-64975238D01*
X124100657Y-64975238D02*
X124100657Y-64594285D01*
X124100657Y-64594285D02*
X124005419Y-64403809D01*
X124005419Y-64403809D02*
X123910180Y-64308571D01*
X123910180Y-64308571D02*
X123719704Y-64213333D01*
X124862561Y-66594285D02*
X124862561Y-66784762D01*
X124862561Y-66784762D02*
X124767323Y-66975238D01*
X124767323Y-66975238D02*
X124672085Y-67070476D01*
X124672085Y-67070476D02*
X124481609Y-67165714D01*
X124481609Y-67165714D02*
X124100657Y-67260952D01*
X124100657Y-67260952D02*
X123624466Y-67260952D01*
X123624466Y-67260952D02*
X123243514Y-67165714D01*
X123243514Y-67165714D02*
X123053038Y-67070476D01*
X123053038Y-67070476D02*
X122957800Y-66975238D01*
X122957800Y-66975238D02*
X122862561Y-66784762D01*
X122862561Y-66784762D02*
X122862561Y-66594285D01*
X122862561Y-66594285D02*
X122957800Y-66403809D01*
X122957800Y-66403809D02*
X123053038Y-66308571D01*
X123053038Y-66308571D02*
X123243514Y-66213333D01*
X123243514Y-66213333D02*
X123624466Y-66118095D01*
X123624466Y-66118095D02*
X124100657Y-66118095D01*
X124100657Y-66118095D02*
X124481609Y-66213333D01*
X124481609Y-66213333D02*
X124672085Y-66308571D01*
X124672085Y-66308571D02*
X124767323Y-66403809D01*
X124767323Y-66403809D02*
X124862561Y-66594285D01*
X124862561Y-68499047D02*
X124862561Y-68689524D01*
X124862561Y-68689524D02*
X124767323Y-68880000D01*
X124767323Y-68880000D02*
X124672085Y-68975238D01*
X124672085Y-68975238D02*
X124481609Y-69070476D01*
X124481609Y-69070476D02*
X124100657Y-69165714D01*
X124100657Y-69165714D02*
X123624466Y-69165714D01*
X123624466Y-69165714D02*
X123243514Y-69070476D01*
X123243514Y-69070476D02*
X123053038Y-68975238D01*
X123053038Y-68975238D02*
X122957800Y-68880000D01*
X122957800Y-68880000D02*
X122862561Y-68689524D01*
X122862561Y-68689524D02*
X122862561Y-68499047D01*
X122862561Y-68499047D02*
X122957800Y-68308571D01*
X122957800Y-68308571D02*
X123053038Y-68213333D01*
X123053038Y-68213333D02*
X123243514Y-68118095D01*
X123243514Y-68118095D02*
X123624466Y-68022857D01*
X123624466Y-68022857D02*
X124100657Y-68022857D01*
X124100657Y-68022857D02*
X124481609Y-68118095D01*
X124481609Y-68118095D02*
X124672085Y-68213333D01*
X124672085Y-68213333D02*
X124767323Y-68308571D01*
X124767323Y-68308571D02*
X124862561Y-68499047D01*
X122862561Y-70118095D02*
X122862561Y-70499047D01*
X122862561Y-70499047D02*
X122957800Y-70689524D01*
X122957800Y-70689524D02*
X123053038Y-70784762D01*
X123053038Y-70784762D02*
X123338752Y-70975238D01*
X123338752Y-70975238D02*
X123719704Y-71070476D01*
X123719704Y-71070476D02*
X124481609Y-71070476D01*
X124481609Y-71070476D02*
X124672085Y-70975238D01*
X124672085Y-70975238D02*
X124767323Y-70880000D01*
X124767323Y-70880000D02*
X124862561Y-70689524D01*
X124862561Y-70689524D02*
X124862561Y-70308571D01*
X124862561Y-70308571D02*
X124767323Y-70118095D01*
X124767323Y-70118095D02*
X124672085Y-70022857D01*
X124672085Y-70022857D02*
X124481609Y-69927619D01*
X124481609Y-69927619D02*
X124005419Y-69927619D01*
X124005419Y-69927619D02*
X123814942Y-70022857D01*
X123814942Y-70022857D02*
X123719704Y-70118095D01*
X123719704Y-70118095D02*
X123624466Y-70308571D01*
X123624466Y-70308571D02*
X123624466Y-70689524D01*
X123624466Y-70689524D02*
X123719704Y-70880000D01*
X123719704Y-70880000D02*
X123814942Y-70975238D01*
X123814942Y-70975238D02*
X124005419Y-71070476D01*
D11*
%TO.C,J2*%
X135408811Y-62812761D02*
X135191751Y-64043771D01*
X135644048Y-63148714D02*
X134607368Y-69028016D01*
X134607368Y-69028016D02*
X144573623Y-70785335D01*
X135652159Y-63160298D02*
X135521923Y-63898904D01*
X135521923Y-63898904D02*
X137294577Y-64211471D01*
X135261451Y-65376116D02*
X136000057Y-65506352D01*
X136000057Y-65506352D02*
X135487795Y-68411535D01*
X135487795Y-68411535D02*
X139722468Y-69158222D01*
X136639821Y-63029822D02*
X135408811Y-62812761D01*
X137424813Y-63472865D02*
X135652159Y-63160298D01*
X137294577Y-64211471D02*
X137424813Y-63472865D01*
X138902025Y-63733337D02*
X138771789Y-64471943D01*
X138771789Y-64471943D02*
X142218616Y-65079712D01*
X142348852Y-64341106D02*
X138902025Y-63733337D01*
X142218616Y-65079712D02*
X142348852Y-64341106D01*
X143826064Y-64601578D02*
X143695827Y-65340184D01*
X143695827Y-65340184D02*
X145468481Y-65652751D01*
X144469403Y-66999726D02*
X143957141Y-69904909D01*
X143957141Y-69904909D02*
X139722468Y-69158222D01*
X145598718Y-64914145D02*
X143826064Y-64601578D01*
X145468481Y-65652751D02*
X145598718Y-64914145D01*
X145208009Y-67129962D02*
X144469403Y-66999726D01*
X145610302Y-64906033D02*
X135644048Y-63148714D01*
X144573623Y-70785335D02*
X145610302Y-64906033D01*
%TO.C,D2*%
X125580000Y-98050000D02*
X125580000Y-90210000D01*
X126060000Y-98050000D02*
X125580000Y-98050000D01*
X128940000Y-98050000D02*
X129420000Y-98050000D01*
X129420000Y-98050000D02*
X129420000Y-90210000D01*
X125580000Y-96910000D02*
X129420000Y-96910000D01*
X125580000Y-96790000D02*
X129420000Y-96790000D01*
X125580000Y-96670000D02*
X129420000Y-96670000D01*
X125580000Y-90210000D02*
X126060000Y-90210000D01*
X129420000Y-90210000D02*
X128940000Y-90210000D01*
%TO.C,C2*%
X127770000Y-49680000D02*
X127770000Y-49055000D01*
X127770000Y-49680000D02*
X123730000Y-49680000D01*
X127770000Y-47465000D02*
X127770000Y-46840000D01*
X127770000Y-46840000D02*
X123730000Y-46840000D01*
X123730000Y-49680000D02*
X123730000Y-49055000D01*
X123730000Y-47465000D02*
X123730000Y-46840000D01*
%TO.C,C3*%
X113220000Y-63030000D02*
X112595000Y-63030000D01*
X113220000Y-63030000D02*
X113220000Y-67070000D01*
X111005000Y-63030000D02*
X110380000Y-63030000D01*
X110380000Y-63030000D02*
X110380000Y-67070000D01*
X113220000Y-67070000D02*
X112595000Y-67070000D01*
X111005000Y-67070000D02*
X110380000Y-67070000D01*
%TO.C,R1*%
X112110000Y-98440000D02*
X112110000Y-94600000D01*
X113950000Y-98440000D02*
X113950000Y-94600000D01*
%TO.C,F1*%
X135384205Y-105007897D02*
X131792102Y-101415795D01*
X131792102Y-101415795D02*
X126403949Y-106803949D01*
X129996051Y-110396051D02*
X135384205Y-105007897D01*
X126403949Y-106803949D02*
X121015795Y-112192102D01*
X124607897Y-115784205D02*
X129996051Y-110396051D01*
X121015795Y-112192102D02*
X124607897Y-115784205D01*
%TO.C,J5*%
X137453746Y-84120796D02*
X137670807Y-85351806D01*
X137789699Y-84356032D02*
X138826378Y-90235335D01*
X138826378Y-90235335D02*
X146330613Y-88912135D01*
X137801283Y-84364144D02*
X137931519Y-85102750D01*
X137931519Y-85102750D02*
X139704173Y-84790183D01*
X138191992Y-86579961D02*
X138930597Y-86449725D01*
X138930597Y-86449725D02*
X139442860Y-89354908D01*
X139442860Y-89354908D02*
X142446523Y-88825281D01*
X138684756Y-83903736D02*
X137453746Y-84120796D01*
X139573937Y-84051577D02*
X137801283Y-84364144D01*
X139704173Y-84790183D02*
X139573937Y-84051577D01*
X141051149Y-83791105D02*
X141181385Y-84529711D01*
X141181385Y-84529711D02*
X142166193Y-84356063D01*
X142035957Y-83617457D02*
X141051149Y-83791105D01*
X142166193Y-84356063D02*
X142035957Y-83617457D01*
X143513168Y-83356984D02*
X143643404Y-84095590D01*
X143643404Y-84095590D02*
X145416058Y-83783024D01*
X144937925Y-85390471D02*
X145450187Y-88295654D01*
X145450187Y-88295654D02*
X142446523Y-88825281D01*
X145285822Y-83044418D02*
X143513168Y-83356984D01*
X145416058Y-83783024D02*
X145285822Y-83044418D01*
X145676531Y-85260235D02*
X144937925Y-85390471D01*
X145293934Y-83032833D02*
X137789699Y-84356032D01*
X146330613Y-88912135D02*
X145293934Y-83032833D01*
%TO.C,J3*%
X121478000Y-107742000D02*
X120878000Y-107442000D01*
X121478000Y-107142000D02*
X121478000Y-107742000D01*
X120878000Y-107442000D02*
X121478000Y-107142000D01*
X120678000Y-109552000D02*
X119478000Y-109552000D01*
X120678000Y-102532000D02*
X120678000Y-109552000D01*
X119478000Y-111252000D02*
X113798000Y-111252000D01*
X119478000Y-109552000D02*
X119478000Y-111252000D01*
X113798000Y-111252000D02*
X113798000Y-109552000D01*
X113798000Y-109552000D02*
X112598000Y-109552000D01*
X112598000Y-109552000D02*
X112598000Y-102532000D01*
X112598000Y-102532000D02*
X120678000Y-102532000D01*
%TO.C,RV1*%
X124265000Y-92700000D02*
X124265000Y-87630000D01*
X124265000Y-92700000D02*
X114495000Y-92700000D01*
X124265000Y-87630000D02*
X114495000Y-87630000D01*
X114495000Y-92700000D02*
X114495000Y-87630000D01*
%TO.C,MES1*%
X92089000Y-86360000D02*
X92089000Y-74930000D01*
X102249000Y-86360000D02*
X92089000Y-86360000D01*
X92089000Y-74930000D02*
X92089000Y-63500000D01*
X102249000Y-74930000D02*
X102249000Y-86360000D01*
X92089000Y-63500000D02*
X102249000Y-63500000D01*
X102249000Y-63500000D02*
X102249000Y-74930000D01*
%TO.C,G\u002A\u002A\u002A*%
G36*
X110607465Y-71886271D02*
G01*
X110572671Y-71912296D01*
X110537876Y-71886271D01*
X110572671Y-71860246D01*
X110607465Y-71886271D01*
G37*
G36*
X110816232Y-72146517D02*
G01*
X110781438Y-72172541D01*
X110746643Y-72146517D01*
X110781438Y-72120492D01*
X110816232Y-72146517D01*
G37*
G36*
X112208013Y-72823156D02*
G01*
X112173219Y-72849181D01*
X112138424Y-72823156D01*
X112173219Y-72797132D01*
X112208013Y-72823156D01*
G37*
G36*
X110763553Y-83323043D02*
G01*
X112241833Y-83337091D01*
X112396809Y-83662398D01*
X112551784Y-83987705D01*
X110918529Y-83987705D01*
X109285274Y-83987705D01*
X109285274Y-83648351D01*
X109285274Y-83308996D01*
X110763553Y-83323043D01*
G37*
G36*
X111931431Y-72560608D02*
G01*
X111925049Y-72611511D01*
X111894863Y-72588935D01*
X111860068Y-72614959D01*
X111894863Y-72640984D01*
X111924095Y-72619119D01*
X111923714Y-72622152D01*
X111968327Y-72675212D01*
X112010700Y-72699429D01*
X112055885Y-72737173D01*
X112025164Y-72744285D01*
X111900312Y-72703825D01*
X111840563Y-72611649D01*
X111862983Y-72535140D01*
X111916399Y-72500350D01*
X111931431Y-72560608D01*
G37*
G36*
X111331478Y-71429259D02*
G01*
X111300475Y-71472474D01*
X111278553Y-71536232D01*
X111338150Y-71565533D01*
X111344212Y-71568513D01*
X111419385Y-71606659D01*
X111382120Y-71669373D01*
X111364596Y-71685598D01*
X111291259Y-71736657D01*
X111247663Y-71701508D01*
X111224517Y-71645946D01*
X111218270Y-71626025D01*
X111303356Y-71626025D01*
X111338150Y-71652050D01*
X111372945Y-71626025D01*
X111338150Y-71600000D01*
X111303356Y-71626025D01*
X111218270Y-71626025D01*
X111179085Y-71501073D01*
X111187677Y-71430011D01*
X111254535Y-71409357D01*
X111267456Y-71409153D01*
X111331478Y-71429259D01*
G37*
G36*
X110098561Y-72885059D02*
G01*
X110113979Y-72901230D01*
X110174254Y-72942164D01*
X110188866Y-72925595D01*
X110247897Y-72879470D01*
X110385259Y-72861832D01*
X110544920Y-72874019D01*
X110665808Y-72914194D01*
X110734309Y-72945408D01*
X110731849Y-72927255D01*
X110762117Y-72896174D01*
X110878024Y-72879329D01*
X111027072Y-72878265D01*
X111156759Y-72894528D01*
X111203598Y-72913364D01*
X111193284Y-72950929D01*
X111069744Y-72979525D01*
X110858699Y-72996134D01*
X110585872Y-72997739D01*
X110505680Y-72995237D01*
X110245930Y-72975393D01*
X110105476Y-72938531D01*
X110068350Y-72901230D01*
X110055789Y-72849556D01*
X110098561Y-72885059D01*
G37*
G36*
X111134464Y-70645751D02*
G01*
X111222773Y-70698552D01*
X111214236Y-70752026D01*
X111146780Y-70768011D01*
X111097044Y-70780176D01*
X111143107Y-70808421D01*
X111187886Y-70879619D01*
X111166943Y-70920015D01*
X111134902Y-71026494D01*
X111145506Y-71066140D01*
X111189774Y-71112718D01*
X111241550Y-71070860D01*
X111279061Y-71058437D01*
X111285618Y-71143517D01*
X111284058Y-71161869D01*
X111246741Y-71268820D01*
X111181701Y-71321707D01*
X111121828Y-71306573D01*
X111099953Y-71239994D01*
X111091515Y-71142378D01*
X111075601Y-70985148D01*
X111065041Y-70887416D01*
X111054269Y-70728907D01*
X111071374Y-70653768D01*
X111121925Y-70642615D01*
X111134464Y-70645751D01*
G37*
G36*
X110667757Y-72105449D02*
G01*
X110677054Y-72139033D01*
X110724437Y-72221444D01*
X110842182Y-72330891D01*
X110881713Y-72360244D01*
X111000597Y-72462087D01*
X111048493Y-72540650D01*
X111044270Y-72555674D01*
X111056640Y-72584092D01*
X111117967Y-72573389D01*
X111217454Y-72562597D01*
X111239091Y-72577556D01*
X111255352Y-72655871D01*
X111268808Y-72711551D01*
X111273333Y-72768165D01*
X111225773Y-72756814D01*
X111124306Y-72689466D01*
X111007616Y-72588240D01*
X110955587Y-72505076D01*
X110955411Y-72501788D01*
X110916389Y-72438529D01*
X110890560Y-72432787D01*
X110803445Y-72395523D01*
X110704651Y-72307372D01*
X110624037Y-72203800D01*
X110591462Y-72120272D01*
X110606206Y-72095050D01*
X110667757Y-72105449D01*
G37*
G36*
X111431296Y-71794651D02*
G01*
X111442534Y-71834222D01*
X111470995Y-71892704D01*
X111502341Y-71890793D01*
X111540332Y-71912546D01*
X111543263Y-71991819D01*
X111550009Y-72088461D01*
X111585656Y-72120492D01*
X111616770Y-72159412D01*
X111602497Y-72207104D01*
X111592691Y-72265854D01*
X111639475Y-72256082D01*
X111686096Y-72249779D01*
X111715376Y-72245820D01*
X111726214Y-72260556D01*
X111741899Y-72342713D01*
X111756434Y-72406763D01*
X111764520Y-72470283D01*
X111726660Y-72457593D01*
X111646726Y-72387984D01*
X111622654Y-72354714D01*
X111651301Y-72354714D01*
X111686096Y-72380738D01*
X111720890Y-72354714D01*
X111686096Y-72328689D01*
X111651301Y-72354714D01*
X111622654Y-72354714D01*
X111513383Y-72203687D01*
X111503882Y-72055431D01*
X111457937Y-72018711D01*
X111430936Y-72016394D01*
X111384146Y-71995501D01*
X111395537Y-71982146D01*
X111398581Y-71919193D01*
X111368962Y-71882681D01*
X111335225Y-71810749D01*
X111369566Y-71783735D01*
X111431296Y-71794651D01*
G37*
G36*
X110120342Y-85054714D02*
G01*
X110122087Y-85298522D01*
X110130447Y-85456646D01*
X110150109Y-85547491D01*
X110185759Y-85589460D01*
X110242085Y-85600959D01*
X110259520Y-85601230D01*
X110353542Y-85582043D01*
X110392917Y-85506087D01*
X110398698Y-85409466D01*
X110457213Y-85135424D01*
X110617086Y-84904400D01*
X110854815Y-84726349D01*
X111146895Y-84611225D01*
X111469822Y-84568983D01*
X111800092Y-84609579D01*
X112053900Y-84708439D01*
X112237914Y-84831748D01*
X112364526Y-84985102D01*
X112442261Y-85188052D01*
X112479644Y-85460149D01*
X112486369Y-85700182D01*
X112486369Y-86225820D01*
X112036652Y-86225820D01*
X111586935Y-86225820D01*
X111566926Y-85744365D01*
X111552931Y-85510752D01*
X111531501Y-85364085D01*
X111498211Y-85287239D01*
X111448636Y-85263087D01*
X111442534Y-85262910D01*
X111369527Y-85300184D01*
X111321157Y-85420755D01*
X111302678Y-85526219D01*
X111256329Y-85712681D01*
X111180272Y-85879050D01*
X111142322Y-85932085D01*
X110900262Y-86121178D01*
X110588860Y-86238842D01*
X110244486Y-86279356D01*
X109903508Y-86236996D01*
X109695702Y-86159721D01*
X109503691Y-86044204D01*
X109368503Y-85907880D01*
X109281384Y-85731311D01*
X109233585Y-85495060D01*
X109216353Y-85179686D01*
X109215793Y-85093750D01*
X109215685Y-84508197D01*
X109668013Y-84508197D01*
X110120342Y-84508197D01*
X110120342Y-85054714D01*
G37*
G36*
X110955411Y-74939791D02*
G01*
X111181575Y-75004396D01*
X111438227Y-75077711D01*
X111909054Y-75211956D01*
X112342344Y-75335261D01*
X112712548Y-75440360D01*
X112994116Y-75519987D01*
X113112671Y-75553293D01*
X113634589Y-75699186D01*
X113634589Y-76003825D01*
X113634589Y-76308464D01*
X111581712Y-76895025D01*
X111073067Y-77040196D01*
X110602609Y-77174158D01*
X110187067Y-77292171D01*
X109843169Y-77389497D01*
X109587647Y-77461395D01*
X109437229Y-77503127D01*
X109407054Y-77511104D01*
X109342607Y-77515541D01*
X109305810Y-77476328D01*
X109289190Y-77373411D01*
X109285274Y-77186733D01*
X109285274Y-77184259D01*
X109285274Y-76827897D01*
X109755000Y-76698124D01*
X110224726Y-76568351D01*
X110224726Y-76333857D01*
X111094589Y-76333857D01*
X111656048Y-76179019D01*
X111915617Y-76108533D01*
X112123717Y-76054069D01*
X112247177Y-76024230D01*
X112264952Y-76021139D01*
X112234838Y-76003689D01*
X112107156Y-75961558D01*
X111915765Y-75904317D01*
X111694527Y-75841538D01*
X111477302Y-75782790D01*
X111297950Y-75737644D01*
X111190332Y-75715671D01*
X111181575Y-75714927D01*
X111127474Y-75754687D01*
X111099648Y-75884001D01*
X111094589Y-76022872D01*
X111094589Y-76333857D01*
X110224726Y-76333857D01*
X110224726Y-76004216D01*
X110224726Y-75440081D01*
X109781710Y-75320100D01*
X109551051Y-75253273D01*
X109375549Y-75194327D01*
X109294371Y-75156720D01*
X109276300Y-75085342D01*
X109274008Y-74943553D01*
X109285059Y-74792750D01*
X109320068Y-74472181D01*
X110955411Y-74939791D01*
G37*
G36*
X111278070Y-77718803D02*
G01*
X111299410Y-77725448D01*
X111621530Y-77825747D01*
X111871217Y-77948149D01*
X112162635Y-78190899D01*
X112343832Y-78475853D01*
X112416840Y-78783674D01*
X112383692Y-79095025D01*
X112246418Y-79390568D01*
X112007050Y-79650966D01*
X111670833Y-79855454D01*
X111431988Y-79941091D01*
X111152001Y-80011136D01*
X110871720Y-80058811D01*
X110631995Y-80077337D01*
X110473673Y-80059936D01*
X110463530Y-80055793D01*
X110441214Y-79996036D01*
X110421916Y-79850648D01*
X110407100Y-79638090D01*
X110398230Y-79376823D01*
X110396383Y-79209121D01*
X110395396Y-78860861D01*
X111233767Y-78860861D01*
X111241199Y-79069055D01*
X111261343Y-79221925D01*
X111290967Y-79298387D01*
X111301569Y-79303279D01*
X111388526Y-79257492D01*
X111477267Y-79142674D01*
X111548067Y-78992646D01*
X111581200Y-78841223D01*
X111581712Y-78822978D01*
X111549756Y-78673200D01*
X111470208Y-78533522D01*
X111367550Y-78439024D01*
X111299410Y-78418443D01*
X111269747Y-78466495D01*
X111247060Y-78594723D01*
X111234894Y-78779236D01*
X111233767Y-78860861D01*
X110395396Y-78860861D01*
X110394068Y-78392418D01*
X110256322Y-78516111D01*
X110104168Y-78703606D01*
X110080761Y-78892135D01*
X110171776Y-79091829D01*
X110307704Y-79297317D01*
X110017913Y-79510041D01*
X109852981Y-79626955D01*
X109752536Y-79678881D01*
X109684198Y-79675578D01*
X109619472Y-79630133D01*
X109411424Y-79386664D01*
X109281171Y-79096182D01*
X109241819Y-78798115D01*
X109277246Y-78600615D01*
X109461264Y-78267751D01*
X109752459Y-77993240D01*
X110133188Y-77789387D01*
X110585808Y-77668496D01*
X110621399Y-77663223D01*
X110926884Y-77660568D01*
X111278070Y-77718803D01*
G37*
G36*
X111030327Y-80358104D02*
G01*
X111211735Y-80367748D01*
X111618861Y-80477988D01*
X111879485Y-80608473D01*
X112181244Y-80856835D01*
X112371302Y-81147948D01*
X112448844Y-81462263D01*
X112413054Y-81780229D01*
X112263117Y-82082297D01*
X111998217Y-82348917D01*
X111953428Y-82381251D01*
X111764505Y-82503396D01*
X111585596Y-82591380D01*
X111388555Y-82650699D01*
X111145238Y-82686845D01*
X110827500Y-82705315D01*
X110407196Y-82711602D01*
X110259520Y-82711932D01*
X109853616Y-82710681D01*
X109559088Y-82704788D01*
X109348166Y-82691837D01*
X109193082Y-82669413D01*
X109066065Y-82635100D01*
X108972123Y-82599951D01*
X108593056Y-82396726D01*
X108304774Y-82139343D01*
X108118718Y-81845990D01*
X108046332Y-81534856D01*
X108099059Y-81224131D01*
X108101962Y-81216818D01*
X108171406Y-81086739D01*
X108273088Y-80940960D01*
X108382292Y-80810160D01*
X108474306Y-80725017D01*
X108511347Y-80708607D01*
X108583609Y-80742964D01*
X108717275Y-80831497D01*
X108830931Y-80915262D01*
X108983754Y-81039082D01*
X109051157Y-81122718D01*
X109049950Y-81196625D01*
X109019027Y-81256030D01*
X108942393Y-81486424D01*
X108986961Y-81705639D01*
X109055076Y-81803071D01*
X109194369Y-81933256D01*
X109306686Y-82000472D01*
X109373210Y-82000094D01*
X109375125Y-81927499D01*
X109353140Y-81876325D01*
X109294145Y-81656974D01*
X109297188Y-81522278D01*
X110131119Y-81522278D01*
X110165544Y-81622911D01*
X110217375Y-81718435D01*
X110392972Y-81919303D01*
X110635349Y-82033784D01*
X110923909Y-82056518D01*
X111235160Y-81983273D01*
X111450654Y-81861101D01*
X111559600Y-81691717D01*
X111581712Y-81522785D01*
X111521357Y-81327833D01*
X111364388Y-81150976D01*
X111146953Y-81026762D01*
X111030327Y-80995753D01*
X110756869Y-80997491D01*
X110492281Y-81076189D01*
X110286766Y-81213361D01*
X110225185Y-81292212D01*
X110150685Y-81429193D01*
X110131119Y-81522278D01*
X109297188Y-81522278D01*
X109300020Y-81396961D01*
X109366897Y-81146140D01*
X109417482Y-81046927D01*
X109663845Y-80761341D01*
X109990543Y-80546340D01*
X110373485Y-80406214D01*
X110788579Y-80345253D01*
X111030327Y-80358104D01*
G37*
G36*
X110583634Y-70337553D02*
G01*
X110617630Y-70362577D01*
X110748440Y-70365920D01*
X110768922Y-70364566D01*
X110950623Y-70373407D01*
X111084344Y-70450083D01*
X111127706Y-70492554D01*
X111265206Y-70637091D01*
X111077962Y-70546005D01*
X110872078Y-70479081D01*
X110679503Y-70454918D01*
X110531819Y-70442480D01*
X110468334Y-70412464D01*
X110468287Y-70411544D01*
X110411758Y-70373028D01*
X110363904Y-70368170D01*
X110271223Y-70392347D01*
X110259520Y-70412832D01*
X110202129Y-70462232D01*
X110085548Y-70506968D01*
X109954734Y-70557019D01*
X109906251Y-70596765D01*
X109889506Y-70678987D01*
X109878320Y-70724578D01*
X109906206Y-70813396D01*
X109952060Y-70839718D01*
X110016589Y-70903057D01*
X110010041Y-70942151D01*
X110016832Y-71027434D01*
X110047144Y-71051816D01*
X110092101Y-71114084D01*
X110082576Y-71135154D01*
X110087094Y-71180647D01*
X110106666Y-71183607D01*
X110148169Y-71227576D01*
X110151695Y-71313730D01*
X110155112Y-71411137D01*
X110184889Y-71443853D01*
X110250149Y-71487442D01*
X110332562Y-71593939D01*
X110363904Y-71649517D01*
X110407566Y-71726941D01*
X110446740Y-71831962D01*
X110502463Y-71933610D01*
X110547063Y-71968591D01*
X110579510Y-72017016D01*
X110556530Y-72033796D01*
X110487066Y-72011364D01*
X110386429Y-71919718D01*
X110335880Y-71858130D01*
X110252336Y-71736376D01*
X110249340Y-71730123D01*
X110329109Y-71730123D01*
X110363904Y-71756148D01*
X110398698Y-71730123D01*
X110363904Y-71704099D01*
X110329109Y-71730123D01*
X110249340Y-71730123D01*
X110216898Y-71662402D01*
X110221877Y-71652050D01*
X110218872Y-71615231D01*
X110156497Y-71530784D01*
X110093985Y-71431697D01*
X110096902Y-71374637D01*
X110088545Y-71343187D01*
X110054906Y-71339755D01*
X109997848Y-71302632D01*
X110006329Y-71261681D01*
X109999640Y-71194559D01*
X109961583Y-71182810D01*
X109928789Y-71164324D01*
X109979214Y-71133561D01*
X110041662Y-71089519D01*
X109976235Y-71054963D01*
X109960040Y-71050206D01*
X109880542Y-71003175D01*
X109911575Y-70949386D01*
X109939154Y-70884501D01*
X109874146Y-70851733D01*
X109799408Y-70801795D01*
X109803916Y-70771178D01*
X109795484Y-70703993D01*
X109773532Y-70689665D01*
X109725055Y-70637091D01*
X109772397Y-70637091D01*
X109807191Y-70663115D01*
X109841986Y-70637091D01*
X109807191Y-70611066D01*
X109772397Y-70637091D01*
X109725055Y-70637091D01*
X109706329Y-70616783D01*
X109770162Y-70532992D01*
X109841986Y-70532992D01*
X109876780Y-70559017D01*
X109911575Y-70532992D01*
X109876780Y-70506968D01*
X109841986Y-70532992D01*
X109770162Y-70532992D01*
X109773628Y-70528442D01*
X109792075Y-70516351D01*
X109807191Y-70509265D01*
X109876780Y-70476645D01*
X109925224Y-70453936D01*
X110104458Y-70394167D01*
X110294748Y-70344957D01*
X110461066Y-70314218D01*
X110568386Y-70309861D01*
X110583634Y-70337553D01*
G37*
G36*
X109614682Y-70590450D02*
G01*
X109633884Y-70611066D01*
X109654423Y-70696848D01*
X109577242Y-70767214D01*
X109453904Y-70872467D01*
X109403084Y-70941774D01*
X109320405Y-71009782D01*
X109254661Y-71009837D01*
X109180896Y-71017090D01*
X109179689Y-71074845D01*
X109150968Y-71171418D01*
X109049427Y-71291305D01*
X109020451Y-71316127D01*
X108898504Y-71425236D01*
X108829006Y-71507862D01*
X108824377Y-71518977D01*
X108788666Y-71612671D01*
X108764279Y-71661856D01*
X108776742Y-71768394D01*
X108855828Y-71838670D01*
X108948099Y-71934172D01*
X108954186Y-72006562D01*
X108949940Y-72058753D01*
X108995092Y-72047885D01*
X109067510Y-72042395D01*
X109076506Y-72061653D01*
X109121083Y-72136342D01*
X109185861Y-72194848D01*
X109243905Y-72258722D01*
X109215685Y-72276640D01*
X109188677Y-72303964D01*
X109240538Y-72354714D01*
X109351996Y-72418425D01*
X109406932Y-72432787D01*
X109417006Y-72436888D01*
X109489771Y-72466509D01*
X109597690Y-72544945D01*
X109691341Y-72634005D01*
X109731372Y-72699594D01*
X109726718Y-72709849D01*
X109754408Y-72742910D01*
X109836742Y-72769862D01*
X109947109Y-72817513D01*
X109982039Y-72871811D01*
X109923404Y-72900928D01*
X109911575Y-72901230D01*
X109844660Y-72861217D01*
X109841986Y-72846109D01*
X109798744Y-72816049D01*
X109767713Y-72825321D01*
X109695362Y-72811113D01*
X109655418Y-72750905D01*
X109603778Y-72675731D01*
X109560114Y-72668634D01*
X109486536Y-72648361D01*
X109371448Y-72566259D01*
X109301927Y-72502983D01*
X109358662Y-72502983D01*
X109418150Y-72562199D01*
X109460839Y-72589924D01*
X109536284Y-72627900D01*
X109531180Y-72586776D01*
X109522983Y-72570272D01*
X109455021Y-72496951D01*
X109417006Y-72484837D01*
X109358662Y-72502983D01*
X109301927Y-72502983D01*
X109243942Y-72450207D01*
X109133114Y-72328087D01*
X109088865Y-72259858D01*
X109111301Y-72276640D01*
X109146096Y-72250615D01*
X109111301Y-72224591D01*
X109080792Y-72247410D01*
X109068058Y-72227777D01*
X109062413Y-72191697D01*
X109034193Y-72134948D01*
X108994476Y-72132681D01*
X108917151Y-72100087D01*
X108881813Y-72028634D01*
X108840371Y-71949183D01*
X108793175Y-71940620D01*
X108737742Y-71926662D01*
X108728561Y-71889343D01*
X108690126Y-71818153D01*
X108654865Y-71808197D01*
X108613304Y-71776310D01*
X108624178Y-71756148D01*
X108618660Y-71708186D01*
X108593490Y-71704099D01*
X108523766Y-71676605D01*
X108551684Y-71626025D01*
X108589383Y-71626025D01*
X108624178Y-71652050D01*
X108658972Y-71626025D01*
X108624178Y-71600000D01*
X108589383Y-71626025D01*
X108551684Y-71626025D01*
X108566549Y-71599093D01*
X108624178Y-71552241D01*
X108691622Y-71497409D01*
X108798004Y-71404943D01*
X108830730Y-71338635D01*
X108828100Y-71333891D01*
X108838426Y-71309118D01*
X108873374Y-71309118D01*
X108888699Y-71339248D01*
X108898427Y-71339755D01*
X108957286Y-71302785D01*
X108978768Y-71279663D01*
X108986970Y-71244046D01*
X108948080Y-71256711D01*
X108873374Y-71309118D01*
X108838426Y-71309118D01*
X108851505Y-71277738D01*
X108934628Y-71224838D01*
X108986970Y-71187384D01*
X109045481Y-71145515D01*
X109076506Y-71085636D01*
X109119152Y-71011204D01*
X109222435Y-70913691D01*
X109349375Y-70820602D01*
X109462991Y-70759438D01*
X109522595Y-70753871D01*
X109553621Y-70734378D01*
X109564695Y-70658778D01*
X109575467Y-70577578D01*
X109614682Y-70590450D01*
G37*
G36*
X111570819Y-70401761D02*
G01*
X111650462Y-70405764D01*
X111916280Y-70424161D01*
X112125843Y-70445731D01*
X112242484Y-70466492D01*
X112252964Y-70471189D01*
X112337585Y-70473561D01*
X112390113Y-70449874D01*
X112464893Y-70431251D01*
X112515916Y-70500967D01*
X112525720Y-70528039D01*
X112581639Y-70615860D01*
X112643723Y-70628689D01*
X112683301Y-70628175D01*
X112666987Y-70655073D01*
X112667412Y-70708430D01*
X112699550Y-70715164D01*
X112746371Y-70733910D01*
X112701881Y-70787160D01*
X112663848Y-70853997D01*
X112729931Y-70888680D01*
X112736050Y-70891891D01*
X112818917Y-70962290D01*
X112814552Y-71026313D01*
X112804304Y-71106252D01*
X112824054Y-71123615D01*
X112935240Y-71131193D01*
X112924740Y-71189157D01*
X112895027Y-71219623D01*
X112849478Y-71274381D01*
X112876331Y-71273304D01*
X112938698Y-71278080D01*
X112965247Y-71280113D01*
X113008287Y-71325173D01*
X113044434Y-71363017D01*
X113104455Y-71494012D01*
X113135875Y-71645094D01*
X113129259Y-71788260D01*
X113083125Y-71887034D01*
X113002218Y-72014215D01*
X112942162Y-72160747D01*
X112888066Y-72270766D01*
X112822881Y-72297062D01*
X112817900Y-72295077D01*
X112776576Y-72293024D01*
X112794759Y-72322927D01*
X112799432Y-72410135D01*
X112762196Y-72461092D01*
X112712966Y-72522915D01*
X112723859Y-72536886D01*
X112729287Y-72575064D01*
X112682801Y-72653996D01*
X112621672Y-72754961D01*
X112609143Y-72806507D01*
X112562336Y-72852252D01*
X112410043Y-72893656D01*
X112185949Y-72925458D01*
X111923741Y-72942398D01*
X111737407Y-72942648D01*
X111525045Y-72932459D01*
X111391827Y-72917704D01*
X111366105Y-72902907D01*
X111404700Y-72834802D01*
X111404149Y-72817013D01*
X111442534Y-72817013D01*
X111491523Y-72864512D01*
X111512123Y-72875205D01*
X111577181Y-72888469D01*
X111581712Y-72881349D01*
X111532723Y-72833850D01*
X111512123Y-72823156D01*
X111447065Y-72809893D01*
X111442534Y-72817013D01*
X111404149Y-72817013D01*
X111402960Y-72778614D01*
X111398975Y-72718683D01*
X111443437Y-72727834D01*
X111447065Y-72730254D01*
X111539082Y-72791626D01*
X111719378Y-72881388D01*
X111877546Y-72894451D01*
X111969043Y-72843624D01*
X112030098Y-72816838D01*
X112068846Y-72849194D01*
X112168017Y-72888430D01*
X112303115Y-72864091D01*
X112419210Y-72791455D01*
X112452705Y-72742420D01*
X112514280Y-72659741D01*
X112558464Y-72640984D01*
X112595111Y-72603486D01*
X112586044Y-72572500D01*
X112586633Y-72562910D01*
X112625548Y-72562910D01*
X112660342Y-72588935D01*
X112695137Y-72562910D01*
X112660342Y-72536886D01*
X112625548Y-72562910D01*
X112586633Y-72562910D01*
X112591592Y-72482152D01*
X112653211Y-72357375D01*
X112657388Y-72351291D01*
X112660342Y-72346325D01*
X112731734Y-72226309D01*
X112764245Y-72135358D01*
X112764297Y-72133505D01*
X112808685Y-72073030D01*
X112834315Y-72068443D01*
X112895520Y-72039115D01*
X112895663Y-72029406D01*
X112900987Y-71964345D01*
X112933544Y-71878943D01*
X112970054Y-71758634D01*
X112989169Y-71676500D01*
X112967996Y-71606315D01*
X112906696Y-71469877D01*
X112973493Y-71469877D01*
X113008287Y-71495902D01*
X113043082Y-71469877D01*
X113008287Y-71443853D01*
X112973493Y-71469877D01*
X112906696Y-71469877D01*
X112905055Y-71466225D01*
X112854428Y-71365779D01*
X112903904Y-71365779D01*
X112938698Y-71391804D01*
X112973493Y-71365779D01*
X112938698Y-71339755D01*
X112903904Y-71365779D01*
X112854428Y-71365779D01*
X112812371Y-71282335D01*
X112776792Y-71215533D01*
X112680631Y-71024324D01*
X112649258Y-70949386D01*
X112695137Y-70949386D01*
X112729931Y-70975410D01*
X112764726Y-70949386D01*
X112729931Y-70923361D01*
X112695137Y-70949386D01*
X112649258Y-70949386D01*
X112615648Y-70869107D01*
X112591997Y-70775275D01*
X112595328Y-70761677D01*
X112585213Y-70717738D01*
X112564755Y-70715164D01*
X112488335Y-70672592D01*
X112457049Y-70624078D01*
X112412286Y-70575960D01*
X112308797Y-70545426D01*
X112118016Y-70527237D01*
X111878250Y-70517911D01*
X111507336Y-70502602D01*
X111262087Y-70479942D01*
X111129186Y-70448123D01*
X111094589Y-70411559D01*
X111158421Y-70398208D01*
X111328081Y-70394828D01*
X111570819Y-70401761D01*
G37*
%TO.C,SW2*%
X114360000Y-93290000D02*
X114360000Y-94540000D01*
X114650000Y-93580000D02*
X114650000Y-99550000D01*
X114650000Y-99550000D02*
X124770000Y-99550000D01*
X114660000Y-93590000D02*
X114660000Y-94340000D01*
X114660000Y-94340000D02*
X116460000Y-94340000D01*
X114660000Y-95840000D02*
X115410000Y-95840000D01*
X115410000Y-95840000D02*
X115410000Y-98790000D01*
X115410000Y-98790000D02*
X119710000Y-98790000D01*
X115610000Y-93290000D02*
X114360000Y-93290000D01*
X116460000Y-93590000D02*
X114660000Y-93590000D01*
X116460000Y-94340000D02*
X116460000Y-93590000D01*
X117960000Y-93590000D02*
X117960000Y-94340000D01*
X117960000Y-94340000D02*
X121460000Y-94340000D01*
X121460000Y-93590000D02*
X117960000Y-93590000D01*
X121460000Y-94340000D02*
X121460000Y-93590000D01*
X122960000Y-93590000D02*
X122960000Y-94340000D01*
X122960000Y-94340000D02*
X124760000Y-94340000D01*
X124010000Y-95840000D02*
X124010000Y-98790000D01*
X124010000Y-98790000D02*
X119710000Y-98790000D01*
X124760000Y-93590000D02*
X122960000Y-93590000D01*
X124760000Y-94340000D02*
X124760000Y-93590000D01*
X124760000Y-95840000D02*
X124010000Y-95840000D01*
X124770000Y-93580000D02*
X114650000Y-93580000D01*
X124770000Y-99550000D02*
X124770000Y-93580000D01*
%TO.C,D1*%
X130470000Y-98140000D02*
X130470000Y-90300000D01*
X130950000Y-98140000D02*
X130470000Y-98140000D01*
X133830000Y-98140000D02*
X134310000Y-98140000D01*
X134310000Y-98140000D02*
X134310000Y-90300000D01*
X130470000Y-97000000D02*
X134310000Y-97000000D01*
X130470000Y-96880000D02*
X134310000Y-96880000D01*
X130470000Y-96760000D02*
X134310000Y-96760000D01*
X130470000Y-90300000D02*
X130950000Y-90300000D01*
X134310000Y-90300000D02*
X133830000Y-90300000D01*
%TO.C,G\u002A\u002A\u002A*%
D12*
X113186445Y-47707478D02*
X113188833Y-47722084D01*
X113177404Y-47750251D01*
X113167667Y-47753834D01*
X113148888Y-47736689D01*
X113146500Y-47722084D01*
X113157930Y-47693916D01*
X113167667Y-47690334D01*
X113186445Y-47707478D01*
G36*
X113186445Y-47707478D02*
G01*
X113188833Y-47722084D01*
X113177404Y-47750251D01*
X113167667Y-47753834D01*
X113148888Y-47736689D01*
X113146500Y-47722084D01*
X113157930Y-47693916D01*
X113167667Y-47690334D01*
X113186445Y-47707478D01*
G37*
X112317312Y-48278777D02*
X112321000Y-48293584D01*
X112304057Y-48321646D01*
X112289250Y-48325334D01*
X112261188Y-48308390D01*
X112257500Y-48293584D01*
X112274443Y-48265521D01*
X112289250Y-48261834D01*
X112317312Y-48278777D01*
G36*
X112317312Y-48278777D02*
G01*
X112321000Y-48293584D01*
X112304057Y-48321646D01*
X112289250Y-48325334D01*
X112261188Y-48308390D01*
X112257500Y-48293584D01*
X112274443Y-48265521D01*
X112289250Y-48261834D01*
X112317312Y-48278777D01*
G37*
X112634812Y-48405777D02*
X112638500Y-48420584D01*
X112621557Y-48448646D01*
X112606750Y-48452334D01*
X112578688Y-48435390D01*
X112575000Y-48420584D01*
X112591943Y-48392521D01*
X112606750Y-48388834D01*
X112634812Y-48405777D01*
G36*
X112634812Y-48405777D02*
G01*
X112638500Y-48420584D01*
X112621557Y-48448646D01*
X112606750Y-48452334D01*
X112578688Y-48435390D01*
X112575000Y-48420584D01*
X112591943Y-48392521D01*
X112606750Y-48388834D01*
X112634812Y-48405777D01*
G37*
X112380812Y-48405777D02*
X112384500Y-48420584D01*
X112367557Y-48448646D01*
X112352750Y-48452334D01*
X112324688Y-48435390D01*
X112321000Y-48420584D01*
X112337943Y-48392521D01*
X112352750Y-48388834D01*
X112380812Y-48405777D01*
G36*
X112380812Y-48405777D02*
G01*
X112384500Y-48420584D01*
X112367557Y-48448646D01*
X112352750Y-48452334D01*
X112324688Y-48435390D01*
X112321000Y-48420584D01*
X112337943Y-48392521D01*
X112352750Y-48388834D01*
X112380812Y-48405777D01*
G37*
X113247734Y-47850130D02*
X113259401Y-47918481D01*
X113263818Y-47956035D01*
X113270743Y-48057485D01*
X113270435Y-48154011D01*
X113263661Y-48236303D01*
X113251184Y-48295048D01*
X113233851Y-48320911D01*
X113216741Y-48345448D01*
X113210000Y-48390597D01*
X113200308Y-48439710D01*
X113178250Y-48452334D01*
X113150188Y-48469277D01*
X113146500Y-48484084D01*
X113129557Y-48512146D01*
X113114750Y-48515834D01*
X113086688Y-48532777D01*
X113083000Y-48547584D01*
X113074684Y-48564331D01*
X113044633Y-48574161D01*
X112985191Y-48578606D01*
X112924250Y-48579334D01*
X112840514Y-48577670D01*
X112791361Y-48571660D01*
X112769137Y-48559772D01*
X112765500Y-48547584D01*
X112748557Y-48519521D01*
X112733750Y-48515834D01*
X112705688Y-48498890D01*
X112702000Y-48484084D01*
X112720932Y-48458877D01*
X112765500Y-48452334D01*
X112815913Y-48461800D01*
X112829000Y-48484084D01*
X112841466Y-48505010D01*
X112883851Y-48514543D01*
X112924250Y-48515834D01*
X112987031Y-48511678D01*
X113015627Y-48497550D01*
X113019500Y-48484084D01*
X113038432Y-48458877D01*
X113083000Y-48452334D01*
X113127977Y-48447089D01*
X113144555Y-48422349D01*
X113146500Y-48388834D01*
X113155966Y-48338420D01*
X113178250Y-48325334D01*
X113191939Y-48318965D01*
X113201148Y-48295542D01*
X113206687Y-48248589D01*
X113209366Y-48171629D01*
X113210000Y-48071334D01*
X113212058Y-47957906D01*
X113217683Y-47877309D01*
X113226052Y-47831306D01*
X113236343Y-47821659D01*
X113247734Y-47850130D01*
G36*
X113247734Y-47850130D02*
G01*
X113259401Y-47918481D01*
X113263818Y-47956035D01*
X113270743Y-48057485D01*
X113270435Y-48154011D01*
X113263661Y-48236303D01*
X113251184Y-48295048D01*
X113233851Y-48320911D01*
X113216741Y-48345448D01*
X113210000Y-48390597D01*
X113200308Y-48439710D01*
X113178250Y-48452334D01*
X113150188Y-48469277D01*
X113146500Y-48484084D01*
X113129557Y-48512146D01*
X113114750Y-48515834D01*
X113086688Y-48532777D01*
X113083000Y-48547584D01*
X113074684Y-48564331D01*
X113044633Y-48574161D01*
X112985191Y-48578606D01*
X112924250Y-48579334D01*
X112840514Y-48577670D01*
X112791361Y-48571660D01*
X112769137Y-48559772D01*
X112765500Y-48547584D01*
X112748557Y-48519521D01*
X112733750Y-48515834D01*
X112705688Y-48498890D01*
X112702000Y-48484084D01*
X112720932Y-48458877D01*
X112765500Y-48452334D01*
X112815913Y-48461800D01*
X112829000Y-48484084D01*
X112841466Y-48505010D01*
X112883851Y-48514543D01*
X112924250Y-48515834D01*
X112987031Y-48511678D01*
X113015627Y-48497550D01*
X113019500Y-48484084D01*
X113038432Y-48458877D01*
X113083000Y-48452334D01*
X113127977Y-48447089D01*
X113144555Y-48422349D01*
X113146500Y-48388834D01*
X113155966Y-48338420D01*
X113178250Y-48325334D01*
X113191939Y-48318965D01*
X113201148Y-48295542D01*
X113206687Y-48248589D01*
X113209366Y-48171629D01*
X113210000Y-48071334D01*
X113212058Y-47957906D01*
X113217683Y-47877309D01*
X113226052Y-47831306D01*
X113236343Y-47821659D01*
X113247734Y-47850130D01*
G37*
X112542531Y-48710489D02*
X112571127Y-48724617D01*
X112575000Y-48738084D01*
X112583316Y-48754831D01*
X112613367Y-48764661D01*
X112672810Y-48769106D01*
X112733750Y-48769834D01*
X112817486Y-48771497D01*
X112866639Y-48777507D01*
X112888863Y-48789395D01*
X112892500Y-48801584D01*
X112900816Y-48818331D01*
X112930867Y-48828161D01*
X112990310Y-48832606D01*
X113051250Y-48833334D01*
X113134986Y-48834997D01*
X113184139Y-48841007D01*
X113206363Y-48852895D01*
X113210000Y-48865084D01*
X113222466Y-48886010D01*
X113264851Y-48895543D01*
X113305250Y-48896834D01*
X113400500Y-48896834D01*
X113400500Y-49023834D01*
X113398062Y-49097577D01*
X113389418Y-49137169D01*
X113372576Y-49150583D01*
X113368750Y-49150834D01*
X113340688Y-49133890D01*
X113337000Y-49119084D01*
X113328684Y-49102336D01*
X113298633Y-49092506D01*
X113239191Y-49088061D01*
X113178250Y-49087334D01*
X113094514Y-49085670D01*
X113045361Y-49079660D01*
X113023137Y-49067772D01*
X113019500Y-49055584D01*
X113011184Y-49038836D01*
X112981133Y-49029006D01*
X112921691Y-49024561D01*
X112860750Y-49023834D01*
X112777014Y-49022170D01*
X112727861Y-49016160D01*
X112705637Y-49004272D01*
X112702000Y-48992084D01*
X112689535Y-48971157D01*
X112647149Y-48961624D01*
X112606750Y-48960334D01*
X112511500Y-48960334D01*
X112511500Y-49214334D01*
X112510704Y-49323844D01*
X112507776Y-49397517D01*
X112501907Y-49441831D01*
X112492287Y-49463260D01*
X112479750Y-49468334D01*
X112451688Y-49451390D01*
X112448000Y-49436584D01*
X112429068Y-49411377D01*
X112384500Y-49404834D01*
X112321000Y-49404834D01*
X112321000Y-49087334D01*
X112321576Y-48963070D01*
X112323696Y-48875245D01*
X112327949Y-48817974D01*
X112334922Y-48785373D01*
X112345205Y-48771558D01*
X112352750Y-48769834D01*
X112380812Y-48752890D01*
X112384500Y-48738084D01*
X112396966Y-48717157D01*
X112439351Y-48707624D01*
X112479750Y-48706334D01*
X112542531Y-48710489D01*
G36*
X112542531Y-48710489D02*
G01*
X112571127Y-48724617D01*
X112575000Y-48738084D01*
X112583316Y-48754831D01*
X112613367Y-48764661D01*
X112672810Y-48769106D01*
X112733750Y-48769834D01*
X112817486Y-48771497D01*
X112866639Y-48777507D01*
X112888863Y-48789395D01*
X112892500Y-48801584D01*
X112900816Y-48818331D01*
X112930867Y-48828161D01*
X112990310Y-48832606D01*
X113051250Y-48833334D01*
X113134986Y-48834997D01*
X113184139Y-48841007D01*
X113206363Y-48852895D01*
X113210000Y-48865084D01*
X113222466Y-48886010D01*
X113264851Y-48895543D01*
X113305250Y-48896834D01*
X113400500Y-48896834D01*
X113400500Y-49023834D01*
X113398062Y-49097577D01*
X113389418Y-49137169D01*
X113372576Y-49150583D01*
X113368750Y-49150834D01*
X113340688Y-49133890D01*
X113337000Y-49119084D01*
X113328684Y-49102336D01*
X113298633Y-49092506D01*
X113239191Y-49088061D01*
X113178250Y-49087334D01*
X113094514Y-49085670D01*
X113045361Y-49079660D01*
X113023137Y-49067772D01*
X113019500Y-49055584D01*
X113011184Y-49038836D01*
X112981133Y-49029006D01*
X112921691Y-49024561D01*
X112860750Y-49023834D01*
X112777014Y-49022170D01*
X112727861Y-49016160D01*
X112705637Y-49004272D01*
X112702000Y-48992084D01*
X112689535Y-48971157D01*
X112647149Y-48961624D01*
X112606750Y-48960334D01*
X112511500Y-48960334D01*
X112511500Y-49214334D01*
X112510704Y-49323844D01*
X112507776Y-49397517D01*
X112501907Y-49441831D01*
X112492287Y-49463260D01*
X112479750Y-49468334D01*
X112451688Y-49451390D01*
X112448000Y-49436584D01*
X112429068Y-49411377D01*
X112384500Y-49404834D01*
X112321000Y-49404834D01*
X112321000Y-49087334D01*
X112321576Y-48963070D01*
X112323696Y-48875245D01*
X112327949Y-48817974D01*
X112334922Y-48785373D01*
X112345205Y-48771558D01*
X112352750Y-48769834D01*
X112380812Y-48752890D01*
X112384500Y-48738084D01*
X112396966Y-48717157D01*
X112439351Y-48707624D01*
X112479750Y-48706334D01*
X112542531Y-48710489D01*
G37*
X112534743Y-46432610D02*
X112560227Y-46463427D01*
X112561659Y-46467959D01*
X112574285Y-46541969D01*
X112568026Y-46592045D01*
X112543832Y-46610827D01*
X112543250Y-46610834D01*
X112524814Y-46620587D01*
X112514916Y-46655162D01*
X112511563Y-46722531D01*
X112511500Y-46737834D01*
X112513939Y-46811577D01*
X112522582Y-46851169D01*
X112539425Y-46864583D01*
X112543250Y-46864834D01*
X112571312Y-46881777D01*
X112575000Y-46896584D01*
X112584754Y-46915019D01*
X112619329Y-46924917D01*
X112686698Y-46928271D01*
X112702000Y-46928334D01*
X112775743Y-46930772D01*
X112815336Y-46939416D01*
X112828750Y-46956258D01*
X112829000Y-46960084D01*
X112837316Y-46976831D01*
X112867367Y-46986661D01*
X112926810Y-46991106D01*
X112987750Y-46991834D01*
X113071486Y-46993497D01*
X113120639Y-46999507D01*
X113142863Y-47011395D01*
X113146500Y-47023584D01*
X113156254Y-47042019D01*
X113190829Y-47051917D01*
X113258198Y-47055271D01*
X113273500Y-47055334D01*
X113400500Y-47055334D01*
X113400500Y-47309334D01*
X113337000Y-47309334D01*
X113286587Y-47299867D01*
X113273500Y-47277584D01*
X113265184Y-47260836D01*
X113235133Y-47251006D01*
X113175691Y-47246561D01*
X113114750Y-47245834D01*
X113031014Y-47244170D01*
X112981861Y-47238160D01*
X112959637Y-47226272D01*
X112956000Y-47214084D01*
X112947684Y-47197336D01*
X112917633Y-47187506D01*
X112858191Y-47183061D01*
X112797250Y-47182334D01*
X112713514Y-47180670D01*
X112664361Y-47174660D01*
X112642137Y-47162772D01*
X112638500Y-47150584D01*
X112619568Y-47125377D01*
X112575000Y-47118834D01*
X112524587Y-47109367D01*
X112511500Y-47087084D01*
X112494557Y-47059021D01*
X112479750Y-47055334D01*
X112451688Y-47038390D01*
X112448000Y-47023584D01*
X112431057Y-46995521D01*
X112416250Y-46991834D01*
X112391044Y-46972901D01*
X112384500Y-46928334D01*
X112375034Y-46877920D01*
X112352750Y-46864834D01*
X112334314Y-46855080D01*
X112324416Y-46820505D01*
X112321063Y-46753136D01*
X112321000Y-46737834D01*
X112323439Y-46664090D01*
X112332082Y-46624498D01*
X112348925Y-46611084D01*
X112352750Y-46610834D01*
X112377957Y-46591901D01*
X112384500Y-46547334D01*
X112393966Y-46496920D01*
X112416250Y-46483834D01*
X112444312Y-46466890D01*
X112448000Y-46452084D01*
X112462886Y-46424740D01*
X112497049Y-46418982D01*
X112534743Y-46432610D01*
G36*
X112534743Y-46432610D02*
G01*
X112560227Y-46463427D01*
X112561659Y-46467959D01*
X112574285Y-46541969D01*
X112568026Y-46592045D01*
X112543832Y-46610827D01*
X112543250Y-46610834D01*
X112524814Y-46620587D01*
X112514916Y-46655162D01*
X112511563Y-46722531D01*
X112511500Y-46737834D01*
X112513939Y-46811577D01*
X112522582Y-46851169D01*
X112539425Y-46864583D01*
X112543250Y-46864834D01*
X112571312Y-46881777D01*
X112575000Y-46896584D01*
X112584754Y-46915019D01*
X112619329Y-46924917D01*
X112686698Y-46928271D01*
X112702000Y-46928334D01*
X112775743Y-46930772D01*
X112815336Y-46939416D01*
X112828750Y-46956258D01*
X112829000Y-46960084D01*
X112837316Y-46976831D01*
X112867367Y-46986661D01*
X112926810Y-46991106D01*
X112987750Y-46991834D01*
X113071486Y-46993497D01*
X113120639Y-46999507D01*
X113142863Y-47011395D01*
X113146500Y-47023584D01*
X113156254Y-47042019D01*
X113190829Y-47051917D01*
X113258198Y-47055271D01*
X113273500Y-47055334D01*
X113400500Y-47055334D01*
X113400500Y-47309334D01*
X113337000Y-47309334D01*
X113286587Y-47299867D01*
X113273500Y-47277584D01*
X113265184Y-47260836D01*
X113235133Y-47251006D01*
X113175691Y-47246561D01*
X113114750Y-47245834D01*
X113031014Y-47244170D01*
X112981861Y-47238160D01*
X112959637Y-47226272D01*
X112956000Y-47214084D01*
X112947684Y-47197336D01*
X112917633Y-47187506D01*
X112858191Y-47183061D01*
X112797250Y-47182334D01*
X112713514Y-47180670D01*
X112664361Y-47174660D01*
X112642137Y-47162772D01*
X112638500Y-47150584D01*
X112619568Y-47125377D01*
X112575000Y-47118834D01*
X112524587Y-47109367D01*
X112511500Y-47087084D01*
X112494557Y-47059021D01*
X112479750Y-47055334D01*
X112451688Y-47038390D01*
X112448000Y-47023584D01*
X112431057Y-46995521D01*
X112416250Y-46991834D01*
X112391044Y-46972901D01*
X112384500Y-46928334D01*
X112375034Y-46877920D01*
X112352750Y-46864834D01*
X112334314Y-46855080D01*
X112324416Y-46820505D01*
X112321063Y-46753136D01*
X112321000Y-46737834D01*
X112323439Y-46664090D01*
X112332082Y-46624498D01*
X112348925Y-46611084D01*
X112352750Y-46610834D01*
X112377957Y-46591901D01*
X112384500Y-46547334D01*
X112393966Y-46496920D01*
X112416250Y-46483834D01*
X112444312Y-46466890D01*
X112448000Y-46452084D01*
X112462886Y-46424740D01*
X112497049Y-46418982D01*
X112534743Y-46432610D01*
G37*
X112690486Y-47310997D02*
X112739639Y-47317007D01*
X112761863Y-47328895D01*
X112765500Y-47341084D01*
X112784432Y-47366290D01*
X112829000Y-47372834D01*
X112879413Y-47382300D01*
X112892500Y-47404584D01*
X112911432Y-47429790D01*
X112956000Y-47436334D01*
X113006413Y-47445800D01*
X113019500Y-47468084D01*
X113036443Y-47496146D01*
X113051250Y-47499834D01*
X113079312Y-47516777D01*
X113083000Y-47531584D01*
X113094430Y-47559751D01*
X113104167Y-47563334D01*
X113122945Y-47580478D01*
X113125333Y-47595084D01*
X113113904Y-47623251D01*
X113104167Y-47626834D01*
X113085388Y-47609689D01*
X113083000Y-47595084D01*
X113066057Y-47567021D01*
X113051250Y-47563334D01*
X113023188Y-47546390D01*
X113019500Y-47531584D01*
X113000568Y-47506377D01*
X112956000Y-47499834D01*
X112905587Y-47490367D01*
X112892500Y-47468084D01*
X112873568Y-47442877D01*
X112829000Y-47436334D01*
X112778587Y-47426867D01*
X112765500Y-47404584D01*
X112757184Y-47387836D01*
X112727133Y-47378006D01*
X112667691Y-47373561D01*
X112606750Y-47372834D01*
X112523014Y-47374497D01*
X112473861Y-47380507D01*
X112451637Y-47392395D01*
X112448000Y-47404584D01*
X112431057Y-47432646D01*
X112416250Y-47436334D01*
X112388188Y-47453277D01*
X112384500Y-47468084D01*
X112367557Y-47496146D01*
X112352750Y-47499834D01*
X112324688Y-47516777D01*
X112321000Y-47531584D01*
X112304921Y-47559665D01*
X112290935Y-47563334D01*
X112271238Y-47583328D01*
X112255344Y-47638845D01*
X112243994Y-47723184D01*
X112237927Y-47829646D01*
X112237884Y-47951530D01*
X112240530Y-48019598D01*
X112243798Y-48110577D01*
X112241500Y-48166167D01*
X112232944Y-48193030D01*
X112221956Y-48198334D01*
X112210741Y-48189432D01*
X112202795Y-48159270D01*
X112197661Y-48102660D01*
X112194883Y-48014416D01*
X112194003Y-47889351D01*
X112194000Y-47880834D01*
X112194576Y-47756570D01*
X112196696Y-47668745D01*
X112200949Y-47611474D01*
X112207922Y-47578873D01*
X112218205Y-47565058D01*
X112225750Y-47563334D01*
X112250957Y-47544401D01*
X112257500Y-47499834D01*
X112266966Y-47449420D01*
X112289250Y-47436334D01*
X112317312Y-47419390D01*
X112321000Y-47404584D01*
X112339932Y-47379377D01*
X112384500Y-47372834D01*
X112434913Y-47363367D01*
X112448000Y-47341084D01*
X112456316Y-47324336D01*
X112486367Y-47314506D01*
X112545810Y-47310061D01*
X112606750Y-47309334D01*
X112690486Y-47310997D01*
G36*
X112690486Y-47310997D02*
G01*
X112739639Y-47317007D01*
X112761863Y-47328895D01*
X112765500Y-47341084D01*
X112784432Y-47366290D01*
X112829000Y-47372834D01*
X112879413Y-47382300D01*
X112892500Y-47404584D01*
X112911432Y-47429790D01*
X112956000Y-47436334D01*
X113006413Y-47445800D01*
X113019500Y-47468084D01*
X113036443Y-47496146D01*
X113051250Y-47499834D01*
X113079312Y-47516777D01*
X113083000Y-47531584D01*
X113094430Y-47559751D01*
X113104167Y-47563334D01*
X113122945Y-47580478D01*
X113125333Y-47595084D01*
X113113904Y-47623251D01*
X113104167Y-47626834D01*
X113085388Y-47609689D01*
X113083000Y-47595084D01*
X113066057Y-47567021D01*
X113051250Y-47563334D01*
X113023188Y-47546390D01*
X113019500Y-47531584D01*
X113000568Y-47506377D01*
X112956000Y-47499834D01*
X112905587Y-47490367D01*
X112892500Y-47468084D01*
X112873568Y-47442877D01*
X112829000Y-47436334D01*
X112778587Y-47426867D01*
X112765500Y-47404584D01*
X112757184Y-47387836D01*
X112727133Y-47378006D01*
X112667691Y-47373561D01*
X112606750Y-47372834D01*
X112523014Y-47374497D01*
X112473861Y-47380507D01*
X112451637Y-47392395D01*
X112448000Y-47404584D01*
X112431057Y-47432646D01*
X112416250Y-47436334D01*
X112388188Y-47453277D01*
X112384500Y-47468084D01*
X112367557Y-47496146D01*
X112352750Y-47499834D01*
X112324688Y-47516777D01*
X112321000Y-47531584D01*
X112304921Y-47559665D01*
X112290935Y-47563334D01*
X112271238Y-47583328D01*
X112255344Y-47638845D01*
X112243994Y-47723184D01*
X112237927Y-47829646D01*
X112237884Y-47951530D01*
X112240530Y-48019598D01*
X112243798Y-48110577D01*
X112241500Y-48166167D01*
X112232944Y-48193030D01*
X112221956Y-48198334D01*
X112210741Y-48189432D01*
X112202795Y-48159270D01*
X112197661Y-48102660D01*
X112194883Y-48014416D01*
X112194003Y-47889351D01*
X112194000Y-47880834D01*
X112194576Y-47756570D01*
X112196696Y-47668745D01*
X112200949Y-47611474D01*
X112207922Y-47578873D01*
X112218205Y-47565058D01*
X112225750Y-47563334D01*
X112250957Y-47544401D01*
X112257500Y-47499834D01*
X112266966Y-47449420D01*
X112289250Y-47436334D01*
X112317312Y-47419390D01*
X112321000Y-47404584D01*
X112339932Y-47379377D01*
X112384500Y-47372834D01*
X112434913Y-47363367D01*
X112448000Y-47341084D01*
X112456316Y-47324336D01*
X112486367Y-47314506D01*
X112545810Y-47310061D01*
X112606750Y-47309334D01*
X112690486Y-47310997D01*
G37*
X112712243Y-47565772D02*
X112751836Y-47574416D01*
X112765250Y-47591258D01*
X112765500Y-47595084D01*
X112782443Y-47623146D01*
X112797250Y-47626834D01*
X112825312Y-47643777D01*
X112829000Y-47658584D01*
X112845943Y-47686646D01*
X112860750Y-47690334D01*
X112888812Y-47707277D01*
X112892500Y-47722084D01*
X112909443Y-47750146D01*
X112924250Y-47753834D01*
X112952333Y-47769872D01*
X112956000Y-47783820D01*
X112971805Y-47816521D01*
X112982458Y-47822625D01*
X112999019Y-47849701D01*
X113007580Y-47917549D01*
X113008917Y-47976084D01*
X113004974Y-48067927D01*
X112993085Y-48118694D01*
X112982458Y-48129542D01*
X112958906Y-48152374D01*
X112960549Y-48182327D01*
X112985763Y-48198282D01*
X112987750Y-48198334D01*
X113012957Y-48217266D01*
X113019500Y-48261834D01*
X113010034Y-48312247D01*
X112987750Y-48325334D01*
X112959688Y-48308390D01*
X112956000Y-48293584D01*
X112937068Y-48268377D01*
X112892500Y-48261834D01*
X112842087Y-48252367D01*
X112829000Y-48230084D01*
X112810068Y-48204877D01*
X112765500Y-48198334D01*
X112715087Y-48188867D01*
X112702000Y-48166584D01*
X112689535Y-48145657D01*
X112647149Y-48136124D01*
X112606750Y-48134834D01*
X112548179Y-48136674D01*
X112520438Y-48147303D01*
X112512039Y-48174377D01*
X112511500Y-48198334D01*
X112517631Y-48242919D01*
X112532403Y-48261829D01*
X112532667Y-48261834D01*
X112551445Y-48278978D01*
X112553833Y-48293584D01*
X112542404Y-48321751D01*
X112532667Y-48325334D01*
X112513888Y-48308189D01*
X112511500Y-48293584D01*
X112494557Y-48265521D01*
X112479750Y-48261834D01*
X112461314Y-48252080D01*
X112451416Y-48217505D01*
X112448063Y-48150136D01*
X112448000Y-48134834D01*
X112450439Y-48061090D01*
X112459082Y-48021498D01*
X112475925Y-48008084D01*
X112479750Y-48007834D01*
X112507812Y-47990890D01*
X112511500Y-47976084D01*
X112528443Y-47948021D01*
X112543250Y-47944334D01*
X112571312Y-47961277D01*
X112575000Y-47976084D01*
X112591943Y-48004146D01*
X112606750Y-48007834D01*
X112634812Y-48024777D01*
X112638500Y-48039584D01*
X112646816Y-48056331D01*
X112676867Y-48066161D01*
X112736310Y-48070606D01*
X112797250Y-48071334D01*
X112956000Y-48071334D01*
X112956000Y-47944334D01*
X112953562Y-47870590D01*
X112944918Y-47830998D01*
X112928076Y-47817584D01*
X112924250Y-47817334D01*
X112896188Y-47800390D01*
X112892500Y-47785584D01*
X112873568Y-47760377D01*
X112829000Y-47753834D01*
X112778587Y-47744367D01*
X112765500Y-47722084D01*
X112755597Y-47703490D01*
X112720566Y-47693597D01*
X112652427Y-47690370D01*
X112640969Y-47690334D01*
X112562685Y-47694576D01*
X112517468Y-47712932D01*
X112496431Y-47753847D01*
X112490688Y-47825765D01*
X112490623Y-47833209D01*
X112482420Y-47870388D01*
X112469167Y-47880834D01*
X112457892Y-47861554D01*
X112450248Y-47811188D01*
X112448000Y-47753834D01*
X112450439Y-47680090D01*
X112459082Y-47640498D01*
X112475925Y-47627084D01*
X112479750Y-47626834D01*
X112507812Y-47609890D01*
X112511500Y-47595084D01*
X112521254Y-47576648D01*
X112555829Y-47566750D01*
X112623198Y-47563396D01*
X112638500Y-47563334D01*
X112712243Y-47565772D01*
G36*
X112712243Y-47565772D02*
G01*
X112751836Y-47574416D01*
X112765250Y-47591258D01*
X112765500Y-47595084D01*
X112782443Y-47623146D01*
X112797250Y-47626834D01*
X112825312Y-47643777D01*
X112829000Y-47658584D01*
X112845943Y-47686646D01*
X112860750Y-47690334D01*
X112888812Y-47707277D01*
X112892500Y-47722084D01*
X112909443Y-47750146D01*
X112924250Y-47753834D01*
X112952333Y-47769872D01*
X112956000Y-47783820D01*
X112971805Y-47816521D01*
X112982458Y-47822625D01*
X112999019Y-47849701D01*
X113007580Y-47917549D01*
X113008917Y-47976084D01*
X113004974Y-48067927D01*
X112993085Y-48118694D01*
X112982458Y-48129542D01*
X112958906Y-48152374D01*
X112960549Y-48182327D01*
X112985763Y-48198282D01*
X112987750Y-48198334D01*
X113012957Y-48217266D01*
X113019500Y-48261834D01*
X113010034Y-48312247D01*
X112987750Y-48325334D01*
X112959688Y-48308390D01*
X112956000Y-48293584D01*
X112937068Y-48268377D01*
X112892500Y-48261834D01*
X112842087Y-48252367D01*
X112829000Y-48230084D01*
X112810068Y-48204877D01*
X112765500Y-48198334D01*
X112715087Y-48188867D01*
X112702000Y-48166584D01*
X112689535Y-48145657D01*
X112647149Y-48136124D01*
X112606750Y-48134834D01*
X112548179Y-48136674D01*
X112520438Y-48147303D01*
X112512039Y-48174377D01*
X112511500Y-48198334D01*
X112517631Y-48242919D01*
X112532403Y-48261829D01*
X112532667Y-48261834D01*
X112551445Y-48278978D01*
X112553833Y-48293584D01*
X112542404Y-48321751D01*
X112532667Y-48325334D01*
X112513888Y-48308189D01*
X112511500Y-48293584D01*
X112494557Y-48265521D01*
X112479750Y-48261834D01*
X112461314Y-48252080D01*
X112451416Y-48217505D01*
X112448063Y-48150136D01*
X112448000Y-48134834D01*
X112450439Y-48061090D01*
X112459082Y-48021498D01*
X112475925Y-48008084D01*
X112479750Y-48007834D01*
X112507812Y-47990890D01*
X112511500Y-47976084D01*
X112528443Y-47948021D01*
X112543250Y-47944334D01*
X112571312Y-47961277D01*
X112575000Y-47976084D01*
X112591943Y-48004146D01*
X112606750Y-48007834D01*
X112634812Y-48024777D01*
X112638500Y-48039584D01*
X112646816Y-48056331D01*
X112676867Y-48066161D01*
X112736310Y-48070606D01*
X112797250Y-48071334D01*
X112956000Y-48071334D01*
X112956000Y-47944334D01*
X112953562Y-47870590D01*
X112944918Y-47830998D01*
X112928076Y-47817584D01*
X112924250Y-47817334D01*
X112896188Y-47800390D01*
X112892500Y-47785584D01*
X112873568Y-47760377D01*
X112829000Y-47753834D01*
X112778587Y-47744367D01*
X112765500Y-47722084D01*
X112755597Y-47703490D01*
X112720566Y-47693597D01*
X112652427Y-47690370D01*
X112640969Y-47690334D01*
X112562685Y-47694576D01*
X112517468Y-47712932D01*
X112496431Y-47753847D01*
X112490688Y-47825765D01*
X112490623Y-47833209D01*
X112482420Y-47870388D01*
X112469167Y-47880834D01*
X112457892Y-47861554D01*
X112450248Y-47811188D01*
X112448000Y-47753834D01*
X112450439Y-47680090D01*
X112459082Y-47640498D01*
X112475925Y-47627084D01*
X112479750Y-47626834D01*
X112507812Y-47609890D01*
X112511500Y-47595084D01*
X112521254Y-47576648D01*
X112555829Y-47566750D01*
X112623198Y-47563396D01*
X112638500Y-47563334D01*
X112712243Y-47565772D01*
G37*
X111971031Y-52774489D02*
X111999627Y-52788617D01*
X112003500Y-52802084D01*
X112013254Y-52820519D01*
X112047829Y-52830417D01*
X112115198Y-52833771D01*
X112130500Y-52833834D01*
X112204243Y-52836272D01*
X112243836Y-52844916D01*
X112257250Y-52861758D01*
X112257500Y-52865584D01*
X112267254Y-52884019D01*
X112301829Y-52893917D01*
X112369198Y-52897271D01*
X112384500Y-52897334D01*
X112458243Y-52899772D01*
X112497836Y-52908416D01*
X112511250Y-52925258D01*
X112511500Y-52929084D01*
X112521254Y-52947519D01*
X112555829Y-52957417D01*
X112623198Y-52960771D01*
X112638500Y-52960834D01*
X112712243Y-52963272D01*
X112751836Y-52971916D01*
X112765250Y-52988758D01*
X112765500Y-52992584D01*
X112775254Y-53011019D01*
X112809829Y-53020917D01*
X112877198Y-53024271D01*
X112892500Y-53024334D01*
X112966243Y-53026772D01*
X113005836Y-53035416D01*
X113019250Y-53052258D01*
X113019500Y-53056084D01*
X113029254Y-53074519D01*
X113063829Y-53084417D01*
X113131198Y-53087771D01*
X113146500Y-53087834D01*
X113220243Y-53090272D01*
X113259836Y-53098916D01*
X113273250Y-53115758D01*
X113273500Y-53119584D01*
X113284138Y-53138911D01*
X113321363Y-53148751D01*
X113387448Y-53151334D01*
X113454796Y-53153478D01*
X113491489Y-53162813D01*
X113509110Y-53183692D01*
X113514159Y-53198959D01*
X113520684Y-53246731D01*
X113524804Y-53323616D01*
X113526519Y-53416461D01*
X113525830Y-53512112D01*
X113522736Y-53597417D01*
X113517238Y-53659224D01*
X113514159Y-53675209D01*
X113495863Y-53712786D01*
X113475564Y-53721459D01*
X113464245Y-53697753D01*
X113464000Y-53691084D01*
X113454247Y-53672648D01*
X113419672Y-53662750D01*
X113352302Y-53659396D01*
X113337000Y-53659334D01*
X113263257Y-53656895D01*
X113223665Y-53648251D01*
X113210251Y-53631409D01*
X113210000Y-53627584D01*
X113200247Y-53609148D01*
X113165672Y-53599250D01*
X113098302Y-53595896D01*
X113083000Y-53595834D01*
X113009257Y-53593395D01*
X112969665Y-53584751D01*
X112956251Y-53567909D01*
X112956000Y-53564084D01*
X112946247Y-53545648D01*
X112911672Y-53535750D01*
X112844302Y-53532396D01*
X112829000Y-53532334D01*
X112755257Y-53529895D01*
X112715665Y-53521251D01*
X112702251Y-53504409D01*
X112702000Y-53500584D01*
X112692247Y-53482148D01*
X112657672Y-53472250D01*
X112590302Y-53468896D01*
X112575000Y-53468834D01*
X112501257Y-53466395D01*
X112461665Y-53457751D01*
X112448251Y-53440909D01*
X112448000Y-53437084D01*
X112438815Y-53419274D01*
X112405995Y-53409376D01*
X112341641Y-53405566D01*
X112310417Y-53405334D01*
X112172833Y-53405334D01*
X112172833Y-54230834D01*
X112119917Y-54230834D01*
X112077357Y-54219793D01*
X112067000Y-54199084D01*
X112054535Y-54178157D01*
X112012149Y-54168624D01*
X111971750Y-54167334D01*
X111908970Y-54163178D01*
X111880373Y-54149050D01*
X111876500Y-54135584D01*
X111859557Y-54107521D01*
X111844750Y-54103834D01*
X111835811Y-54099333D01*
X111828689Y-54083054D01*
X111823187Y-54050832D01*
X111819105Y-53998504D01*
X111816247Y-53921904D01*
X111814412Y-53816868D01*
X111813403Y-53679233D01*
X111813022Y-53504832D01*
X111813000Y-53437084D01*
X111813000Y-52770334D01*
X111908250Y-52770334D01*
X111971031Y-52774489D01*
G36*
X111971031Y-52774489D02*
G01*
X111999627Y-52788617D01*
X112003500Y-52802084D01*
X112013254Y-52820519D01*
X112047829Y-52830417D01*
X112115198Y-52833771D01*
X112130500Y-52833834D01*
X112204243Y-52836272D01*
X112243836Y-52844916D01*
X112257250Y-52861758D01*
X112257500Y-52865584D01*
X112267254Y-52884019D01*
X112301829Y-52893917D01*
X112369198Y-52897271D01*
X112384500Y-52897334D01*
X112458243Y-52899772D01*
X112497836Y-52908416D01*
X112511250Y-52925258D01*
X112511500Y-52929084D01*
X112521254Y-52947519D01*
X112555829Y-52957417D01*
X112623198Y-52960771D01*
X112638500Y-52960834D01*
X112712243Y-52963272D01*
X112751836Y-52971916D01*
X112765250Y-52988758D01*
X112765500Y-52992584D01*
X112775254Y-53011019D01*
X112809829Y-53020917D01*
X112877198Y-53024271D01*
X112892500Y-53024334D01*
X112966243Y-53026772D01*
X113005836Y-53035416D01*
X113019250Y-53052258D01*
X113019500Y-53056084D01*
X113029254Y-53074519D01*
X113063829Y-53084417D01*
X113131198Y-53087771D01*
X113146500Y-53087834D01*
X113220243Y-53090272D01*
X113259836Y-53098916D01*
X113273250Y-53115758D01*
X113273500Y-53119584D01*
X113284138Y-53138911D01*
X113321363Y-53148751D01*
X113387448Y-53151334D01*
X113454796Y-53153478D01*
X113491489Y-53162813D01*
X113509110Y-53183692D01*
X113514159Y-53198959D01*
X113520684Y-53246731D01*
X113524804Y-53323616D01*
X113526519Y-53416461D01*
X113525830Y-53512112D01*
X113522736Y-53597417D01*
X113517238Y-53659224D01*
X113514159Y-53675209D01*
X113495863Y-53712786D01*
X113475564Y-53721459D01*
X113464245Y-53697753D01*
X113464000Y-53691084D01*
X113454247Y-53672648D01*
X113419672Y-53662750D01*
X113352302Y-53659396D01*
X113337000Y-53659334D01*
X113263257Y-53656895D01*
X113223665Y-53648251D01*
X113210251Y-53631409D01*
X113210000Y-53627584D01*
X113200247Y-53609148D01*
X113165672Y-53599250D01*
X113098302Y-53595896D01*
X113083000Y-53595834D01*
X113009257Y-53593395D01*
X112969665Y-53584751D01*
X112956251Y-53567909D01*
X112956000Y-53564084D01*
X112946247Y-53545648D01*
X112911672Y-53535750D01*
X112844302Y-53532396D01*
X112829000Y-53532334D01*
X112755257Y-53529895D01*
X112715665Y-53521251D01*
X112702251Y-53504409D01*
X112702000Y-53500584D01*
X112692247Y-53482148D01*
X112657672Y-53472250D01*
X112590302Y-53468896D01*
X112575000Y-53468834D01*
X112501257Y-53466395D01*
X112461665Y-53457751D01*
X112448251Y-53440909D01*
X112448000Y-53437084D01*
X112438815Y-53419274D01*
X112405995Y-53409376D01*
X112341641Y-53405566D01*
X112310417Y-53405334D01*
X112172833Y-53405334D01*
X112172833Y-54230834D01*
X112119917Y-54230834D01*
X112077357Y-54219793D01*
X112067000Y-54199084D01*
X112054535Y-54178157D01*
X112012149Y-54168624D01*
X111971750Y-54167334D01*
X111908970Y-54163178D01*
X111880373Y-54149050D01*
X111876500Y-54135584D01*
X111859557Y-54107521D01*
X111844750Y-54103834D01*
X111835811Y-54099333D01*
X111828689Y-54083054D01*
X111823187Y-54050832D01*
X111819105Y-53998504D01*
X111816247Y-53921904D01*
X111814412Y-53816868D01*
X111813403Y-53679233D01*
X111813022Y-53504832D01*
X111813000Y-53437084D01*
X111813000Y-52770334D01*
X111908250Y-52770334D01*
X111971031Y-52774489D01*
G37*
X114004233Y-47834864D02*
X114018381Y-47890455D01*
X114020525Y-47905051D01*
X114032342Y-47962711D01*
X114047602Y-48000382D01*
X114052500Y-48005592D01*
X114066300Y-48032196D01*
X114080420Y-48087107D01*
X114088417Y-48134834D01*
X114100102Y-48200998D01*
X114113578Y-48248225D01*
X114122173Y-48262739D01*
X114132842Y-48288046D01*
X114144095Y-48343987D01*
X114153652Y-48418961D01*
X114154401Y-48426781D01*
X114163595Y-48500941D01*
X114174707Y-48555194D01*
X114185511Y-48579019D01*
X114186706Y-48579334D01*
X114193332Y-48599213D01*
X114198872Y-48653710D01*
X114202837Y-48735113D01*
X114204738Y-48835710D01*
X114204833Y-48865084D01*
X114203506Y-48969532D01*
X114199865Y-49056862D01*
X114194427Y-49119363D01*
X114187707Y-49149324D01*
X114185745Y-49150834D01*
X114173465Y-49170010D01*
X114160763Y-49219866D01*
X114151917Y-49277834D01*
X114141694Y-49344719D01*
X114129956Y-49390729D01*
X114120876Y-49404834D01*
X114108309Y-49423604D01*
X114096256Y-49470696D01*
X114092809Y-49492551D01*
X114080791Y-49550276D01*
X114065037Y-49588062D01*
X114059950Y-49593304D01*
X114039648Y-49621838D01*
X114024300Y-49664337D01*
X114007898Y-49706286D01*
X113990872Y-49722334D01*
X113974119Y-49739511D01*
X113972000Y-49754084D01*
X113955920Y-49782165D01*
X113941932Y-49785834D01*
X113916825Y-49804163D01*
X113898137Y-49848348D01*
X113897917Y-49849334D01*
X113882558Y-49893771D01*
X113864867Y-49912822D01*
X113864485Y-49912834D01*
X113847190Y-49930003D01*
X113845000Y-49944584D01*
X113828057Y-49972646D01*
X113813250Y-49976334D01*
X113785188Y-49993277D01*
X113781500Y-50008084D01*
X113764557Y-50036146D01*
X113749750Y-50039834D01*
X113721688Y-50056777D01*
X113718000Y-50071584D01*
X113701057Y-50099646D01*
X113686250Y-50103334D01*
X113658188Y-50120277D01*
X113654500Y-50135084D01*
X113637557Y-50163146D01*
X113622750Y-50166834D01*
X113611675Y-50161628D01*
X113603453Y-50142528D01*
X113597684Y-50104310D01*
X113593965Y-50041749D01*
X113591895Y-49949620D01*
X113591071Y-49822699D01*
X113591000Y-49754084D01*
X113591401Y-49610102D01*
X113592870Y-49503224D01*
X113595810Y-49428225D01*
X113600622Y-49379880D01*
X113607709Y-49352966D01*
X113617472Y-49342258D01*
X113622750Y-49341334D01*
X113650812Y-49324390D01*
X113654500Y-49309584D01*
X113673432Y-49284377D01*
X113718000Y-49277834D01*
X113762977Y-49272589D01*
X113779555Y-49247849D01*
X113781500Y-49214334D01*
X113790966Y-49163920D01*
X113813250Y-49150834D01*
X113841312Y-49133890D01*
X113845000Y-49119084D01*
X113861943Y-49091021D01*
X113876750Y-49087334D01*
X113901957Y-49068401D01*
X113908500Y-49023834D01*
X113917966Y-48973420D01*
X113940250Y-48960334D01*
X113958686Y-48950580D01*
X113968584Y-48916005D01*
X113971938Y-48848636D01*
X113972000Y-48833334D01*
X113974439Y-48759590D01*
X113983082Y-48719998D01*
X113999925Y-48706584D01*
X114003750Y-48706334D01*
X114015670Y-48700793D01*
X114024254Y-48680413D01*
X114030016Y-48639554D01*
X114033469Y-48572577D01*
X114035123Y-48473844D01*
X114035500Y-48357084D01*
X114034996Y-48225968D01*
X114033144Y-48131538D01*
X114029429Y-48068156D01*
X114023340Y-48030182D01*
X114014365Y-48011978D01*
X114003750Y-48007834D01*
X113982823Y-47995368D01*
X113973291Y-47952983D01*
X113972000Y-47912584D01*
X113976947Y-47846564D01*
X113989056Y-47820445D01*
X114004233Y-47834864D01*
G36*
X114004233Y-47834864D02*
G01*
X114018381Y-47890455D01*
X114020525Y-47905051D01*
X114032342Y-47962711D01*
X114047602Y-48000382D01*
X114052500Y-48005592D01*
X114066300Y-48032196D01*
X114080420Y-48087107D01*
X114088417Y-48134834D01*
X114100102Y-48200998D01*
X114113578Y-48248225D01*
X114122173Y-48262739D01*
X114132842Y-48288046D01*
X114144095Y-48343987D01*
X114153652Y-48418961D01*
X114154401Y-48426781D01*
X114163595Y-48500941D01*
X114174707Y-48555194D01*
X114185511Y-48579019D01*
X114186706Y-48579334D01*
X114193332Y-48599213D01*
X114198872Y-48653710D01*
X114202837Y-48735113D01*
X114204738Y-48835710D01*
X114204833Y-48865084D01*
X114203506Y-48969532D01*
X114199865Y-49056862D01*
X114194427Y-49119363D01*
X114187707Y-49149324D01*
X114185745Y-49150834D01*
X114173465Y-49170010D01*
X114160763Y-49219866D01*
X114151917Y-49277834D01*
X114141694Y-49344719D01*
X114129956Y-49390729D01*
X114120876Y-49404834D01*
X114108309Y-49423604D01*
X114096256Y-49470696D01*
X114092809Y-49492551D01*
X114080791Y-49550276D01*
X114065037Y-49588062D01*
X114059950Y-49593304D01*
X114039648Y-49621838D01*
X114024300Y-49664337D01*
X114007898Y-49706286D01*
X113990872Y-49722334D01*
X113974119Y-49739511D01*
X113972000Y-49754084D01*
X113955920Y-49782165D01*
X113941932Y-49785834D01*
X113916825Y-49804163D01*
X113898137Y-49848348D01*
X113897917Y-49849334D01*
X113882558Y-49893771D01*
X113864867Y-49912822D01*
X113864485Y-49912834D01*
X113847190Y-49930003D01*
X113845000Y-49944584D01*
X113828057Y-49972646D01*
X113813250Y-49976334D01*
X113785188Y-49993277D01*
X113781500Y-50008084D01*
X113764557Y-50036146D01*
X113749750Y-50039834D01*
X113721688Y-50056777D01*
X113718000Y-50071584D01*
X113701057Y-50099646D01*
X113686250Y-50103334D01*
X113658188Y-50120277D01*
X113654500Y-50135084D01*
X113637557Y-50163146D01*
X113622750Y-50166834D01*
X113611675Y-50161628D01*
X113603453Y-50142528D01*
X113597684Y-50104310D01*
X113593965Y-50041749D01*
X113591895Y-49949620D01*
X113591071Y-49822699D01*
X113591000Y-49754084D01*
X113591401Y-49610102D01*
X113592870Y-49503224D01*
X113595810Y-49428225D01*
X113600622Y-49379880D01*
X113607709Y-49352966D01*
X113617472Y-49342258D01*
X113622750Y-49341334D01*
X113650812Y-49324390D01*
X113654500Y-49309584D01*
X113673432Y-49284377D01*
X113718000Y-49277834D01*
X113762977Y-49272589D01*
X113779555Y-49247849D01*
X113781500Y-49214334D01*
X113790966Y-49163920D01*
X113813250Y-49150834D01*
X113841312Y-49133890D01*
X113845000Y-49119084D01*
X113861943Y-49091021D01*
X113876750Y-49087334D01*
X113901957Y-49068401D01*
X113908500Y-49023834D01*
X113917966Y-48973420D01*
X113940250Y-48960334D01*
X113958686Y-48950580D01*
X113968584Y-48916005D01*
X113971938Y-48848636D01*
X113972000Y-48833334D01*
X113974439Y-48759590D01*
X113983082Y-48719998D01*
X113999925Y-48706584D01*
X114003750Y-48706334D01*
X114015670Y-48700793D01*
X114024254Y-48680413D01*
X114030016Y-48639554D01*
X114033469Y-48572577D01*
X114035123Y-48473844D01*
X114035500Y-48357084D01*
X114034996Y-48225968D01*
X114033144Y-48131538D01*
X114029429Y-48068156D01*
X114023340Y-48030182D01*
X114014365Y-48011978D01*
X114003750Y-48007834D01*
X113982823Y-47995368D01*
X113973291Y-47952983D01*
X113972000Y-47912584D01*
X113976947Y-47846564D01*
X113989056Y-47820445D01*
X114004233Y-47834864D01*
G37*
X112898742Y-49659807D02*
X112964765Y-49663378D01*
X113002153Y-49670523D01*
X113017741Y-49682218D01*
X113019500Y-49690584D01*
X113038432Y-49715790D01*
X113083000Y-49722334D01*
X113133413Y-49731800D01*
X113146500Y-49754084D01*
X113163443Y-49782146D01*
X113178250Y-49785834D01*
X113206312Y-49802777D01*
X113210000Y-49817584D01*
X113226943Y-49845646D01*
X113241750Y-49849334D01*
X113269812Y-49866277D01*
X113273500Y-49881084D01*
X113283711Y-49909269D01*
X113292372Y-49912834D01*
X113310553Y-49930883D01*
X113325800Y-49970830D01*
X113343415Y-50017846D01*
X113361450Y-50041863D01*
X113377239Y-50069400D01*
X113391092Y-50122396D01*
X113394309Y-50142616D01*
X113405498Y-50196698D01*
X113419509Y-50227567D01*
X113424454Y-50230334D01*
X113437362Y-50248738D01*
X113442832Y-50293078D01*
X113442833Y-50293834D01*
X113437506Y-50338430D01*
X113424672Y-50357329D01*
X113424454Y-50357334D01*
X113410695Y-50376134D01*
X113397855Y-50423403D01*
X113394069Y-50446837D01*
X113381849Y-50503611D01*
X113365529Y-50539145D01*
X113359532Y-50543851D01*
X113338941Y-50568561D01*
X113337000Y-50581347D01*
X113320018Y-50607870D01*
X113305250Y-50611334D01*
X113277188Y-50594390D01*
X113273500Y-50579584D01*
X113256557Y-50551521D01*
X113241750Y-50547834D01*
X113216544Y-50528901D01*
X113210000Y-50484334D01*
X113219466Y-50433920D01*
X113241750Y-50420834D01*
X113260186Y-50411080D01*
X113270084Y-50376505D01*
X113273438Y-50309136D01*
X113273500Y-50293834D01*
X113271062Y-50220090D01*
X113262418Y-50180498D01*
X113245576Y-50167084D01*
X113241750Y-50166834D01*
X113216544Y-50147901D01*
X113210000Y-50103334D01*
X113200534Y-50052920D01*
X113178250Y-50039834D01*
X113150188Y-50022890D01*
X113146500Y-50008084D01*
X113129557Y-49980021D01*
X113114750Y-49976334D01*
X113086688Y-49959390D01*
X113083000Y-49944584D01*
X113076632Y-49930895D01*
X113053209Y-49921686D01*
X113006256Y-49916146D01*
X112929295Y-49913468D01*
X112829000Y-49912834D01*
X112719490Y-49913630D01*
X112645816Y-49916557D01*
X112601503Y-49922427D01*
X112580073Y-49932047D01*
X112575000Y-49944584D01*
X112558057Y-49972646D01*
X112543250Y-49976334D01*
X112517509Y-49995910D01*
X112507795Y-50045125D01*
X112506543Y-50129892D01*
X112511103Y-50207394D01*
X112520295Y-50265980D01*
X112532940Y-50294002D01*
X112533009Y-50294045D01*
X112550535Y-50320697D01*
X112565033Y-50362837D01*
X112570334Y-50405521D01*
X112553805Y-50420300D01*
X112545545Y-50420834D01*
X112516037Y-50436798D01*
X112511500Y-50452584D01*
X112494557Y-50480646D01*
X112479750Y-50484334D01*
X112454544Y-50465401D01*
X112448000Y-50420834D01*
X112438534Y-50370420D01*
X112416250Y-50357334D01*
X112391044Y-50338401D01*
X112384500Y-50293834D01*
X112375034Y-50243420D01*
X112352750Y-50230334D01*
X112334314Y-50220580D01*
X112324416Y-50186005D01*
X112321063Y-50118636D01*
X112321000Y-50103334D01*
X112323439Y-50029590D01*
X112332082Y-49989998D01*
X112348925Y-49976584D01*
X112352750Y-49976334D01*
X112373677Y-49963868D01*
X112383209Y-49921483D01*
X112384500Y-49881084D01*
X112388655Y-49818303D01*
X112402784Y-49789706D01*
X112416250Y-49785834D01*
X112444312Y-49768890D01*
X112448000Y-49754084D01*
X112466932Y-49728877D01*
X112511500Y-49722334D01*
X112561913Y-49712867D01*
X112575000Y-49690584D01*
X112581814Y-49676085D01*
X112606811Y-49666653D01*
X112656825Y-49661312D01*
X112738690Y-49659085D01*
X112797250Y-49658834D01*
X112898742Y-49659807D01*
G36*
X112898742Y-49659807D02*
G01*
X112964765Y-49663378D01*
X113002153Y-49670523D01*
X113017741Y-49682218D01*
X113019500Y-49690584D01*
X113038432Y-49715790D01*
X113083000Y-49722334D01*
X113133413Y-49731800D01*
X113146500Y-49754084D01*
X113163443Y-49782146D01*
X113178250Y-49785834D01*
X113206312Y-49802777D01*
X113210000Y-49817584D01*
X113226943Y-49845646D01*
X113241750Y-49849334D01*
X113269812Y-49866277D01*
X113273500Y-49881084D01*
X113283711Y-49909269D01*
X113292372Y-49912834D01*
X113310553Y-49930883D01*
X113325800Y-49970830D01*
X113343415Y-50017846D01*
X113361450Y-50041863D01*
X113377239Y-50069400D01*
X113391092Y-50122396D01*
X113394309Y-50142616D01*
X113405498Y-50196698D01*
X113419509Y-50227567D01*
X113424454Y-50230334D01*
X113437362Y-50248738D01*
X113442832Y-50293078D01*
X113442833Y-50293834D01*
X113437506Y-50338430D01*
X113424672Y-50357329D01*
X113424454Y-50357334D01*
X113410695Y-50376134D01*
X113397855Y-50423403D01*
X113394069Y-50446837D01*
X113381849Y-50503611D01*
X113365529Y-50539145D01*
X113359532Y-50543851D01*
X113338941Y-50568561D01*
X113337000Y-50581347D01*
X113320018Y-50607870D01*
X113305250Y-50611334D01*
X113277188Y-50594390D01*
X113273500Y-50579584D01*
X113256557Y-50551521D01*
X113241750Y-50547834D01*
X113216544Y-50528901D01*
X113210000Y-50484334D01*
X113219466Y-50433920D01*
X113241750Y-50420834D01*
X113260186Y-50411080D01*
X113270084Y-50376505D01*
X113273438Y-50309136D01*
X113273500Y-50293834D01*
X113271062Y-50220090D01*
X113262418Y-50180498D01*
X113245576Y-50167084D01*
X113241750Y-50166834D01*
X113216544Y-50147901D01*
X113210000Y-50103334D01*
X113200534Y-50052920D01*
X113178250Y-50039834D01*
X113150188Y-50022890D01*
X113146500Y-50008084D01*
X113129557Y-49980021D01*
X113114750Y-49976334D01*
X113086688Y-49959390D01*
X113083000Y-49944584D01*
X113076632Y-49930895D01*
X113053209Y-49921686D01*
X113006256Y-49916146D01*
X112929295Y-49913468D01*
X112829000Y-49912834D01*
X112719490Y-49913630D01*
X112645816Y-49916557D01*
X112601503Y-49922427D01*
X112580073Y-49932047D01*
X112575000Y-49944584D01*
X112558057Y-49972646D01*
X112543250Y-49976334D01*
X112517509Y-49995910D01*
X112507795Y-50045125D01*
X112506543Y-50129892D01*
X112511103Y-50207394D01*
X112520295Y-50265980D01*
X112532940Y-50294002D01*
X112533009Y-50294045D01*
X112550535Y-50320697D01*
X112565033Y-50362837D01*
X112570334Y-50405521D01*
X112553805Y-50420300D01*
X112545545Y-50420834D01*
X112516037Y-50436798D01*
X112511500Y-50452584D01*
X112494557Y-50480646D01*
X112479750Y-50484334D01*
X112454544Y-50465401D01*
X112448000Y-50420834D01*
X112438534Y-50370420D01*
X112416250Y-50357334D01*
X112391044Y-50338401D01*
X112384500Y-50293834D01*
X112375034Y-50243420D01*
X112352750Y-50230334D01*
X112334314Y-50220580D01*
X112324416Y-50186005D01*
X112321063Y-50118636D01*
X112321000Y-50103334D01*
X112323439Y-50029590D01*
X112332082Y-49989998D01*
X112348925Y-49976584D01*
X112352750Y-49976334D01*
X112373677Y-49963868D01*
X112383209Y-49921483D01*
X112384500Y-49881084D01*
X112388655Y-49818303D01*
X112402784Y-49789706D01*
X112416250Y-49785834D01*
X112444312Y-49768890D01*
X112448000Y-49754084D01*
X112466932Y-49728877D01*
X112511500Y-49722334D01*
X112561913Y-49712867D01*
X112575000Y-49690584D01*
X112581814Y-49676085D01*
X112606811Y-49666653D01*
X112656825Y-49661312D01*
X112738690Y-49659085D01*
X112797250Y-49658834D01*
X112898742Y-49659807D01*
G37*
X112013743Y-51121772D02*
X112053336Y-51130416D01*
X112066750Y-51147258D01*
X112067000Y-51151084D01*
X112085726Y-51176415D01*
X112126297Y-51182834D01*
X112185593Y-51182834D01*
X112184505Y-51461432D01*
X112185245Y-51584820D01*
X112188856Y-51670486D01*
X112195737Y-51722970D01*
X112206290Y-51746812D01*
X112209875Y-51748946D01*
X112234085Y-51775028D01*
X112236333Y-51787847D01*
X112253964Y-51812161D01*
X112278667Y-51817834D01*
X112313143Y-51831068D01*
X112321000Y-51849584D01*
X112339932Y-51874790D01*
X112384500Y-51881334D01*
X112434913Y-51890800D01*
X112448000Y-51913084D01*
X112457754Y-51931519D01*
X112492329Y-51941417D01*
X112559698Y-51944771D01*
X112575000Y-51944834D01*
X112648743Y-51947272D01*
X112688336Y-51955916D01*
X112701750Y-51972758D01*
X112702000Y-51976584D01*
X112711754Y-51995019D01*
X112746329Y-52004917D01*
X112813698Y-52008271D01*
X112829000Y-52008334D01*
X112902743Y-52010772D01*
X112942336Y-52019416D01*
X112955750Y-52036258D01*
X112956000Y-52040084D01*
X112965754Y-52058519D01*
X113000329Y-52068417D01*
X113067698Y-52071771D01*
X113083000Y-52071834D01*
X113210000Y-52071834D01*
X113210000Y-51881334D01*
X113337000Y-51881334D01*
X113410743Y-51883772D01*
X113450336Y-51892416D01*
X113463750Y-51909258D01*
X113464000Y-51913084D01*
X113480943Y-51941146D01*
X113495750Y-51944834D01*
X113507223Y-51950192D01*
X113515621Y-51969882D01*
X113521395Y-52009324D01*
X113524996Y-52073938D01*
X113526877Y-52169144D01*
X113527490Y-52300363D01*
X113527500Y-52325834D01*
X113527500Y-52706834D01*
X113464000Y-52706834D01*
X113413587Y-52697367D01*
X113400500Y-52675084D01*
X113390747Y-52656648D01*
X113356172Y-52646750D01*
X113288802Y-52643396D01*
X113273500Y-52643334D01*
X113199757Y-52640895D01*
X113160165Y-52632251D01*
X113146751Y-52615409D01*
X113146500Y-52611584D01*
X113136747Y-52593148D01*
X113102172Y-52583250D01*
X113034802Y-52579896D01*
X113019500Y-52579834D01*
X112945757Y-52577395D01*
X112906165Y-52568751D01*
X112892751Y-52551909D01*
X112892500Y-52548084D01*
X112882747Y-52529648D01*
X112848172Y-52519750D01*
X112780802Y-52516396D01*
X112765500Y-52516334D01*
X112691757Y-52513895D01*
X112652165Y-52505251D01*
X112638751Y-52488409D01*
X112638500Y-52484584D01*
X112626035Y-52463657D01*
X112583649Y-52454124D01*
X112543250Y-52452834D01*
X112480470Y-52448678D01*
X112451873Y-52434550D01*
X112448000Y-52421084D01*
X112435535Y-52400157D01*
X112393149Y-52390624D01*
X112352750Y-52389334D01*
X112289970Y-52385178D01*
X112261373Y-52371050D01*
X112257500Y-52357584D01*
X112238568Y-52332377D01*
X112194000Y-52325834D01*
X112143587Y-52316367D01*
X112130500Y-52294084D01*
X112113557Y-52266021D01*
X112098750Y-52262334D01*
X112070688Y-52245390D01*
X112067000Y-52230584D01*
X112050057Y-52202521D01*
X112035250Y-52198834D01*
X112007188Y-52181890D01*
X112003500Y-52167084D01*
X111986557Y-52139021D01*
X111971750Y-52135334D01*
X111943688Y-52118390D01*
X111940000Y-52103584D01*
X111923057Y-52075521D01*
X111908250Y-52071834D01*
X111887323Y-52059368D01*
X111877791Y-52016983D01*
X111876500Y-51976584D01*
X111872345Y-51913803D01*
X111858217Y-51885206D01*
X111844750Y-51881334D01*
X111833277Y-51875975D01*
X111824879Y-51856285D01*
X111819106Y-51816843D01*
X111815504Y-51752229D01*
X111813623Y-51657023D01*
X111813011Y-51525804D01*
X111813000Y-51500334D01*
X111813000Y-51119334D01*
X111940000Y-51119334D01*
X112013743Y-51121772D01*
G36*
X112013743Y-51121772D02*
G01*
X112053336Y-51130416D01*
X112066750Y-51147258D01*
X112067000Y-51151084D01*
X112085726Y-51176415D01*
X112126297Y-51182834D01*
X112185593Y-51182834D01*
X112184505Y-51461432D01*
X112185245Y-51584820D01*
X112188856Y-51670486D01*
X112195737Y-51722970D01*
X112206290Y-51746812D01*
X112209875Y-51748946D01*
X112234085Y-51775028D01*
X112236333Y-51787847D01*
X112253964Y-51812161D01*
X112278667Y-51817834D01*
X112313143Y-51831068D01*
X112321000Y-51849584D01*
X112339932Y-51874790D01*
X112384500Y-51881334D01*
X112434913Y-51890800D01*
X112448000Y-51913084D01*
X112457754Y-51931519D01*
X112492329Y-51941417D01*
X112559698Y-51944771D01*
X112575000Y-51944834D01*
X112648743Y-51947272D01*
X112688336Y-51955916D01*
X112701750Y-51972758D01*
X112702000Y-51976584D01*
X112711754Y-51995019D01*
X112746329Y-52004917D01*
X112813698Y-52008271D01*
X112829000Y-52008334D01*
X112902743Y-52010772D01*
X112942336Y-52019416D01*
X112955750Y-52036258D01*
X112956000Y-52040084D01*
X112965754Y-52058519D01*
X113000329Y-52068417D01*
X113067698Y-52071771D01*
X113083000Y-52071834D01*
X113210000Y-52071834D01*
X113210000Y-51881334D01*
X113337000Y-51881334D01*
X113410743Y-51883772D01*
X113450336Y-51892416D01*
X113463750Y-51909258D01*
X113464000Y-51913084D01*
X113480943Y-51941146D01*
X113495750Y-51944834D01*
X113507223Y-51950192D01*
X113515621Y-51969882D01*
X113521395Y-52009324D01*
X113524996Y-52073938D01*
X113526877Y-52169144D01*
X113527490Y-52300363D01*
X113527500Y-52325834D01*
X113527500Y-52706834D01*
X113464000Y-52706834D01*
X113413587Y-52697367D01*
X113400500Y-52675084D01*
X113390747Y-52656648D01*
X113356172Y-52646750D01*
X113288802Y-52643396D01*
X113273500Y-52643334D01*
X113199757Y-52640895D01*
X113160165Y-52632251D01*
X113146751Y-52615409D01*
X113146500Y-52611584D01*
X113136747Y-52593148D01*
X113102172Y-52583250D01*
X113034802Y-52579896D01*
X113019500Y-52579834D01*
X112945757Y-52577395D01*
X112906165Y-52568751D01*
X112892751Y-52551909D01*
X112892500Y-52548084D01*
X112882747Y-52529648D01*
X112848172Y-52519750D01*
X112780802Y-52516396D01*
X112765500Y-52516334D01*
X112691757Y-52513895D01*
X112652165Y-52505251D01*
X112638751Y-52488409D01*
X112638500Y-52484584D01*
X112626035Y-52463657D01*
X112583649Y-52454124D01*
X112543250Y-52452834D01*
X112480470Y-52448678D01*
X112451873Y-52434550D01*
X112448000Y-52421084D01*
X112435535Y-52400157D01*
X112393149Y-52390624D01*
X112352750Y-52389334D01*
X112289970Y-52385178D01*
X112261373Y-52371050D01*
X112257500Y-52357584D01*
X112238568Y-52332377D01*
X112194000Y-52325834D01*
X112143587Y-52316367D01*
X112130500Y-52294084D01*
X112113557Y-52266021D01*
X112098750Y-52262334D01*
X112070688Y-52245390D01*
X112067000Y-52230584D01*
X112050057Y-52202521D01*
X112035250Y-52198834D01*
X112007188Y-52181890D01*
X112003500Y-52167084D01*
X111986557Y-52139021D01*
X111971750Y-52135334D01*
X111943688Y-52118390D01*
X111940000Y-52103584D01*
X111923057Y-52075521D01*
X111908250Y-52071834D01*
X111887323Y-52059368D01*
X111877791Y-52016983D01*
X111876500Y-51976584D01*
X111872345Y-51913803D01*
X111858217Y-51885206D01*
X111844750Y-51881334D01*
X111833277Y-51875975D01*
X111824879Y-51856285D01*
X111819106Y-51816843D01*
X111815504Y-51752229D01*
X111813623Y-51657023D01*
X111813011Y-51525804D01*
X111813000Y-51500334D01*
X111813000Y-51119334D01*
X111940000Y-51119334D01*
X112013743Y-51121772D01*
G37*
X111971031Y-56393989D02*
X111999627Y-56408117D01*
X112003500Y-56421584D01*
X112013254Y-56440019D01*
X112047829Y-56449917D01*
X112115198Y-56453271D01*
X112130500Y-56453334D01*
X112204243Y-56455772D01*
X112243836Y-56464416D01*
X112257250Y-56481258D01*
X112257500Y-56485084D01*
X112267254Y-56503519D01*
X112301829Y-56513417D01*
X112369198Y-56516771D01*
X112384500Y-56516834D01*
X112458243Y-56519272D01*
X112497836Y-56527916D01*
X112511250Y-56544758D01*
X112511500Y-56548584D01*
X112521254Y-56567019D01*
X112555829Y-56576917D01*
X112623198Y-56580271D01*
X112638500Y-56580334D01*
X112712243Y-56582772D01*
X112751836Y-56591416D01*
X112765250Y-56608258D01*
X112765500Y-56612084D01*
X112775254Y-56630519D01*
X112809829Y-56640417D01*
X112829000Y-56641371D01*
X112877198Y-56643771D01*
X112892500Y-56643834D01*
X112966243Y-56646272D01*
X113005836Y-56654916D01*
X113019250Y-56671758D01*
X113019500Y-56675584D01*
X113031966Y-56696510D01*
X113074351Y-56706043D01*
X113114750Y-56707334D01*
X113177531Y-56711489D01*
X113206127Y-56725617D01*
X113210000Y-56739084D01*
X113219754Y-56757519D01*
X113254329Y-56767417D01*
X113321698Y-56770771D01*
X113337000Y-56770834D01*
X113410743Y-56773272D01*
X113450336Y-56781916D01*
X113463750Y-56798758D01*
X113464000Y-56802584D01*
X113481138Y-56830039D01*
X113498321Y-56834334D01*
X113508891Y-56837699D01*
X113516869Y-56850981D01*
X113522486Y-56878961D01*
X113525973Y-56926417D01*
X113527561Y-56998131D01*
X113527480Y-57098881D01*
X113525961Y-57233448D01*
X113523929Y-57364797D01*
X113519998Y-57553180D01*
X113515030Y-57700473D01*
X113508952Y-57807907D01*
X113501690Y-57876717D01*
X113493171Y-57908133D01*
X113491287Y-57910051D01*
X113468796Y-57940068D01*
X113452800Y-57982837D01*
X113436932Y-58024768D01*
X113421054Y-58040834D01*
X113405027Y-58059060D01*
X113390205Y-58103036D01*
X113389917Y-58104334D01*
X113371167Y-58151304D01*
X113336346Y-58167346D01*
X113324735Y-58167834D01*
X113283438Y-58179178D01*
X113273500Y-58199584D01*
X113254568Y-58224790D01*
X113210000Y-58231334D01*
X113159587Y-58240800D01*
X113146500Y-58263084D01*
X113127568Y-58288290D01*
X113083000Y-58294834D01*
X113032587Y-58285367D01*
X113019500Y-58263084D01*
X113009747Y-58244648D01*
X112975172Y-58234750D01*
X112907802Y-58231396D01*
X112892500Y-58231334D01*
X112818757Y-58228895D01*
X112779165Y-58220251D01*
X112765751Y-58203409D01*
X112765500Y-58199584D01*
X112748557Y-58171521D01*
X112733750Y-58167834D01*
X112705688Y-58150890D01*
X112702000Y-58136084D01*
X112685057Y-58108021D01*
X112670250Y-58104334D01*
X112642188Y-58087390D01*
X112638500Y-58072584D01*
X112621557Y-58044521D01*
X112606750Y-58040834D01*
X112578688Y-58023890D01*
X112575000Y-58009084D01*
X112558057Y-57981021D01*
X112543250Y-57977334D01*
X112518044Y-57958401D01*
X112511500Y-57913834D01*
X112502034Y-57863420D01*
X112479750Y-57850334D01*
X112461314Y-57840580D01*
X112451416Y-57806005D01*
X112448063Y-57738636D01*
X112448000Y-57723334D01*
X112445562Y-57649590D01*
X112436918Y-57609998D01*
X112420076Y-57596584D01*
X112416250Y-57596334D01*
X112403241Y-57590305D01*
X112394250Y-57568113D01*
X112388592Y-57523596D01*
X112385582Y-57450591D01*
X112384535Y-57342939D01*
X112384500Y-57310584D01*
X112384500Y-57278834D01*
X112702000Y-57278834D01*
X112705213Y-57346481D01*
X112713608Y-57392344D01*
X112723167Y-57405834D01*
X112739800Y-57423781D01*
X112744623Y-57453459D01*
X112752431Y-57526957D01*
X112772328Y-57577869D01*
X112799719Y-57596334D01*
X112825625Y-57613330D01*
X112829000Y-57628084D01*
X112845943Y-57656146D01*
X112860750Y-57659834D01*
X112888812Y-57676777D01*
X112892500Y-57691584D01*
X112904966Y-57712510D01*
X112947351Y-57722043D01*
X112987750Y-57723334D01*
X113050531Y-57719178D01*
X113079127Y-57705050D01*
X113083000Y-57691584D01*
X113099943Y-57663521D01*
X113114750Y-57659834D01*
X113142812Y-57642890D01*
X113146500Y-57628084D01*
X113163443Y-57600021D01*
X113178250Y-57596334D01*
X113193740Y-57588910D01*
X113203388Y-57561815D01*
X113208401Y-57507816D01*
X113209983Y-57419677D01*
X113210000Y-57405834D01*
X113210000Y-57215334D01*
X113083000Y-57215334D01*
X113009257Y-57212895D01*
X112969665Y-57204251D01*
X112956251Y-57187409D01*
X112956000Y-57183584D01*
X112946247Y-57165148D01*
X112911672Y-57155250D01*
X112844302Y-57151896D01*
X112829000Y-57151834D01*
X112702000Y-57151834D01*
X112702000Y-57278834D01*
X112384500Y-57278834D01*
X112384500Y-57024834D01*
X112289250Y-57024834D01*
X112226470Y-57020678D01*
X112197873Y-57006550D01*
X112194000Y-56993084D01*
X112184247Y-56974648D01*
X112149672Y-56964750D01*
X112082302Y-56961396D01*
X112067000Y-56961334D01*
X111993257Y-56958895D01*
X111953665Y-56950251D01*
X111940251Y-56933409D01*
X111940000Y-56929584D01*
X111921068Y-56904377D01*
X111876500Y-56897834D01*
X111813000Y-56897834D01*
X111813000Y-56389834D01*
X111908250Y-56389834D01*
X111971031Y-56393989D01*
G36*
X111971031Y-56393989D02*
G01*
X111999627Y-56408117D01*
X112003500Y-56421584D01*
X112013254Y-56440019D01*
X112047829Y-56449917D01*
X112115198Y-56453271D01*
X112130500Y-56453334D01*
X112204243Y-56455772D01*
X112243836Y-56464416D01*
X112257250Y-56481258D01*
X112257500Y-56485084D01*
X112267254Y-56503519D01*
X112301829Y-56513417D01*
X112369198Y-56516771D01*
X112384500Y-56516834D01*
X112458243Y-56519272D01*
X112497836Y-56527916D01*
X112511250Y-56544758D01*
X112511500Y-56548584D01*
X112521254Y-56567019D01*
X112555829Y-56576917D01*
X112623198Y-56580271D01*
X112638500Y-56580334D01*
X112712243Y-56582772D01*
X112751836Y-56591416D01*
X112765250Y-56608258D01*
X112765500Y-56612084D01*
X112775254Y-56630519D01*
X112809829Y-56640417D01*
X112829000Y-56641371D01*
X112877198Y-56643771D01*
X112892500Y-56643834D01*
X112966243Y-56646272D01*
X113005836Y-56654916D01*
X113019250Y-56671758D01*
X113019500Y-56675584D01*
X113031966Y-56696510D01*
X113074351Y-56706043D01*
X113114750Y-56707334D01*
X113177531Y-56711489D01*
X113206127Y-56725617D01*
X113210000Y-56739084D01*
X113219754Y-56757519D01*
X113254329Y-56767417D01*
X113321698Y-56770771D01*
X113337000Y-56770834D01*
X113410743Y-56773272D01*
X113450336Y-56781916D01*
X113463750Y-56798758D01*
X113464000Y-56802584D01*
X113481138Y-56830039D01*
X113498321Y-56834334D01*
X113508891Y-56837699D01*
X113516869Y-56850981D01*
X113522486Y-56878961D01*
X113525973Y-56926417D01*
X113527561Y-56998131D01*
X113527480Y-57098881D01*
X113525961Y-57233448D01*
X113523929Y-57364797D01*
X113519998Y-57553180D01*
X113515030Y-57700473D01*
X113508952Y-57807907D01*
X113501690Y-57876717D01*
X113493171Y-57908133D01*
X113491287Y-57910051D01*
X113468796Y-57940068D01*
X113452800Y-57982837D01*
X113436932Y-58024768D01*
X113421054Y-58040834D01*
X113405027Y-58059060D01*
X113390205Y-58103036D01*
X113389917Y-58104334D01*
X113371167Y-58151304D01*
X113336346Y-58167346D01*
X113324735Y-58167834D01*
X113283438Y-58179178D01*
X113273500Y-58199584D01*
X113254568Y-58224790D01*
X113210000Y-58231334D01*
X113159587Y-58240800D01*
X113146500Y-58263084D01*
X113127568Y-58288290D01*
X113083000Y-58294834D01*
X113032587Y-58285367D01*
X113019500Y-58263084D01*
X113009747Y-58244648D01*
X112975172Y-58234750D01*
X112907802Y-58231396D01*
X112892500Y-58231334D01*
X112818757Y-58228895D01*
X112779165Y-58220251D01*
X112765751Y-58203409D01*
X112765500Y-58199584D01*
X112748557Y-58171521D01*
X112733750Y-58167834D01*
X112705688Y-58150890D01*
X112702000Y-58136084D01*
X112685057Y-58108021D01*
X112670250Y-58104334D01*
X112642188Y-58087390D01*
X112638500Y-58072584D01*
X112621557Y-58044521D01*
X112606750Y-58040834D01*
X112578688Y-58023890D01*
X112575000Y-58009084D01*
X112558057Y-57981021D01*
X112543250Y-57977334D01*
X112518044Y-57958401D01*
X112511500Y-57913834D01*
X112502034Y-57863420D01*
X112479750Y-57850334D01*
X112461314Y-57840580D01*
X112451416Y-57806005D01*
X112448063Y-57738636D01*
X112448000Y-57723334D01*
X112445562Y-57649590D01*
X112436918Y-57609998D01*
X112420076Y-57596584D01*
X112416250Y-57596334D01*
X112403241Y-57590305D01*
X112394250Y-57568113D01*
X112388592Y-57523596D01*
X112385582Y-57450591D01*
X112384535Y-57342939D01*
X112384500Y-57310584D01*
X112384500Y-57278834D01*
X112702000Y-57278834D01*
X112705213Y-57346481D01*
X112713608Y-57392344D01*
X112723167Y-57405834D01*
X112739800Y-57423781D01*
X112744623Y-57453459D01*
X112752431Y-57526957D01*
X112772328Y-57577869D01*
X112799719Y-57596334D01*
X112825625Y-57613330D01*
X112829000Y-57628084D01*
X112845943Y-57656146D01*
X112860750Y-57659834D01*
X112888812Y-57676777D01*
X112892500Y-57691584D01*
X112904966Y-57712510D01*
X112947351Y-57722043D01*
X112987750Y-57723334D01*
X113050531Y-57719178D01*
X113079127Y-57705050D01*
X113083000Y-57691584D01*
X113099943Y-57663521D01*
X113114750Y-57659834D01*
X113142812Y-57642890D01*
X113146500Y-57628084D01*
X113163443Y-57600021D01*
X113178250Y-57596334D01*
X113193740Y-57588910D01*
X113203388Y-57561815D01*
X113208401Y-57507816D01*
X113209983Y-57419677D01*
X113210000Y-57405834D01*
X113210000Y-57215334D01*
X113083000Y-57215334D01*
X113009257Y-57212895D01*
X112969665Y-57204251D01*
X112956251Y-57187409D01*
X112956000Y-57183584D01*
X112946247Y-57165148D01*
X112911672Y-57155250D01*
X112844302Y-57151896D01*
X112829000Y-57151834D01*
X112702000Y-57151834D01*
X112702000Y-57278834D01*
X112384500Y-57278834D01*
X112384500Y-57024834D01*
X112289250Y-57024834D01*
X112226470Y-57020678D01*
X112197873Y-57006550D01*
X112194000Y-56993084D01*
X112184247Y-56974648D01*
X112149672Y-56964750D01*
X112082302Y-56961396D01*
X112067000Y-56961334D01*
X111993257Y-56958895D01*
X111953665Y-56950251D01*
X111940251Y-56933409D01*
X111940000Y-56929584D01*
X111921068Y-56904377D01*
X111876500Y-56897834D01*
X111813000Y-56897834D01*
X111813000Y-56389834D01*
X111908250Y-56389834D01*
X111971031Y-56393989D01*
G37*
X112635764Y-58422409D02*
X112723589Y-58424529D01*
X112780860Y-58428782D01*
X112813461Y-58435755D01*
X112827276Y-58446038D01*
X112829000Y-58453584D01*
X112847932Y-58478790D01*
X112892500Y-58485334D01*
X112942913Y-58494800D01*
X112956000Y-58517084D01*
X112974932Y-58542290D01*
X113019500Y-58548834D01*
X113069913Y-58558300D01*
X113083000Y-58580584D01*
X113099943Y-58608646D01*
X113114750Y-58612334D01*
X113142812Y-58629277D01*
X113146500Y-58644084D01*
X113163443Y-58672146D01*
X113178250Y-58675834D01*
X113206312Y-58692777D01*
X113210000Y-58707584D01*
X113226943Y-58735646D01*
X113241750Y-58739334D01*
X113269812Y-58756277D01*
X113273500Y-58771084D01*
X113290443Y-58799146D01*
X113305250Y-58802834D01*
X113333312Y-58819777D01*
X113337000Y-58834584D01*
X113347537Y-58862765D01*
X113356485Y-58866334D01*
X113374128Y-58884581D01*
X113389642Y-58928599D01*
X113389917Y-58929834D01*
X113404785Y-58974255D01*
X113421305Y-58993321D01*
X113421667Y-58993334D01*
X113438126Y-59011566D01*
X113453132Y-59055553D01*
X113453417Y-59056834D01*
X113468170Y-59101252D01*
X113484413Y-59120320D01*
X113484770Y-59120334D01*
X113496163Y-59139505D01*
X113508255Y-59189351D01*
X113516917Y-59247334D01*
X113527563Y-59314231D01*
X113540397Y-59360242D01*
X113550745Y-59374334D01*
X113559151Y-59393921D01*
X113565668Y-59446389D01*
X113569351Y-59522295D01*
X113569833Y-59564834D01*
X113567970Y-59648723D01*
X113562977Y-59713764D01*
X113555754Y-59750514D01*
X113551706Y-59755334D01*
X113541094Y-59774700D01*
X113529900Y-59825786D01*
X113520351Y-59898070D01*
X113519401Y-59907886D01*
X113510012Y-59984125D01*
X113498521Y-60042487D01*
X113487271Y-60071348D01*
X113486290Y-60072140D01*
X113467645Y-60099550D01*
X113452800Y-60141837D01*
X113436398Y-60183786D01*
X113419372Y-60199834D01*
X113402619Y-60217011D01*
X113400500Y-60231584D01*
X113383557Y-60259646D01*
X113368750Y-60263334D01*
X113340688Y-60246390D01*
X113337000Y-60231584D01*
X113327247Y-60213148D01*
X113292672Y-60203250D01*
X113225302Y-60199896D01*
X113210000Y-60199834D01*
X113136257Y-60197395D01*
X113096665Y-60188751D01*
X113083251Y-60171909D01*
X113083000Y-60168084D01*
X113064068Y-60142877D01*
X113019500Y-60136334D01*
X112969087Y-60126867D01*
X112956000Y-60104584D01*
X112972943Y-60076521D01*
X112987750Y-60072834D01*
X113015812Y-60055890D01*
X113019500Y-60041084D01*
X113036443Y-60013021D01*
X113051250Y-60009334D01*
X113076457Y-59990401D01*
X113083000Y-59945834D01*
X113092466Y-59895420D01*
X113114750Y-59882334D01*
X113139957Y-59863401D01*
X113146500Y-59818834D01*
X113155966Y-59768420D01*
X113178250Y-59755334D01*
X113193740Y-59747910D01*
X113203388Y-59720815D01*
X113208401Y-59666816D01*
X113209983Y-59578677D01*
X113210000Y-59564834D01*
X113208763Y-59471896D01*
X113204247Y-59414007D01*
X113195247Y-59383931D01*
X113180557Y-59374434D01*
X113178250Y-59374334D01*
X113153044Y-59355401D01*
X113146500Y-59310834D01*
X113137034Y-59260420D01*
X113114750Y-59247334D01*
X113089544Y-59228401D01*
X113083000Y-59183834D01*
X113073534Y-59133420D01*
X113051250Y-59120334D01*
X113023188Y-59103390D01*
X113019500Y-59088584D01*
X113000568Y-59063377D01*
X112956000Y-59056834D01*
X112905587Y-59047367D01*
X112892500Y-59025084D01*
X112873568Y-58999877D01*
X112829000Y-58993334D01*
X112778587Y-58983867D01*
X112765500Y-58961584D01*
X112758686Y-58947085D01*
X112733690Y-58937653D01*
X112683676Y-58932312D01*
X112601811Y-58930085D01*
X112543250Y-58929834D01*
X112441759Y-58930807D01*
X112375736Y-58934378D01*
X112338347Y-58941523D01*
X112322759Y-58953218D01*
X112321000Y-58961584D01*
X112304057Y-58989646D01*
X112289250Y-58993334D01*
X112261188Y-59010277D01*
X112257500Y-59025084D01*
X112241420Y-59053165D01*
X112227432Y-59056834D01*
X112202325Y-59075163D01*
X112183637Y-59119348D01*
X112183417Y-59120334D01*
X112168058Y-59164771D01*
X112150367Y-59183822D01*
X112149985Y-59183834D01*
X112139709Y-59203061D01*
X112132648Y-59253039D01*
X112130500Y-59310834D01*
X112133390Y-59377814D01*
X112140902Y-59423832D01*
X112149589Y-59437834D01*
X112161869Y-59457010D01*
X112174571Y-59506866D01*
X112183417Y-59564834D01*
X112196754Y-59644459D01*
X112214231Y-59684980D01*
X112227828Y-59691834D01*
X112250810Y-59710911D01*
X112257500Y-59755334D01*
X112266966Y-59805747D01*
X112289250Y-59818834D01*
X112317312Y-59835777D01*
X112321000Y-59850584D01*
X112332430Y-59878751D01*
X112342167Y-59882334D01*
X112360945Y-59899478D01*
X112363333Y-59914084D01*
X112354620Y-59931334D01*
X112323288Y-59941207D01*
X112261553Y-59945371D01*
X112215167Y-59945834D01*
X112134665Y-59943966D01*
X112088592Y-59937252D01*
X112069160Y-59924023D01*
X112067000Y-59914084D01*
X112048068Y-59888877D01*
X112003500Y-59882334D01*
X111958523Y-59877089D01*
X111941946Y-59852349D01*
X111940000Y-59818834D01*
X111930534Y-59768420D01*
X111908250Y-59755334D01*
X111887323Y-59742868D01*
X111877791Y-59700483D01*
X111876500Y-59660084D01*
X111872345Y-59597303D01*
X111858217Y-59568706D01*
X111844750Y-59564834D01*
X111832831Y-59559293D01*
X111824246Y-59538913D01*
X111818484Y-59498054D01*
X111815032Y-59431077D01*
X111813377Y-59332344D01*
X111813000Y-59215584D01*
X111813504Y-59084468D01*
X111815357Y-58990038D01*
X111819071Y-58926656D01*
X111825160Y-58888682D01*
X111834136Y-58870478D01*
X111844750Y-58866334D01*
X111869957Y-58847401D01*
X111876500Y-58802834D01*
X111885966Y-58752420D01*
X111908250Y-58739334D01*
X111933457Y-58720401D01*
X111940000Y-58675834D01*
X111949466Y-58625420D01*
X111971750Y-58612334D01*
X111999812Y-58595390D01*
X112003500Y-58580584D01*
X112020443Y-58552521D01*
X112035250Y-58548834D01*
X112063312Y-58531890D01*
X112067000Y-58517084D01*
X112085932Y-58491877D01*
X112130500Y-58485334D01*
X112180913Y-58475867D01*
X112194000Y-58453584D01*
X112199759Y-58441157D01*
X112220959Y-58432375D01*
X112263484Y-58426648D01*
X112333218Y-58423387D01*
X112436046Y-58422006D01*
X112511500Y-58421834D01*
X112635764Y-58422409D01*
G36*
X112635764Y-58422409D02*
G01*
X112723589Y-58424529D01*
X112780860Y-58428782D01*
X112813461Y-58435755D01*
X112827276Y-58446038D01*
X112829000Y-58453584D01*
X112847932Y-58478790D01*
X112892500Y-58485334D01*
X112942913Y-58494800D01*
X112956000Y-58517084D01*
X112974932Y-58542290D01*
X113019500Y-58548834D01*
X113069913Y-58558300D01*
X113083000Y-58580584D01*
X113099943Y-58608646D01*
X113114750Y-58612334D01*
X113142812Y-58629277D01*
X113146500Y-58644084D01*
X113163443Y-58672146D01*
X113178250Y-58675834D01*
X113206312Y-58692777D01*
X113210000Y-58707584D01*
X113226943Y-58735646D01*
X113241750Y-58739334D01*
X113269812Y-58756277D01*
X113273500Y-58771084D01*
X113290443Y-58799146D01*
X113305250Y-58802834D01*
X113333312Y-58819777D01*
X113337000Y-58834584D01*
X113347537Y-58862765D01*
X113356485Y-58866334D01*
X113374128Y-58884581D01*
X113389642Y-58928599D01*
X113389917Y-58929834D01*
X113404785Y-58974255D01*
X113421305Y-58993321D01*
X113421667Y-58993334D01*
X113438126Y-59011566D01*
X113453132Y-59055553D01*
X113453417Y-59056834D01*
X113468170Y-59101252D01*
X113484413Y-59120320D01*
X113484770Y-59120334D01*
X113496163Y-59139505D01*
X113508255Y-59189351D01*
X113516917Y-59247334D01*
X113527563Y-59314231D01*
X113540397Y-59360242D01*
X113550745Y-59374334D01*
X113559151Y-59393921D01*
X113565668Y-59446389D01*
X113569351Y-59522295D01*
X113569833Y-59564834D01*
X113567970Y-59648723D01*
X113562977Y-59713764D01*
X113555754Y-59750514D01*
X113551706Y-59755334D01*
X113541094Y-59774700D01*
X113529900Y-59825786D01*
X113520351Y-59898070D01*
X113519401Y-59907886D01*
X113510012Y-59984125D01*
X113498521Y-60042487D01*
X113487271Y-60071348D01*
X113486290Y-60072140D01*
X113467645Y-60099550D01*
X113452800Y-60141837D01*
X113436398Y-60183786D01*
X113419372Y-60199834D01*
X113402619Y-60217011D01*
X113400500Y-60231584D01*
X113383557Y-60259646D01*
X113368750Y-60263334D01*
X113340688Y-60246390D01*
X113337000Y-60231584D01*
X113327247Y-60213148D01*
X113292672Y-60203250D01*
X113225302Y-60199896D01*
X113210000Y-60199834D01*
X113136257Y-60197395D01*
X113096665Y-60188751D01*
X113083251Y-60171909D01*
X113083000Y-60168084D01*
X113064068Y-60142877D01*
X113019500Y-60136334D01*
X112969087Y-60126867D01*
X112956000Y-60104584D01*
X112972943Y-60076521D01*
X112987750Y-60072834D01*
X113015812Y-60055890D01*
X113019500Y-60041084D01*
X113036443Y-60013021D01*
X113051250Y-60009334D01*
X113076457Y-59990401D01*
X113083000Y-59945834D01*
X113092466Y-59895420D01*
X113114750Y-59882334D01*
X113139957Y-59863401D01*
X113146500Y-59818834D01*
X113155966Y-59768420D01*
X113178250Y-59755334D01*
X113193740Y-59747910D01*
X113203388Y-59720815D01*
X113208401Y-59666816D01*
X113209983Y-59578677D01*
X113210000Y-59564834D01*
X113208763Y-59471896D01*
X113204247Y-59414007D01*
X113195247Y-59383931D01*
X113180557Y-59374434D01*
X113178250Y-59374334D01*
X113153044Y-59355401D01*
X113146500Y-59310834D01*
X113137034Y-59260420D01*
X113114750Y-59247334D01*
X113089544Y-59228401D01*
X113083000Y-59183834D01*
X113073534Y-59133420D01*
X113051250Y-59120334D01*
X113023188Y-59103390D01*
X113019500Y-59088584D01*
X113000568Y-59063377D01*
X112956000Y-59056834D01*
X112905587Y-59047367D01*
X112892500Y-59025084D01*
X112873568Y-58999877D01*
X112829000Y-58993334D01*
X112778587Y-58983867D01*
X112765500Y-58961584D01*
X112758686Y-58947085D01*
X112733690Y-58937653D01*
X112683676Y-58932312D01*
X112601811Y-58930085D01*
X112543250Y-58929834D01*
X112441759Y-58930807D01*
X112375736Y-58934378D01*
X112338347Y-58941523D01*
X112322759Y-58953218D01*
X112321000Y-58961584D01*
X112304057Y-58989646D01*
X112289250Y-58993334D01*
X112261188Y-59010277D01*
X112257500Y-59025084D01*
X112241420Y-59053165D01*
X112227432Y-59056834D01*
X112202325Y-59075163D01*
X112183637Y-59119348D01*
X112183417Y-59120334D01*
X112168058Y-59164771D01*
X112150367Y-59183822D01*
X112149985Y-59183834D01*
X112139709Y-59203061D01*
X112132648Y-59253039D01*
X112130500Y-59310834D01*
X112133390Y-59377814D01*
X112140902Y-59423832D01*
X112149589Y-59437834D01*
X112161869Y-59457010D01*
X112174571Y-59506866D01*
X112183417Y-59564834D01*
X112196754Y-59644459D01*
X112214231Y-59684980D01*
X112227828Y-59691834D01*
X112250810Y-59710911D01*
X112257500Y-59755334D01*
X112266966Y-59805747D01*
X112289250Y-59818834D01*
X112317312Y-59835777D01*
X112321000Y-59850584D01*
X112332430Y-59878751D01*
X112342167Y-59882334D01*
X112360945Y-59899478D01*
X112363333Y-59914084D01*
X112354620Y-59931334D01*
X112323288Y-59941207D01*
X112261553Y-59945371D01*
X112215167Y-59945834D01*
X112134665Y-59943966D01*
X112088592Y-59937252D01*
X112069160Y-59924023D01*
X112067000Y-59914084D01*
X112048068Y-59888877D01*
X112003500Y-59882334D01*
X111958523Y-59877089D01*
X111941946Y-59852349D01*
X111940000Y-59818834D01*
X111930534Y-59768420D01*
X111908250Y-59755334D01*
X111887323Y-59742868D01*
X111877791Y-59700483D01*
X111876500Y-59660084D01*
X111872345Y-59597303D01*
X111858217Y-59568706D01*
X111844750Y-59564834D01*
X111832831Y-59559293D01*
X111824246Y-59538913D01*
X111818484Y-59498054D01*
X111815032Y-59431077D01*
X111813377Y-59332344D01*
X111813000Y-59215584D01*
X111813504Y-59084468D01*
X111815357Y-58990038D01*
X111819071Y-58926656D01*
X111825160Y-58888682D01*
X111834136Y-58870478D01*
X111844750Y-58866334D01*
X111869957Y-58847401D01*
X111876500Y-58802834D01*
X111885966Y-58752420D01*
X111908250Y-58739334D01*
X111933457Y-58720401D01*
X111940000Y-58675834D01*
X111949466Y-58625420D01*
X111971750Y-58612334D01*
X111999812Y-58595390D01*
X112003500Y-58580584D01*
X112020443Y-58552521D01*
X112035250Y-58548834D01*
X112063312Y-58531890D01*
X112067000Y-58517084D01*
X112085932Y-58491877D01*
X112130500Y-58485334D01*
X112180913Y-58475867D01*
X112194000Y-58453584D01*
X112199759Y-58441157D01*
X112220959Y-58432375D01*
X112263484Y-58426648D01*
X112333218Y-58423387D01*
X112436046Y-58422006D01*
X112511500Y-58421834D01*
X112635764Y-58422409D01*
G37*
X111971031Y-60267489D02*
X111999627Y-60281617D01*
X112003500Y-60295084D01*
X112013254Y-60313519D01*
X112047829Y-60323417D01*
X112115198Y-60326771D01*
X112130500Y-60326834D01*
X112204243Y-60329272D01*
X112216045Y-60331848D01*
X112243836Y-60337916D01*
X112257250Y-60354758D01*
X112257500Y-60358584D01*
X112267254Y-60377019D01*
X112301829Y-60386917D01*
X112369198Y-60390271D01*
X112384500Y-60390334D01*
X112458243Y-60392772D01*
X112497836Y-60401416D01*
X112511250Y-60418258D01*
X112511500Y-60422084D01*
X112521254Y-60440519D01*
X112555829Y-60450417D01*
X112623198Y-60453771D01*
X112638500Y-60453834D01*
X112712243Y-60456272D01*
X112751836Y-60464916D01*
X112765250Y-60481758D01*
X112765500Y-60485584D01*
X112775254Y-60504019D01*
X112809829Y-60513917D01*
X112877198Y-60517271D01*
X112892500Y-60517334D01*
X112964474Y-60519713D01*
X112966243Y-60519772D01*
X113005836Y-60528416D01*
X113019250Y-60545258D01*
X113019500Y-60549084D01*
X113029254Y-60567519D01*
X113063829Y-60577417D01*
X113131198Y-60580771D01*
X113146500Y-60580834D01*
X113220243Y-60583272D01*
X113259836Y-60591916D01*
X113273250Y-60608758D01*
X113273500Y-60612584D01*
X113284023Y-60631800D01*
X113320908Y-60641651D01*
X113388958Y-60644334D01*
X113455397Y-60645510D01*
X113491219Y-60653444D01*
X113508136Y-60674746D01*
X113517864Y-60716024D01*
X113518082Y-60717183D01*
X113523269Y-60767859D01*
X113526442Y-60848381D01*
X113527775Y-60951497D01*
X113527446Y-61069954D01*
X113525631Y-61196499D01*
X113522505Y-61323881D01*
X113518245Y-61444846D01*
X113513027Y-61552143D01*
X113507028Y-61638519D01*
X113500423Y-61696722D01*
X113493732Y-61719324D01*
X113475907Y-61748364D01*
X113460292Y-61801894D01*
X113457189Y-61818917D01*
X113443880Y-61873839D01*
X113427076Y-61907171D01*
X113422166Y-61910639D01*
X113402371Y-61935067D01*
X113400500Y-61947847D01*
X113383518Y-61974370D01*
X113368750Y-61977834D01*
X113340688Y-61994777D01*
X113337000Y-62009584D01*
X113318068Y-62034790D01*
X113273500Y-62041334D01*
X113223087Y-62050800D01*
X113210000Y-62073084D01*
X113191068Y-62098290D01*
X113146500Y-62104834D01*
X113096087Y-62095367D01*
X113083000Y-62073084D01*
X113070535Y-62052157D01*
X113028149Y-62042624D01*
X112987750Y-62041334D01*
X112924970Y-62037178D01*
X112896373Y-62023050D01*
X112892500Y-62009584D01*
X112875557Y-61981521D01*
X112860750Y-61977834D01*
X112835544Y-61958901D01*
X112829000Y-61914334D01*
X112819534Y-61863920D01*
X112797250Y-61850834D01*
X112769188Y-61833890D01*
X112765500Y-61819084D01*
X112748557Y-61791021D01*
X112733750Y-61787334D01*
X112705688Y-61804277D01*
X112702000Y-61819084D01*
X112685057Y-61847146D01*
X112670250Y-61850834D01*
X112642188Y-61867777D01*
X112638500Y-61882584D01*
X112621557Y-61910646D01*
X112606750Y-61914334D01*
X112578688Y-61931277D01*
X112575000Y-61946084D01*
X112556068Y-61971290D01*
X112511500Y-61977834D01*
X112461087Y-61987300D01*
X112448000Y-62009584D01*
X112431057Y-62037646D01*
X112416250Y-62041334D01*
X112388188Y-62024390D01*
X112384500Y-62009584D01*
X112372035Y-61988657D01*
X112329649Y-61979124D01*
X112289250Y-61977834D01*
X112226470Y-61973678D01*
X112197873Y-61959550D01*
X112194000Y-61946084D01*
X112175068Y-61920877D01*
X112130500Y-61914334D01*
X112080087Y-61904867D01*
X112067000Y-61882584D01*
X112050057Y-61854521D01*
X112035250Y-61850834D01*
X112010044Y-61831901D01*
X112003500Y-61787334D01*
X111994034Y-61736920D01*
X111971750Y-61723834D01*
X111946544Y-61704901D01*
X111940000Y-61660334D01*
X111930534Y-61609920D01*
X111908250Y-61596834D01*
X111889814Y-61587080D01*
X111879916Y-61552505D01*
X111876563Y-61485136D01*
X111876500Y-61469834D01*
X111874062Y-61396090D01*
X111865418Y-61356498D01*
X111848576Y-61343084D01*
X111844750Y-61342834D01*
X111834920Y-61338061D01*
X111827308Y-61320674D01*
X111821645Y-61286064D01*
X111817659Y-61229624D01*
X111815078Y-61146749D01*
X111813633Y-61032829D01*
X111813467Y-60990182D01*
X112177190Y-60990182D01*
X112178053Y-61075446D01*
X112181920Y-61163625D01*
X112188287Y-61243849D01*
X112196648Y-61305247D01*
X112206497Y-61336951D01*
X112208197Y-61338553D01*
X112231345Y-61368993D01*
X112247533Y-61411837D01*
X112258589Y-61444293D01*
X112278419Y-61461641D01*
X112318320Y-61468586D01*
X112386795Y-61469834D01*
X112511500Y-61469834D01*
X112511500Y-61374584D01*
X112515655Y-61311803D01*
X112529784Y-61283206D01*
X112543250Y-61279334D01*
X112559997Y-61271018D01*
X112569828Y-61240966D01*
X112571146Y-61223347D01*
X112874263Y-61223347D01*
X112879430Y-61323820D01*
X112884794Y-61371629D01*
X112899845Y-61437966D01*
X112920913Y-61468414D01*
X112927127Y-61469834D01*
X112952676Y-61486838D01*
X112956000Y-61501584D01*
X112968466Y-61522510D01*
X113010851Y-61532043D01*
X113051250Y-61533334D01*
X113114031Y-61529178D01*
X113142627Y-61515050D01*
X113146500Y-61501584D01*
X113163443Y-61473521D01*
X113178250Y-61469834D01*
X113193740Y-61462410D01*
X113203388Y-61435315D01*
X113208401Y-61381316D01*
X113209983Y-61293177D01*
X113210000Y-61279334D01*
X113210000Y-61088834D01*
X113114750Y-61088834D01*
X113051970Y-61084678D01*
X113023373Y-61070550D01*
X113019500Y-61057084D01*
X113002899Y-61032529D01*
X112964474Y-61024017D01*
X112921296Y-61030871D01*
X112890432Y-61052414D01*
X112885924Y-61062375D01*
X112876448Y-61130521D01*
X112874263Y-61223347D01*
X112571146Y-61223347D01*
X112574273Y-61181524D01*
X112575000Y-61120584D01*
X112573337Y-61036847D01*
X112567327Y-60987695D01*
X112555438Y-60965471D01*
X112543250Y-60961834D01*
X112515188Y-60944890D01*
X112511500Y-60930084D01*
X112501747Y-60911648D01*
X112467172Y-60901750D01*
X112399802Y-60898396D01*
X112384500Y-60898334D01*
X112310757Y-60895895D01*
X112271165Y-60887251D01*
X112257751Y-60870409D01*
X112257500Y-60866584D01*
X112244200Y-60839433D01*
X112216045Y-60838126D01*
X112190658Y-60861350D01*
X112186500Y-60871875D01*
X112179837Y-60918701D01*
X112177190Y-60990182D01*
X111813467Y-60990182D01*
X111813052Y-60883260D01*
X111813000Y-60803084D01*
X111813000Y-60263334D01*
X111908250Y-60263334D01*
X111971031Y-60267489D01*
G36*
X111971031Y-60267489D02*
G01*
X111999627Y-60281617D01*
X112003500Y-60295084D01*
X112013254Y-60313519D01*
X112047829Y-60323417D01*
X112115198Y-60326771D01*
X112130500Y-60326834D01*
X112204243Y-60329272D01*
X112216045Y-60331848D01*
X112243836Y-60337916D01*
X112257250Y-60354758D01*
X112257500Y-60358584D01*
X112267254Y-60377019D01*
X112301829Y-60386917D01*
X112369198Y-60390271D01*
X112384500Y-60390334D01*
X112458243Y-60392772D01*
X112497836Y-60401416D01*
X112511250Y-60418258D01*
X112511500Y-60422084D01*
X112521254Y-60440519D01*
X112555829Y-60450417D01*
X112623198Y-60453771D01*
X112638500Y-60453834D01*
X112712243Y-60456272D01*
X112751836Y-60464916D01*
X112765250Y-60481758D01*
X112765500Y-60485584D01*
X112775254Y-60504019D01*
X112809829Y-60513917D01*
X112877198Y-60517271D01*
X112892500Y-60517334D01*
X112964474Y-60519713D01*
X112966243Y-60519772D01*
X113005836Y-60528416D01*
X113019250Y-60545258D01*
X113019500Y-60549084D01*
X113029254Y-60567519D01*
X113063829Y-60577417D01*
X113131198Y-60580771D01*
X113146500Y-60580834D01*
X113220243Y-60583272D01*
X113259836Y-60591916D01*
X113273250Y-60608758D01*
X113273500Y-60612584D01*
X113284023Y-60631800D01*
X113320908Y-60641651D01*
X113388958Y-60644334D01*
X113455397Y-60645510D01*
X113491219Y-60653444D01*
X113508136Y-60674746D01*
X113517864Y-60716024D01*
X113518082Y-60717183D01*
X113523269Y-60767859D01*
X113526442Y-60848381D01*
X113527775Y-60951497D01*
X113527446Y-61069954D01*
X113525631Y-61196499D01*
X113522505Y-61323881D01*
X113518245Y-61444846D01*
X113513027Y-61552143D01*
X113507028Y-61638519D01*
X113500423Y-61696722D01*
X113493732Y-61719324D01*
X113475907Y-61748364D01*
X113460292Y-61801894D01*
X113457189Y-61818917D01*
X113443880Y-61873839D01*
X113427076Y-61907171D01*
X113422166Y-61910639D01*
X113402371Y-61935067D01*
X113400500Y-61947847D01*
X113383518Y-61974370D01*
X113368750Y-61977834D01*
X113340688Y-61994777D01*
X113337000Y-62009584D01*
X113318068Y-62034790D01*
X113273500Y-62041334D01*
X113223087Y-62050800D01*
X113210000Y-62073084D01*
X113191068Y-62098290D01*
X113146500Y-62104834D01*
X113096087Y-62095367D01*
X113083000Y-62073084D01*
X113070535Y-62052157D01*
X113028149Y-62042624D01*
X112987750Y-62041334D01*
X112924970Y-62037178D01*
X112896373Y-62023050D01*
X112892500Y-62009584D01*
X112875557Y-61981521D01*
X112860750Y-61977834D01*
X112835544Y-61958901D01*
X112829000Y-61914334D01*
X112819534Y-61863920D01*
X112797250Y-61850834D01*
X112769188Y-61833890D01*
X112765500Y-61819084D01*
X112748557Y-61791021D01*
X112733750Y-61787334D01*
X112705688Y-61804277D01*
X112702000Y-61819084D01*
X112685057Y-61847146D01*
X112670250Y-61850834D01*
X112642188Y-61867777D01*
X112638500Y-61882584D01*
X112621557Y-61910646D01*
X112606750Y-61914334D01*
X112578688Y-61931277D01*
X112575000Y-61946084D01*
X112556068Y-61971290D01*
X112511500Y-61977834D01*
X112461087Y-61987300D01*
X112448000Y-62009584D01*
X112431057Y-62037646D01*
X112416250Y-62041334D01*
X112388188Y-62024390D01*
X112384500Y-62009584D01*
X112372035Y-61988657D01*
X112329649Y-61979124D01*
X112289250Y-61977834D01*
X112226470Y-61973678D01*
X112197873Y-61959550D01*
X112194000Y-61946084D01*
X112175068Y-61920877D01*
X112130500Y-61914334D01*
X112080087Y-61904867D01*
X112067000Y-61882584D01*
X112050057Y-61854521D01*
X112035250Y-61850834D01*
X112010044Y-61831901D01*
X112003500Y-61787334D01*
X111994034Y-61736920D01*
X111971750Y-61723834D01*
X111946544Y-61704901D01*
X111940000Y-61660334D01*
X111930534Y-61609920D01*
X111908250Y-61596834D01*
X111889814Y-61587080D01*
X111879916Y-61552505D01*
X111876563Y-61485136D01*
X111876500Y-61469834D01*
X111874062Y-61396090D01*
X111865418Y-61356498D01*
X111848576Y-61343084D01*
X111844750Y-61342834D01*
X111834920Y-61338061D01*
X111827308Y-61320674D01*
X111821645Y-61286064D01*
X111817659Y-61229624D01*
X111815078Y-61146749D01*
X111813633Y-61032829D01*
X111813467Y-60990182D01*
X112177190Y-60990182D01*
X112178053Y-61075446D01*
X112181920Y-61163625D01*
X112188287Y-61243849D01*
X112196648Y-61305247D01*
X112206497Y-61336951D01*
X112208197Y-61338553D01*
X112231345Y-61368993D01*
X112247533Y-61411837D01*
X112258589Y-61444293D01*
X112278419Y-61461641D01*
X112318320Y-61468586D01*
X112386795Y-61469834D01*
X112511500Y-61469834D01*
X112511500Y-61374584D01*
X112515655Y-61311803D01*
X112529784Y-61283206D01*
X112543250Y-61279334D01*
X112559997Y-61271018D01*
X112569828Y-61240966D01*
X112571146Y-61223347D01*
X112874263Y-61223347D01*
X112879430Y-61323820D01*
X112884794Y-61371629D01*
X112899845Y-61437966D01*
X112920913Y-61468414D01*
X112927127Y-61469834D01*
X112952676Y-61486838D01*
X112956000Y-61501584D01*
X112968466Y-61522510D01*
X113010851Y-61532043D01*
X113051250Y-61533334D01*
X113114031Y-61529178D01*
X113142627Y-61515050D01*
X113146500Y-61501584D01*
X113163443Y-61473521D01*
X113178250Y-61469834D01*
X113193740Y-61462410D01*
X113203388Y-61435315D01*
X113208401Y-61381316D01*
X113209983Y-61293177D01*
X113210000Y-61279334D01*
X113210000Y-61088834D01*
X113114750Y-61088834D01*
X113051970Y-61084678D01*
X113023373Y-61070550D01*
X113019500Y-61057084D01*
X113002899Y-61032529D01*
X112964474Y-61024017D01*
X112921296Y-61030871D01*
X112890432Y-61052414D01*
X112885924Y-61062375D01*
X112876448Y-61130521D01*
X112874263Y-61223347D01*
X112571146Y-61223347D01*
X112574273Y-61181524D01*
X112575000Y-61120584D01*
X112573337Y-61036847D01*
X112567327Y-60987695D01*
X112555438Y-60965471D01*
X112543250Y-60961834D01*
X112515188Y-60944890D01*
X112511500Y-60930084D01*
X112501747Y-60911648D01*
X112467172Y-60901750D01*
X112399802Y-60898396D01*
X112384500Y-60898334D01*
X112310757Y-60895895D01*
X112271165Y-60887251D01*
X112257751Y-60870409D01*
X112257500Y-60866584D01*
X112244200Y-60839433D01*
X112216045Y-60838126D01*
X112190658Y-60861350D01*
X112186500Y-60871875D01*
X112179837Y-60918701D01*
X112177190Y-60990182D01*
X111813467Y-60990182D01*
X111813052Y-60883260D01*
X111813000Y-60803084D01*
X111813000Y-60263334D01*
X111908250Y-60263334D01*
X111971031Y-60267489D01*
G37*
X112596829Y-54549003D02*
X112677751Y-54551469D01*
X112728676Y-54556415D01*
X112755767Y-54564527D01*
X112765185Y-54576488D01*
X112765500Y-54580084D01*
X112777966Y-54601010D01*
X112820351Y-54610543D01*
X112860750Y-54611834D01*
X112923531Y-54615989D01*
X112952127Y-54630117D01*
X112956000Y-54643584D01*
X112972943Y-54671646D01*
X112987750Y-54675334D01*
X113015812Y-54692277D01*
X113019500Y-54707084D01*
X113038432Y-54732290D01*
X113083000Y-54738834D01*
X113133413Y-54748300D01*
X113146500Y-54770584D01*
X113163443Y-54798646D01*
X113178250Y-54802334D01*
X113206312Y-54819277D01*
X113210000Y-54834084D01*
X113226943Y-54862146D01*
X113241750Y-54865834D01*
X113269812Y-54882777D01*
X113273500Y-54897584D01*
X113284037Y-54925765D01*
X113292985Y-54929334D01*
X113310628Y-54947581D01*
X113326142Y-54991599D01*
X113326417Y-54992834D01*
X113344874Y-55037354D01*
X113369964Y-55056326D01*
X113370432Y-55056334D01*
X113397416Y-55073130D01*
X113400500Y-55086320D01*
X113413910Y-55118193D01*
X113423032Y-55123816D01*
X113439489Y-55147595D01*
X113453863Y-55198281D01*
X113457569Y-55220830D01*
X113468330Y-55275541D01*
X113481182Y-55307194D01*
X113485876Y-55310334D01*
X113496686Y-55329502D01*
X113508376Y-55379340D01*
X113516917Y-55437334D01*
X113527563Y-55504231D01*
X113540397Y-55550242D01*
X113550745Y-55564334D01*
X113559151Y-55583921D01*
X113565668Y-55636389D01*
X113569351Y-55712295D01*
X113569833Y-55754834D01*
X113567871Y-55838722D01*
X113562613Y-55903763D01*
X113555008Y-55940514D01*
X113550745Y-55945334D01*
X113538465Y-55964510D01*
X113525763Y-56014366D01*
X113516917Y-56072334D01*
X113506270Y-56139231D01*
X113493437Y-56185242D01*
X113483089Y-56199334D01*
X113468073Y-56217295D01*
X113463711Y-56246959D01*
X113457349Y-56324516D01*
X113435459Y-56368730D01*
X113392072Y-56387497D01*
X113355698Y-56389834D01*
X113297761Y-56384268D01*
X113274605Y-56365958D01*
X113273500Y-56358084D01*
X113261035Y-56337157D01*
X113218649Y-56327624D01*
X113178250Y-56326334D01*
X113115470Y-56322178D01*
X113086873Y-56308050D01*
X113083000Y-56294584D01*
X113066057Y-56266521D01*
X113051250Y-56262834D01*
X113026044Y-56243901D01*
X113019500Y-56199334D01*
X113028966Y-56148920D01*
X113051250Y-56135834D01*
X113079312Y-56118890D01*
X113083000Y-56104084D01*
X113099943Y-56076021D01*
X113114750Y-56072334D01*
X113139957Y-56053401D01*
X113146500Y-56008834D01*
X113155966Y-55958420D01*
X113178250Y-55945334D01*
X113192749Y-55938520D01*
X113202181Y-55913523D01*
X113207522Y-55863509D01*
X113209749Y-55781644D01*
X113210000Y-55723084D01*
X113209027Y-55621592D01*
X113205456Y-55555569D01*
X113198311Y-55518180D01*
X113186616Y-55502593D01*
X113178250Y-55500834D01*
X113153044Y-55481901D01*
X113146500Y-55437334D01*
X113137034Y-55386920D01*
X113114750Y-55373834D01*
X113086688Y-55356890D01*
X113083000Y-55342084D01*
X113066057Y-55314021D01*
X113051250Y-55310334D01*
X113023188Y-55293390D01*
X113019500Y-55278584D01*
X113002557Y-55250521D01*
X112987750Y-55246834D01*
X112959688Y-55229890D01*
X112956000Y-55215084D01*
X112939057Y-55187021D01*
X112924250Y-55183334D01*
X112896188Y-55166390D01*
X112892500Y-55151584D01*
X112882747Y-55133148D01*
X112848172Y-55123250D01*
X112780802Y-55119896D01*
X112765500Y-55119834D01*
X112691757Y-55117395D01*
X112652165Y-55108751D01*
X112638751Y-55091909D01*
X112638500Y-55088084D01*
X112628747Y-55069648D01*
X112594172Y-55059750D01*
X112526802Y-55056396D01*
X112511500Y-55056334D01*
X112437757Y-55058772D01*
X112398165Y-55067416D01*
X112384751Y-55084258D01*
X112384500Y-55088084D01*
X112365568Y-55113290D01*
X112321000Y-55119834D01*
X112270587Y-55129300D01*
X112257500Y-55151584D01*
X112241420Y-55179665D01*
X112227432Y-55183334D01*
X112202325Y-55201663D01*
X112183637Y-55245848D01*
X112183417Y-55246834D01*
X112168058Y-55291271D01*
X112150367Y-55310322D01*
X112149985Y-55310334D01*
X112139709Y-55329561D01*
X112132648Y-55379539D01*
X112130500Y-55437334D01*
X112133390Y-55504314D01*
X112140902Y-55550332D01*
X112149589Y-55564334D01*
X112161869Y-55583510D01*
X112174571Y-55633366D01*
X112183417Y-55691334D01*
X112193808Y-55758223D01*
X112205980Y-55804234D01*
X112215563Y-55818334D01*
X112231743Y-55836562D01*
X112246630Y-55880542D01*
X112246917Y-55881834D01*
X112265374Y-55926354D01*
X112290464Y-55945326D01*
X112290932Y-55945334D01*
X112317526Y-55962313D01*
X112321000Y-55977084D01*
X112332430Y-56005251D01*
X112342167Y-56008834D01*
X112360945Y-56025978D01*
X112363333Y-56040584D01*
X112351904Y-56068751D01*
X112342167Y-56072334D01*
X112323388Y-56089478D01*
X112321000Y-56104084D01*
X112304057Y-56132146D01*
X112289250Y-56135834D01*
X112261188Y-56118890D01*
X112257500Y-56104084D01*
X112245035Y-56083157D01*
X112202649Y-56073624D01*
X112162250Y-56072334D01*
X112099470Y-56068178D01*
X112070873Y-56054050D01*
X112067000Y-56040584D01*
X112048068Y-56015377D01*
X112003500Y-56008834D01*
X111953087Y-55999367D01*
X111940000Y-55977084D01*
X111923057Y-55949021D01*
X111908250Y-55945334D01*
X111887323Y-55932868D01*
X111877791Y-55890483D01*
X111876500Y-55850084D01*
X111872345Y-55787303D01*
X111858217Y-55758706D01*
X111844750Y-55754834D01*
X111833277Y-55749475D01*
X111824879Y-55729785D01*
X111819106Y-55690343D01*
X111815504Y-55625729D01*
X111813623Y-55530523D01*
X111813011Y-55399304D01*
X111813000Y-55373834D01*
X111813447Y-55236156D01*
X111815088Y-55135385D01*
X111818374Y-55066100D01*
X111823759Y-55022881D01*
X111831693Y-55000307D01*
X111842628Y-54992959D01*
X111844750Y-54992834D01*
X111869957Y-54973901D01*
X111876500Y-54929334D01*
X111885966Y-54878920D01*
X111908250Y-54865834D01*
X111933457Y-54846901D01*
X111940000Y-54802334D01*
X111949466Y-54751920D01*
X111971750Y-54738834D01*
X111999812Y-54721890D01*
X112003500Y-54707084D01*
X112020443Y-54679021D01*
X112035250Y-54675334D01*
X112063312Y-54658390D01*
X112067000Y-54643584D01*
X112085932Y-54618377D01*
X112130500Y-54611834D01*
X112180913Y-54602367D01*
X112194000Y-54580084D01*
X112200028Y-54567075D01*
X112222221Y-54558083D01*
X112266738Y-54552425D01*
X112339742Y-54549415D01*
X112447395Y-54548369D01*
X112479750Y-54548334D01*
X112596829Y-54549003D01*
G36*
X112596829Y-54549003D02*
G01*
X112677751Y-54551469D01*
X112728676Y-54556415D01*
X112755767Y-54564527D01*
X112765185Y-54576488D01*
X112765500Y-54580084D01*
X112777966Y-54601010D01*
X112820351Y-54610543D01*
X112860750Y-54611834D01*
X112923531Y-54615989D01*
X112952127Y-54630117D01*
X112956000Y-54643584D01*
X112972943Y-54671646D01*
X112987750Y-54675334D01*
X113015812Y-54692277D01*
X113019500Y-54707084D01*
X113038432Y-54732290D01*
X113083000Y-54738834D01*
X113133413Y-54748300D01*
X113146500Y-54770584D01*
X113163443Y-54798646D01*
X113178250Y-54802334D01*
X113206312Y-54819277D01*
X113210000Y-54834084D01*
X113226943Y-54862146D01*
X113241750Y-54865834D01*
X113269812Y-54882777D01*
X113273500Y-54897584D01*
X113284037Y-54925765D01*
X113292985Y-54929334D01*
X113310628Y-54947581D01*
X113326142Y-54991599D01*
X113326417Y-54992834D01*
X113344874Y-55037354D01*
X113369964Y-55056326D01*
X113370432Y-55056334D01*
X113397416Y-55073130D01*
X113400500Y-55086320D01*
X113413910Y-55118193D01*
X113423032Y-55123816D01*
X113439489Y-55147595D01*
X113453863Y-55198281D01*
X113457569Y-55220830D01*
X113468330Y-55275541D01*
X113481182Y-55307194D01*
X113485876Y-55310334D01*
X113496686Y-55329502D01*
X113508376Y-55379340D01*
X113516917Y-55437334D01*
X113527563Y-55504231D01*
X113540397Y-55550242D01*
X113550745Y-55564334D01*
X113559151Y-55583921D01*
X113565668Y-55636389D01*
X113569351Y-55712295D01*
X113569833Y-55754834D01*
X113567871Y-55838722D01*
X113562613Y-55903763D01*
X113555008Y-55940514D01*
X113550745Y-55945334D01*
X113538465Y-55964510D01*
X113525763Y-56014366D01*
X113516917Y-56072334D01*
X113506270Y-56139231D01*
X113493437Y-56185242D01*
X113483089Y-56199334D01*
X113468073Y-56217295D01*
X113463711Y-56246959D01*
X113457349Y-56324516D01*
X113435459Y-56368730D01*
X113392072Y-56387497D01*
X113355698Y-56389834D01*
X113297761Y-56384268D01*
X113274605Y-56365958D01*
X113273500Y-56358084D01*
X113261035Y-56337157D01*
X113218649Y-56327624D01*
X113178250Y-56326334D01*
X113115470Y-56322178D01*
X113086873Y-56308050D01*
X113083000Y-56294584D01*
X113066057Y-56266521D01*
X113051250Y-56262834D01*
X113026044Y-56243901D01*
X113019500Y-56199334D01*
X113028966Y-56148920D01*
X113051250Y-56135834D01*
X113079312Y-56118890D01*
X113083000Y-56104084D01*
X113099943Y-56076021D01*
X113114750Y-56072334D01*
X113139957Y-56053401D01*
X113146500Y-56008834D01*
X113155966Y-55958420D01*
X113178250Y-55945334D01*
X113192749Y-55938520D01*
X113202181Y-55913523D01*
X113207522Y-55863509D01*
X113209749Y-55781644D01*
X113210000Y-55723084D01*
X113209027Y-55621592D01*
X113205456Y-55555569D01*
X113198311Y-55518180D01*
X113186616Y-55502593D01*
X113178250Y-55500834D01*
X113153044Y-55481901D01*
X113146500Y-55437334D01*
X113137034Y-55386920D01*
X113114750Y-55373834D01*
X113086688Y-55356890D01*
X113083000Y-55342084D01*
X113066057Y-55314021D01*
X113051250Y-55310334D01*
X113023188Y-55293390D01*
X113019500Y-55278584D01*
X113002557Y-55250521D01*
X112987750Y-55246834D01*
X112959688Y-55229890D01*
X112956000Y-55215084D01*
X112939057Y-55187021D01*
X112924250Y-55183334D01*
X112896188Y-55166390D01*
X112892500Y-55151584D01*
X112882747Y-55133148D01*
X112848172Y-55123250D01*
X112780802Y-55119896D01*
X112765500Y-55119834D01*
X112691757Y-55117395D01*
X112652165Y-55108751D01*
X112638751Y-55091909D01*
X112638500Y-55088084D01*
X112628747Y-55069648D01*
X112594172Y-55059750D01*
X112526802Y-55056396D01*
X112511500Y-55056334D01*
X112437757Y-55058772D01*
X112398165Y-55067416D01*
X112384751Y-55084258D01*
X112384500Y-55088084D01*
X112365568Y-55113290D01*
X112321000Y-55119834D01*
X112270587Y-55129300D01*
X112257500Y-55151584D01*
X112241420Y-55179665D01*
X112227432Y-55183334D01*
X112202325Y-55201663D01*
X112183637Y-55245848D01*
X112183417Y-55246834D01*
X112168058Y-55291271D01*
X112150367Y-55310322D01*
X112149985Y-55310334D01*
X112139709Y-55329561D01*
X112132648Y-55379539D01*
X112130500Y-55437334D01*
X112133390Y-55504314D01*
X112140902Y-55550332D01*
X112149589Y-55564334D01*
X112161869Y-55583510D01*
X112174571Y-55633366D01*
X112183417Y-55691334D01*
X112193808Y-55758223D01*
X112205980Y-55804234D01*
X112215563Y-55818334D01*
X112231743Y-55836562D01*
X112246630Y-55880542D01*
X112246917Y-55881834D01*
X112265374Y-55926354D01*
X112290464Y-55945326D01*
X112290932Y-55945334D01*
X112317526Y-55962313D01*
X112321000Y-55977084D01*
X112332430Y-56005251D01*
X112342167Y-56008834D01*
X112360945Y-56025978D01*
X112363333Y-56040584D01*
X112351904Y-56068751D01*
X112342167Y-56072334D01*
X112323388Y-56089478D01*
X112321000Y-56104084D01*
X112304057Y-56132146D01*
X112289250Y-56135834D01*
X112261188Y-56118890D01*
X112257500Y-56104084D01*
X112245035Y-56083157D01*
X112202649Y-56073624D01*
X112162250Y-56072334D01*
X112099470Y-56068178D01*
X112070873Y-56054050D01*
X112067000Y-56040584D01*
X112048068Y-56015377D01*
X112003500Y-56008834D01*
X111953087Y-55999367D01*
X111940000Y-55977084D01*
X111923057Y-55949021D01*
X111908250Y-55945334D01*
X111887323Y-55932868D01*
X111877791Y-55890483D01*
X111876500Y-55850084D01*
X111872345Y-55787303D01*
X111858217Y-55758706D01*
X111844750Y-55754834D01*
X111833277Y-55749475D01*
X111824879Y-55729785D01*
X111819106Y-55690343D01*
X111815504Y-55625729D01*
X111813623Y-55530523D01*
X111813011Y-55399304D01*
X111813000Y-55373834D01*
X111813447Y-55236156D01*
X111815088Y-55135385D01*
X111818374Y-55066100D01*
X111823759Y-55022881D01*
X111831693Y-55000307D01*
X111842628Y-54992959D01*
X111844750Y-54992834D01*
X111869957Y-54973901D01*
X111876500Y-54929334D01*
X111885966Y-54878920D01*
X111908250Y-54865834D01*
X111933457Y-54846901D01*
X111940000Y-54802334D01*
X111949466Y-54751920D01*
X111971750Y-54738834D01*
X111999812Y-54721890D01*
X112003500Y-54707084D01*
X112020443Y-54679021D01*
X112035250Y-54675334D01*
X112063312Y-54658390D01*
X112067000Y-54643584D01*
X112085932Y-54618377D01*
X112130500Y-54611834D01*
X112180913Y-54602367D01*
X112194000Y-54580084D01*
X112200028Y-54567075D01*
X112222221Y-54558083D01*
X112266738Y-54552425D01*
X112339742Y-54549415D01*
X112447395Y-54548369D01*
X112479750Y-54548334D01*
X112596829Y-54549003D01*
G37*
X111926913Y-46366300D02*
X111940000Y-46388584D01*
X111921068Y-46413790D01*
X111876500Y-46420334D01*
X111826087Y-46429800D01*
X111813000Y-46452084D01*
X111796057Y-46480146D01*
X111781250Y-46483834D01*
X111753188Y-46500777D01*
X111749500Y-46515584D01*
X111732557Y-46543646D01*
X111717750Y-46547334D01*
X111689688Y-46564277D01*
X111686000Y-46579084D01*
X111669920Y-46607165D01*
X111655932Y-46610833D01*
X111630825Y-46629163D01*
X111612137Y-46673348D01*
X111611917Y-46674333D01*
X111597227Y-46718750D01*
X111581134Y-46737820D01*
X111580780Y-46737834D01*
X111563826Y-46755864D01*
X111549033Y-46795830D01*
X111531724Y-46842621D01*
X111514239Y-46866334D01*
X111498254Y-46893616D01*
X111483754Y-46945800D01*
X111480894Y-46961796D01*
X111468182Y-47017662D01*
X111452918Y-47053190D01*
X111449115Y-47057064D01*
X111439299Y-47082439D01*
X111429118Y-47139610D01*
X111420266Y-47218091D01*
X111417494Y-47252856D01*
X111409777Y-47335002D01*
X111400192Y-47398144D01*
X111390361Y-47432674D01*
X111386523Y-47436334D01*
X111375773Y-47455258D01*
X111369326Y-47503137D01*
X111368500Y-47531584D01*
X111372065Y-47588397D01*
X111381083Y-47622469D01*
X111386441Y-47626834D01*
X111394575Y-47646603D01*
X111403372Y-47700397D01*
X111411760Y-47779940D01*
X111418527Y-47874500D01*
X111425583Y-47972605D01*
X111434207Y-48054417D01*
X111443284Y-48111138D01*
X111451354Y-48133792D01*
X111463901Y-48159598D01*
X111476974Y-48214273D01*
X111485207Y-48267125D01*
X111495925Y-48332403D01*
X111508118Y-48376577D01*
X111516811Y-48388834D01*
X111533213Y-48406856D01*
X111547800Y-48446830D01*
X111565415Y-48493846D01*
X111583450Y-48517863D01*
X111599239Y-48545400D01*
X111613092Y-48598396D01*
X111616309Y-48618616D01*
X111630990Y-48679045D01*
X111652714Y-48705680D01*
X111657037Y-48706334D01*
X111682665Y-48723337D01*
X111686000Y-48738084D01*
X111696537Y-48766265D01*
X111705485Y-48769834D01*
X111723128Y-48788081D01*
X111738642Y-48832099D01*
X111738917Y-48833334D01*
X111757374Y-48877854D01*
X111782464Y-48896826D01*
X111782932Y-48896834D01*
X111809526Y-48913813D01*
X111813000Y-48928584D01*
X111824430Y-48956751D01*
X111834167Y-48960334D01*
X111852945Y-48977478D01*
X111855333Y-48992084D01*
X111872277Y-49020146D01*
X111887083Y-49023834D01*
X111915146Y-49040777D01*
X111918833Y-49055584D01*
X111935777Y-49083646D01*
X111950583Y-49087334D01*
X111978646Y-49104277D01*
X111982333Y-49119084D01*
X111999277Y-49147146D01*
X112014083Y-49150834D01*
X112042146Y-49167777D01*
X112045833Y-49182584D01*
X112063480Y-49208441D01*
X112088167Y-49214334D01*
X112122643Y-49227568D01*
X112130500Y-49246084D01*
X112147443Y-49274146D01*
X112162250Y-49277834D01*
X112173326Y-49283039D01*
X112181547Y-49302139D01*
X112187316Y-49340357D01*
X112191035Y-49402918D01*
X112193105Y-49495047D01*
X112193929Y-49621968D01*
X112194000Y-49690584D01*
X112193600Y-49834565D01*
X112192131Y-49941443D01*
X112189191Y-50016442D01*
X112184378Y-50064787D01*
X112177291Y-50091701D01*
X112167528Y-50102409D01*
X112162250Y-50103334D01*
X112134188Y-50086390D01*
X112130500Y-50071584D01*
X112113557Y-50043521D01*
X112098750Y-50039834D01*
X112070688Y-50022890D01*
X112067000Y-50008084D01*
X112050057Y-49980021D01*
X112035250Y-49976334D01*
X112007188Y-49959390D01*
X112003500Y-49944584D01*
X111984568Y-49919377D01*
X111940000Y-49912834D01*
X111889587Y-49903367D01*
X111876500Y-49881084D01*
X111859557Y-49853021D01*
X111844750Y-49849334D01*
X111816688Y-49832390D01*
X111813000Y-49817584D01*
X111796057Y-49789521D01*
X111781250Y-49785834D01*
X111753188Y-49768890D01*
X111749500Y-49754084D01*
X111732557Y-49726021D01*
X111717750Y-49722334D01*
X111692544Y-49703401D01*
X111686000Y-49658834D01*
X111676534Y-49608420D01*
X111654250Y-49595334D01*
X111626188Y-49578390D01*
X111622500Y-49563584D01*
X111605557Y-49535521D01*
X111590750Y-49531834D01*
X111562688Y-49514890D01*
X111559000Y-49500084D01*
X111542057Y-49472021D01*
X111527250Y-49468334D01*
X111502044Y-49449401D01*
X111495500Y-49404834D01*
X111486034Y-49354420D01*
X111463750Y-49341334D01*
X111438544Y-49322401D01*
X111432000Y-49277834D01*
X111422534Y-49227420D01*
X111400250Y-49214334D01*
X111372188Y-49197390D01*
X111368500Y-49182584D01*
X111351557Y-49154521D01*
X111336750Y-49150834D01*
X111315823Y-49138368D01*
X111306291Y-49095983D01*
X111305000Y-49055584D01*
X111300845Y-48992803D01*
X111286717Y-48964206D01*
X111273250Y-48960334D01*
X111248044Y-48941401D01*
X111241500Y-48896834D01*
X111232034Y-48846420D01*
X111209750Y-48833334D01*
X111188823Y-48820868D01*
X111179291Y-48778483D01*
X111178000Y-48738084D01*
X111173845Y-48675303D01*
X111159717Y-48646706D01*
X111146250Y-48642834D01*
X111127814Y-48633080D01*
X111117916Y-48598505D01*
X111114563Y-48531136D01*
X111114500Y-48515834D01*
X111112062Y-48442090D01*
X111103418Y-48402498D01*
X111086576Y-48389084D01*
X111082750Y-48388834D01*
X111069061Y-48382465D01*
X111059852Y-48359042D01*
X111054313Y-48312089D01*
X111051634Y-48235129D01*
X111051000Y-48134834D01*
X111050204Y-48025323D01*
X111047276Y-47951650D01*
X111041407Y-47907336D01*
X111031787Y-47885907D01*
X111019250Y-47880834D01*
X110991188Y-47863890D01*
X110987500Y-47849084D01*
X111004443Y-47821021D01*
X111019250Y-47817334D01*
X111033749Y-47810520D01*
X111043181Y-47785523D01*
X111048522Y-47735509D01*
X111050749Y-47653644D01*
X111051000Y-47595084D01*
X111051974Y-47493592D01*
X111055545Y-47427569D01*
X111062689Y-47390180D01*
X111074384Y-47374593D01*
X111082750Y-47372834D01*
X111101186Y-47363080D01*
X111111084Y-47328505D01*
X111114438Y-47261136D01*
X111114500Y-47245834D01*
X111116939Y-47172090D01*
X111125582Y-47132498D01*
X111142425Y-47119084D01*
X111146250Y-47118834D01*
X111171457Y-47099901D01*
X111178000Y-47055334D01*
X111187466Y-47004920D01*
X111209750Y-46991834D01*
X111234957Y-46972901D01*
X111241500Y-46928334D01*
X111250966Y-46877920D01*
X111273250Y-46864834D01*
X111301312Y-46847890D01*
X111305000Y-46833084D01*
X111321943Y-46805021D01*
X111336750Y-46801334D01*
X111361957Y-46782401D01*
X111368500Y-46737834D01*
X111377966Y-46687420D01*
X111400250Y-46674334D01*
X111428312Y-46657390D01*
X111432000Y-46642584D01*
X111448943Y-46614521D01*
X111463750Y-46610834D01*
X111491812Y-46593890D01*
X111495500Y-46579084D01*
X111514432Y-46553877D01*
X111559000Y-46547334D01*
X111609413Y-46537867D01*
X111622500Y-46515584D01*
X111639443Y-46487521D01*
X111654250Y-46483834D01*
X111682312Y-46466890D01*
X111686000Y-46452084D01*
X111704932Y-46426877D01*
X111749500Y-46420334D01*
X111799913Y-46410867D01*
X111813000Y-46388584D01*
X111831932Y-46363377D01*
X111876500Y-46356834D01*
X111926913Y-46366300D01*
G36*
X111926913Y-46366300D02*
G01*
X111940000Y-46388584D01*
X111921068Y-46413790D01*
X111876500Y-46420334D01*
X111826087Y-46429800D01*
X111813000Y-46452084D01*
X111796057Y-46480146D01*
X111781250Y-46483834D01*
X111753188Y-46500777D01*
X111749500Y-46515584D01*
X111732557Y-46543646D01*
X111717750Y-46547334D01*
X111689688Y-46564277D01*
X111686000Y-46579084D01*
X111669920Y-46607165D01*
X111655932Y-46610833D01*
X111630825Y-46629163D01*
X111612137Y-46673348D01*
X111611917Y-46674333D01*
X111597227Y-46718750D01*
X111581134Y-46737820D01*
X111580780Y-46737834D01*
X111563826Y-46755864D01*
X111549033Y-46795830D01*
X111531724Y-46842621D01*
X111514239Y-46866334D01*
X111498254Y-46893616D01*
X111483754Y-46945800D01*
X111480894Y-46961796D01*
X111468182Y-47017662D01*
X111452918Y-47053190D01*
X111449115Y-47057064D01*
X111439299Y-47082439D01*
X111429118Y-47139610D01*
X111420266Y-47218091D01*
X111417494Y-47252856D01*
X111409777Y-47335002D01*
X111400192Y-47398144D01*
X111390361Y-47432674D01*
X111386523Y-47436334D01*
X111375773Y-47455258D01*
X111369326Y-47503137D01*
X111368500Y-47531584D01*
X111372065Y-47588397D01*
X111381083Y-47622469D01*
X111386441Y-47626834D01*
X111394575Y-47646603D01*
X111403372Y-47700397D01*
X111411760Y-47779940D01*
X111418527Y-47874500D01*
X111425583Y-47972605D01*
X111434207Y-48054417D01*
X111443284Y-48111138D01*
X111451354Y-48133792D01*
X111463901Y-48159598D01*
X111476974Y-48214273D01*
X111485207Y-48267125D01*
X111495925Y-48332403D01*
X111508118Y-48376577D01*
X111516811Y-48388834D01*
X111533213Y-48406856D01*
X111547800Y-48446830D01*
X111565415Y-48493846D01*
X111583450Y-48517863D01*
X111599239Y-48545400D01*
X111613092Y-48598396D01*
X111616309Y-48618616D01*
X111630990Y-48679045D01*
X111652714Y-48705680D01*
X111657037Y-48706334D01*
X111682665Y-48723337D01*
X111686000Y-48738084D01*
X111696537Y-48766265D01*
X111705485Y-48769834D01*
X111723128Y-48788081D01*
X111738642Y-48832099D01*
X111738917Y-48833334D01*
X111757374Y-48877854D01*
X111782464Y-48896826D01*
X111782932Y-48896834D01*
X111809526Y-48913813D01*
X111813000Y-48928584D01*
X111824430Y-48956751D01*
X111834167Y-48960334D01*
X111852945Y-48977478D01*
X111855333Y-48992084D01*
X111872277Y-49020146D01*
X111887083Y-49023834D01*
X111915146Y-49040777D01*
X111918833Y-49055584D01*
X111935777Y-49083646D01*
X111950583Y-49087334D01*
X111978646Y-49104277D01*
X111982333Y-49119084D01*
X111999277Y-49147146D01*
X112014083Y-49150834D01*
X112042146Y-49167777D01*
X112045833Y-49182584D01*
X112063480Y-49208441D01*
X112088167Y-49214334D01*
X112122643Y-49227568D01*
X112130500Y-49246084D01*
X112147443Y-49274146D01*
X112162250Y-49277834D01*
X112173326Y-49283039D01*
X112181547Y-49302139D01*
X112187316Y-49340357D01*
X112191035Y-49402918D01*
X112193105Y-49495047D01*
X112193929Y-49621968D01*
X112194000Y-49690584D01*
X112193600Y-49834565D01*
X112192131Y-49941443D01*
X112189191Y-50016442D01*
X112184378Y-50064787D01*
X112177291Y-50091701D01*
X112167528Y-50102409D01*
X112162250Y-50103334D01*
X112134188Y-50086390D01*
X112130500Y-50071584D01*
X112113557Y-50043521D01*
X112098750Y-50039834D01*
X112070688Y-50022890D01*
X112067000Y-50008084D01*
X112050057Y-49980021D01*
X112035250Y-49976334D01*
X112007188Y-49959390D01*
X112003500Y-49944584D01*
X111984568Y-49919377D01*
X111940000Y-49912834D01*
X111889587Y-49903367D01*
X111876500Y-49881084D01*
X111859557Y-49853021D01*
X111844750Y-49849334D01*
X111816688Y-49832390D01*
X111813000Y-49817584D01*
X111796057Y-49789521D01*
X111781250Y-49785834D01*
X111753188Y-49768890D01*
X111749500Y-49754084D01*
X111732557Y-49726021D01*
X111717750Y-49722334D01*
X111692544Y-49703401D01*
X111686000Y-49658834D01*
X111676534Y-49608420D01*
X111654250Y-49595334D01*
X111626188Y-49578390D01*
X111622500Y-49563584D01*
X111605557Y-49535521D01*
X111590750Y-49531834D01*
X111562688Y-49514890D01*
X111559000Y-49500084D01*
X111542057Y-49472021D01*
X111527250Y-49468334D01*
X111502044Y-49449401D01*
X111495500Y-49404834D01*
X111486034Y-49354420D01*
X111463750Y-49341334D01*
X111438544Y-49322401D01*
X111432000Y-49277834D01*
X111422534Y-49227420D01*
X111400250Y-49214334D01*
X111372188Y-49197390D01*
X111368500Y-49182584D01*
X111351557Y-49154521D01*
X111336750Y-49150834D01*
X111315823Y-49138368D01*
X111306291Y-49095983D01*
X111305000Y-49055584D01*
X111300845Y-48992803D01*
X111286717Y-48964206D01*
X111273250Y-48960334D01*
X111248044Y-48941401D01*
X111241500Y-48896834D01*
X111232034Y-48846420D01*
X111209750Y-48833334D01*
X111188823Y-48820868D01*
X111179291Y-48778483D01*
X111178000Y-48738084D01*
X111173845Y-48675303D01*
X111159717Y-48646706D01*
X111146250Y-48642834D01*
X111127814Y-48633080D01*
X111117916Y-48598505D01*
X111114563Y-48531136D01*
X111114500Y-48515834D01*
X111112062Y-48442090D01*
X111103418Y-48402498D01*
X111086576Y-48389084D01*
X111082750Y-48388834D01*
X111069061Y-48382465D01*
X111059852Y-48359042D01*
X111054313Y-48312089D01*
X111051634Y-48235129D01*
X111051000Y-48134834D01*
X111050204Y-48025323D01*
X111047276Y-47951650D01*
X111041407Y-47907336D01*
X111031787Y-47885907D01*
X111019250Y-47880834D01*
X110991188Y-47863890D01*
X110987500Y-47849084D01*
X111004443Y-47821021D01*
X111019250Y-47817334D01*
X111033749Y-47810520D01*
X111043181Y-47785523D01*
X111048522Y-47735509D01*
X111050749Y-47653644D01*
X111051000Y-47595084D01*
X111051974Y-47493592D01*
X111055545Y-47427569D01*
X111062689Y-47390180D01*
X111074384Y-47374593D01*
X111082750Y-47372834D01*
X111101186Y-47363080D01*
X111111084Y-47328505D01*
X111114438Y-47261136D01*
X111114500Y-47245834D01*
X111116939Y-47172090D01*
X111125582Y-47132498D01*
X111142425Y-47119084D01*
X111146250Y-47118834D01*
X111171457Y-47099901D01*
X111178000Y-47055334D01*
X111187466Y-47004920D01*
X111209750Y-46991834D01*
X111234957Y-46972901D01*
X111241500Y-46928334D01*
X111250966Y-46877920D01*
X111273250Y-46864834D01*
X111301312Y-46847890D01*
X111305000Y-46833084D01*
X111321943Y-46805021D01*
X111336750Y-46801334D01*
X111361957Y-46782401D01*
X111368500Y-46737834D01*
X111377966Y-46687420D01*
X111400250Y-46674334D01*
X111428312Y-46657390D01*
X111432000Y-46642584D01*
X111448943Y-46614521D01*
X111463750Y-46610834D01*
X111491812Y-46593890D01*
X111495500Y-46579084D01*
X111514432Y-46553877D01*
X111559000Y-46547334D01*
X111609413Y-46537867D01*
X111622500Y-46515584D01*
X111639443Y-46487521D01*
X111654250Y-46483834D01*
X111682312Y-46466890D01*
X111686000Y-46452084D01*
X111704932Y-46426877D01*
X111749500Y-46420334D01*
X111799913Y-46410867D01*
X111813000Y-46388584D01*
X111831932Y-46363377D01*
X111876500Y-46356834D01*
X111926913Y-46366300D01*
G37*
D11*
%TO.C,J4*%
X136230680Y-74726747D02*
X136339624Y-75971991D01*
X136544851Y-74990369D02*
X137065171Y-80937651D01*
X137065171Y-80937651D02*
X144656175Y-80273524D01*
X136555685Y-74999459D02*
X136621052Y-75746605D01*
X136621052Y-75746605D02*
X138414202Y-75589725D01*
X136751785Y-77240897D02*
X137498931Y-77175530D01*
X137498931Y-77175530D02*
X137756041Y-80114305D01*
X137756041Y-80114305D02*
X140794435Y-79848480D01*
X137475923Y-74617803D02*
X136230680Y-74726747D01*
X138348835Y-74842579D02*
X136555685Y-74999459D01*
X138414202Y-75589725D02*
X138348835Y-74842579D01*
X139843127Y-74711845D02*
X139908494Y-75458991D01*
X139908494Y-75458991D02*
X140904689Y-75371835D01*
X140839322Y-74624689D02*
X139843127Y-74711845D01*
X140904689Y-75371835D02*
X140839322Y-74624689D01*
X142333614Y-74493956D02*
X142398981Y-75241102D01*
X142398981Y-75241102D02*
X144192131Y-75084222D01*
X143575719Y-76643880D02*
X143832828Y-79582655D01*
X143832828Y-79582655D02*
X140794435Y-79848480D01*
X144126765Y-74337075D02*
X142333614Y-74493956D01*
X144192131Y-75084222D02*
X144126765Y-74337075D01*
X144322865Y-76578514D02*
X143575719Y-76643880D01*
X144135855Y-74326242D02*
X136544851Y-74990369D01*
X144656175Y-80273524D02*
X144135855Y-74326242D01*
%TO.C,BT1*%
X138165400Y-100910336D02*
X138801796Y-100698204D01*
X138589664Y-101334600D02*
X138165400Y-100910336D01*
X138801796Y-100698204D02*
X138589664Y-101334600D01*
X137451222Y-99064788D02*
X138299750Y-98216260D01*
X142415111Y-104028677D02*
X137451222Y-99064788D01*
X137097668Y-97014178D02*
X141114035Y-92997811D01*
X138299750Y-98216260D02*
X137097668Y-97014178D01*
X141114035Y-92997811D02*
X142316116Y-94199893D01*
X142316116Y-94199893D02*
X143164645Y-93351365D01*
X143164645Y-93351365D02*
X148128534Y-98315254D01*
X148128534Y-98315254D02*
X142415111Y-104028677D01*
%TO.C,R2*%
X120000000Y-81630000D02*
X123840000Y-81630000D01*
X120000000Y-83470000D02*
X123840000Y-83470000D01*
%TO.C,SW1*%
X111640000Y-88560000D02*
X96640000Y-88560000D01*
X96640000Y-88560000D02*
X96640000Y-109560000D01*
X108840000Y-91560000D02*
X99440000Y-91560000D01*
X99440000Y-91560000D02*
X99440000Y-106560000D01*
X108840000Y-106560000D02*
X108840000Y-91560000D01*
X104140000Y-106560000D02*
X108840000Y-106560000D01*
X99440000Y-106560000D02*
X104140000Y-106560000D01*
X111640000Y-109560000D02*
X111640000Y-88560000D01*
X104140000Y-109560000D02*
X111640000Y-109560000D01*
X96640000Y-109560000D02*
X104140000Y-109560000D01*
%TO.C,J1*%
X139113968Y-52530987D02*
X138686443Y-53705603D01*
X139287293Y-52902684D02*
X137245433Y-58512649D01*
X137245433Y-58512649D02*
X146755123Y-61973892D01*
X139293270Y-52915501D02*
X139036755Y-53620270D01*
X139036755Y-53620270D02*
X140728202Y-54235906D01*
X138523725Y-55029809D02*
X139228494Y-55286324D01*
X139228494Y-55286324D02*
X138219535Y-58058417D01*
X138219535Y-58058417D02*
X142260213Y-59529104D01*
X140288584Y-52958512D02*
X139113968Y-52530987D01*
X140984717Y-53531137D02*
X139293270Y-52915501D01*
X140728202Y-54235906D02*
X140984717Y-53531137D01*
X142394256Y-54044167D02*
X142137741Y-54748937D01*
X142137741Y-54748937D02*
X145426665Y-55946007D01*
X145683180Y-55241238D02*
X142394256Y-54044167D01*
X145426665Y-55946007D02*
X145683180Y-55241238D01*
X147092719Y-55754268D02*
X146836204Y-56459037D01*
X146836204Y-56459037D02*
X148527651Y-57074674D01*
X147309851Y-58227697D02*
X146300891Y-60999791D01*
X146300891Y-60999791D02*
X142260213Y-59529104D01*
X148784166Y-56369904D02*
X147092719Y-55754268D01*
X148527651Y-57074674D02*
X148784166Y-56369904D01*
X148014620Y-58484213D02*
X147309851Y-58227697D01*
X148796983Y-56363927D02*
X139287293Y-52902684D01*
X146755123Y-61973892D02*
X148796983Y-56363927D01*
%TO.C,U2*%
X114890000Y-45560000D02*
X132670000Y-45560000D01*
X132670000Y-45560000D02*
X132670000Y-86200000D01*
X132670000Y-86200000D02*
X114890000Y-86200000D01*
X114890000Y-86200000D02*
X114890000Y-45560000D01*
%TD*%
M02*
