M48
; DRILL file {KiCad 7.0.9} date Sat Jul 27 15:43:34 2024
; FORMAT={-:-/ absolute / metric / decimal}
; #@! TF.CreationDate,2024-07-27T15:43:34+09:00
; #@! TF.GenerationSoftware,Kicad,Pcbnew,7.0.9
; #@! TF.FileFunction,MixedPlating,1,2
FMAT,2
METRIC
; #@! TA.AperFunction,Plated,PTH,ViaDrill
T1C0.400
; #@! TA.AperFunction,Plated,PTH,ComponentDrill
T2C0.500
; #@! TA.AperFunction,Plated,PTH,ComponentDrill
T3C0.700
; #@! TA.AperFunction,Plated,PTH,ComponentDrill
T4C0.762
; #@! TA.AperFunction,Plated,PTH,ComponentDrill
T5C0.800
; #@! TA.AperFunction,Plated,PTH,ComponentDrill
T6C0.950
; #@! TA.AperFunction,Plated,PTH,ComponentDrill
T7C1.000
; #@! TA.AperFunction,Plated,PTH,ComponentDrill
T8C1.200
; #@! TA.AperFunction,Plated,PTH,ComponentDrill
T9C1.700
; #@! TA.AperFunction,NonPlated,NPTH,ComponentDrill
T10C3.200
%
G90
G05
T1
X93.98Y-88.9
X104.54Y-67.45
X107.95Y-73.66
X111.45Y-92.725
X111.675Y-108.125
X118.5Y-55.65
X120.65Y-43.18
X123.425Y-108.925
X124.46Y-77.47
X125.73Y-40.64
X125.73Y-43.18
X125.73Y-57.15
X127.0Y-80.01
X128.27Y-39.37
X129.54Y-41.91
X134.325Y-102.425
X139.7Y-72.39
X140.97Y-50.8
X142.55Y-63.825
X142.6Y-83.4
X147.425Y-55.775
T3
X113.03Y-93.98
X113.03Y-99.06
X119.38Y-82.55
X124.46Y-82.55
T4
X114.89Y-45.56
X114.89Y-86.2
X132.67Y-45.56
X132.67Y-86.2
T5
X111.8Y-63.8
X111.8Y-66.3
X116.84Y-90.17
X119.38Y-90.17
X121.92Y-90.17
X124.5Y-48.26
X127.0Y-48.26
T6
X117.21Y-96.04
X119.71Y-96.04
X122.21Y-96.04
X137.738Y-66.016
X140.2Y-66.45
X140.852Y-56.09
X142.662Y-66.884
X143.201Y-56.945
X145.55Y-57.8
T7
X139.31Y-77.218
X140.738Y-86.334
X141.8Y-77.0
X143.2Y-85.9
T8
X127.5Y-89.05
X127.5Y-99.21
X132.39Y-89.14
X132.39Y-99.3
T9
X114.658Y-107.442
X118.618Y-107.442
X140.4Y-99.1
X143.2Y-96.3
T10
X103.0Y-39.2
X103.0Y-117.4
X137.5Y-108.2
X137.51Y-48.25
T2
G00X124.629Y-113.302
M15
G01X123.498Y-112.171
M16
G05
G00X127.245Y-110.686
M15
G01X126.114Y-109.555
M16
G05
G00X130.286Y-107.645
M15
G01X129.155Y-106.514
M16
G05
G00X132.902Y-105.029
M15
G01X131.771Y-103.898
M16
G05
T7
G00X103.14Y-93.06
M15
G01X105.14Y-93.06
M16
G05
G00X103.14Y-99.06
M15
G01X105.14Y-99.06
M16
G05
T0
M30
