%TF.GenerationSoftware,KiCad,Pcbnew,7.0.9*%
%TF.CreationDate,2024-07-27T15:43:32+09:00*%
%TF.ProjectId,____,fb90fa7f-2e6b-4696-9361-645f70636258,rev?*%
%TF.SameCoordinates,Original*%
%TF.FileFunction,Soldermask,Top*%
%TF.FilePolarity,Negative*%
%FSLAX46Y46*%
G04 Gerber Fmt 4.6, Leading zero omitted, Abs format (unit mm)*
G04 Created by KiCad (PCBNEW 7.0.9) date 2024-07-27 15:43:32*
%MOMM*%
%LPD*%
G01*
G04 APERTURE LIST*
G04 Aperture macros list*
%AMRoundRect*
0 Rectangle with rounded corners*
0 $1 Rounding radius*
0 $2 $3 $4 $5 $6 $7 $8 $9 X,Y pos of 4 corners*
0 Add a 4 corners polygon primitive as box body*
4,1,4,$2,$3,$4,$5,$6,$7,$8,$9,$2,$3,0*
0 Add four circle primitives for the rounded corners*
1,1,$1+$1,$2,$3*
1,1,$1+$1,$4,$5*
1,1,$1+$1,$6,$7*
1,1,$1+$1,$8,$9*
0 Add four rect primitives between the rounded corners*
20,1,$1+$1,$2,$3,$4,$5,0*
20,1,$1+$1,$4,$5,$6,$7,0*
20,1,$1+$1,$6,$7,$8,$9,0*
20,1,$1+$1,$8,$9,$2,$3,0*%
%AMHorizOval*
0 Thick line with rounded ends*
0 $1 width*
0 $2 $3 position (X,Y) of the first rounded end (center of the circle)*
0 $4 $5 position (X,Y) of the second rounded end (center of the circle)*
0 Add line between two ends*
20,1,$1,$2,$3,$4,$5,0*
0 Add two circle primitives to create the rounded ends*
1,1,$1,$2,$3*
1,1,$1,$4,$5*%
%AMOutline4P*
0 Free polygon, 4 corners , with rotation*
0 The origin of the aperture is its center*
0 number of corners: always 4*
0 $1 to $8 corner X, Y*
0 $9 Rotation angle, in degrees counterclockwise*
0 create outline with 4 corners*
4,1,4,$1,$2,$3,$4,$5,$6,$7,$8,$1,$2,$9*%
G04 Aperture macros list end*
%ADD10RoundRect,0.250000X-0.716780X-0.609797X0.464990X-0.818175X0.716780X0.609797X-0.464990X0.818175X0*%
%ADD11HorizOval,1.700000X-0.021706X-0.123101X0.021706X0.123101X0*%
%ADD12R,2.400000X2.400000*%
%ADD13O,2.400000X2.400000*%
%ADD14C,1.600000*%
%ADD15C,1.400000*%
%ADD16O,1.400000X1.400000*%
%ADD17HorizOval,1.500000X-0.424264X0.424264X0.424264X-0.424264X0*%
%ADD18C,3.200000*%
%ADD19RoundRect,0.250000X-0.460649X-0.842795X0.721121X-0.634417X0.460649X0.842795X-0.721121X0.634417X0*%
%ADD20HorizOval,1.700000X-0.026047X0.147721X0.026047X-0.147721X0*%
%ADD21RoundRect,0.250001X1.099999X1.099999X-1.099999X1.099999X-1.099999X-1.099999X1.099999X-1.099999X0*%
%ADD22C,2.700000*%
%ADD23C,1.440000*%
%ADD24RoundRect,0.250000X-0.600000X-0.725000X0.600000X-0.725000X0.600000X0.725000X-0.600000X0.725000X0*%
%ADD25O,1.700000X1.950000*%
%ADD26Outline4P,-1.500000X-0.600000X1.500000X-0.600000X1.500000X0.600000X-1.500000X0.600000X0.000000*%
%ADD27Outline4P,-2.035000X-0.885000X2.035000X-0.885000X2.035000X0.885000X-2.035000X0.885000X0.000000*%
%ADD28Outline4P,-0.600000X-1.500000X0.600000X-1.500000X0.600000X1.500000X-0.600000X1.500000X0.000000*%
%ADD29Outline4P,-0.885000X-2.035000X0.885000X-2.035000X0.885000X2.035000X-0.885000X2.035000X0.000000*%
%ADD30Outline4P,-0.750000X-0.600000X0.750000X-0.600000X0.750000X0.600000X-0.750000X0.600000X0.000000*%
%ADD31Outline4P,-0.500000X-0.600000X0.500000X-0.600000X0.500000X0.600000X-0.500000X0.600000X0.000000*%
%ADD32RoundRect,0.250000X-0.532350X-0.799439X0.663084X-0.694853X0.532350X0.799439X-0.663084X0.694853X0*%
%ADD33HorizOval,1.700000X-0.013073X0.149429X0.013073X-0.149429X0*%
%ADD34RoundRect,0.250001X0.000000X-1.555634X1.555634X0.000000X0.000000X1.555634X-1.555634X0.000000X0*%
%ADD35O,4.000000X2.000000*%
%ADD36RoundRect,0.250000X-0.811780X-0.476065X0.315851X-0.886489X0.811780X0.476065X-0.315851X0.886489X0*%
%ADD37HorizOval,1.700000X-0.042753X-0.117462X0.042753X0.117462X0*%
%ADD38C,1.524000*%
G04 APERTURE END LIST*
D10*
%TO.C,J2*%
X137737981Y-66015880D03*
D11*
X140200000Y-66450000D03*
X142662020Y-66884121D03*
%TD*%
D12*
%TO.C,D2*%
X127500000Y-99210000D03*
D13*
X127500000Y-89050000D03*
%TD*%
D14*
%TO.C,C2*%
X127000000Y-48260000D03*
X124500000Y-48260000D03*
%TD*%
%TO.C,C3*%
X111800000Y-63800000D03*
X111800000Y-66300000D03*
%TD*%
D15*
%TO.C,R1*%
X113030000Y-99060000D03*
D16*
X113030000Y-93980000D03*
%TD*%
D17*
%TO.C,F1*%
X132336574Y-104463425D03*
X129720279Y-107079720D03*
X126679720Y-110120279D03*
X124063425Y-112736574D03*
%TD*%
D18*
%TO.C,REF\u002A\u002A*%
X103000000Y-39200000D03*
%TD*%
D19*
%TO.C,J5*%
X140737981Y-86334120D03*
D20*
X143200000Y-85900000D03*
%TD*%
D21*
%TO.C,J3*%
X118618000Y-107442000D03*
D22*
X114658000Y-107442000D03*
%TD*%
D23*
%TO.C,RV1*%
X116840000Y-90170000D03*
X119380000Y-90170000D03*
X121920000Y-90170000D03*
%TD*%
D18*
%TO.C,REF\u002A\u002A*%
X137510000Y-48250000D03*
%TD*%
%TO.C,REF\u002A\u002A*%
X103000000Y-117400000D03*
%TD*%
D24*
%TO.C,SW2*%
X117210000Y-96040000D03*
D25*
X119710000Y-96040000D03*
X122210000Y-96040000D03*
%TD*%
D12*
%TO.C,D1*%
X132390000Y-99300000D03*
D13*
X132390000Y-89140000D03*
%TD*%
D26*
%TO.C,U1*%
X97455000Y-53435000D03*
X97455000Y-48855000D03*
D27*
X99620000Y-48855000D03*
D28*
X100765000Y-47835000D03*
X103055000Y-47835000D03*
D27*
X104200000Y-48855000D03*
D28*
X105345000Y-47835000D03*
D29*
X107655000Y-50000000D03*
D26*
X108655000Y-48855000D03*
X108655000Y-53435000D03*
X108655000Y-58015000D03*
D28*
X103055000Y-59035000D03*
X100765000Y-59035000D03*
D26*
X97455000Y-58015000D03*
X97455000Y-55725000D03*
D30*
X109405000Y-55725000D03*
D28*
X105345000Y-59035000D03*
D31*
X107655000Y-55725000D03*
%TD*%
D32*
%TO.C,J4*%
X139309513Y-77217889D03*
D33*
X141800000Y-77000000D03*
%TD*%
D34*
%TO.C,BT1*%
X140399857Y-99100143D03*
D22*
X143200000Y-96300000D03*
%TD*%
D15*
%TO.C,R2*%
X119380000Y-82550000D03*
D16*
X124460000Y-82550000D03*
%TD*%
D35*
%TO.C,SW1*%
X104140000Y-99060000D03*
X104140000Y-93060000D03*
%TD*%
D18*
%TO.C,REF\u002A\u002A*%
X137500000Y-108200000D03*
%TD*%
D36*
%TO.C,J1*%
X140851537Y-56089899D03*
D37*
X143200769Y-56944949D03*
X145550000Y-57800000D03*
%TD*%
D38*
%TO.C,U2*%
X132670000Y-45560000D03*
X114890000Y-45560000D03*
X132670000Y-86200000D03*
X114890000Y-86200000D03*
%TD*%
M02*
