%TF.GenerationSoftware,KiCad,Pcbnew,7.0.9*%
%TF.CreationDate,2024-07-27T15:49:37+09:00*%
%TF.ProjectId,Lne_sensor_main,4c6e655f-7365-46e7-936f-725f6d61696e,rev?*%
%TF.SameCoordinates,Original*%
%TF.FileFunction,Profile,NP*%
%FSLAX46Y46*%
G04 Gerber Fmt 4.6, Leading zero omitted, Abs format (unit mm)*
G04 Created by KiCad (PCBNEW 7.0.9) date 2024-07-27 15:49:37*
%MOMM*%
%LPD*%
G01*
G04 APERTURE LIST*
%TA.AperFunction,Profile*%
%ADD10C,0.200000*%
%TD*%
G04 APERTURE END LIST*
D10*
X178051298Y-103394975D02*
G75*
G03*
X178051299Y-98841425I-1032598J2276775D01*
G01*
X117241921Y-159650807D02*
G75*
G03*
X115558243Y-158481648I-1821421J-826093D01*
G01*
X60986079Y-98841421D02*
G75*
G03*
X60986080Y-103394980I1032621J-2276779D01*
G01*
X117241912Y-159650811D02*
G75*
G03*
X121795468Y-159650811I2276778J1032609D01*
G01*
X123479137Y-158481645D02*
G75*
G03*
X176882135Y-105078646I-3960447J57363445D01*
G01*
X123479137Y-158481642D02*
G75*
G03*
X121795469Y-159650811I137763J-1995258D01*
G01*
X60986079Y-98841419D02*
G75*
G03*
X62155243Y-97157754I-826079J1821419D01*
G01*
X88293699Y-76118201D02*
X150743681Y-76118201D01*
X120968690Y-158618202D02*
G75*
G03*
X120968690Y-158618202I-1450000J0D01*
G01*
X62155244Y-105078648D02*
G75*
G03*
X60986080Y-103394981I-1995244J-137752D01*
G01*
X88293700Y-76118201D02*
G75*
G03*
X150743680Y-76118201I31224990J-25000000D01*
G01*
X178051296Y-103394971D02*
G75*
G03*
X176882137Y-105078646I826104J-1821429D01*
G01*
X62155244Y-105078648D02*
G75*
G03*
X115558243Y-158481646I57363446J3960448D01*
G01*
X176882135Y-97157756D02*
G75*
G03*
X123479135Y-43754756I-57363445J-3960444D01*
G01*
X121795473Y-42585589D02*
G75*
G03*
X123479135Y-43754755I1821427J826089D01*
G01*
X121795467Y-42585592D02*
G75*
G03*
X117241913Y-42585592I-2276777J-1032607D01*
G01*
X120968690Y-43618200D02*
G75*
G03*
X120968690Y-43618200I-1450000J0D01*
G01*
X176882143Y-97157756D02*
G75*
G03*
X178051299Y-98841424I1995257J137756D01*
G01*
X63468689Y-101118201D02*
G75*
G03*
X63468689Y-101118201I-1450000J0D01*
G01*
X115558244Y-43754744D02*
G75*
G03*
X117241913Y-42585592I-137744J1995244D01*
G01*
X178468691Y-101118201D02*
G75*
G03*
X178468691Y-101118201I-1450000J0D01*
G01*
X115558245Y-43754755D02*
G75*
G03*
X62155245Y-97157754I3960445J-57363445D01*
G01*
M02*
