%TF.GenerationSoftware,KiCad,Pcbnew,7.0.9*%
%TF.CreationDate,2024-07-27T15:49:36+09:00*%
%TF.ProjectId,Lne_sensor_main,4c6e655f-7365-46e7-936f-725f6d61696e,rev?*%
%TF.SameCoordinates,Original*%
%TF.FileFunction,Soldermask,Top*%
%TF.FilePolarity,Negative*%
%FSLAX46Y46*%
G04 Gerber Fmt 4.6, Leading zero omitted, Abs format (unit mm)*
G04 Created by KiCad (PCBNEW 7.0.9) date 2024-07-27 15:49:36*
%MOMM*%
%LPD*%
G01*
G04 APERTURE LIST*
G04 Aperture macros list*
%AMRoundRect*
0 Rectangle with rounded corners*
0 $1 Rounding radius*
0 $2 $3 $4 $5 $6 $7 $8 $9 X,Y pos of 4 corners*
0 Add a 4 corners polygon primitive as box body*
4,1,4,$2,$3,$4,$5,$6,$7,$8,$9,$2,$3,0*
0 Add four circle primitives for the rounded corners*
1,1,$1+$1,$2,$3*
1,1,$1+$1,$4,$5*
1,1,$1+$1,$6,$7*
1,1,$1+$1,$8,$9*
0 Add four rect primitives between the rounded corners*
20,1,$1+$1,$2,$3,$4,$5,0*
20,1,$1+$1,$4,$5,$6,$7,0*
20,1,$1+$1,$6,$7,$8,$9,0*
20,1,$1+$1,$8,$9,$2,$3,0*%
%AMRotRect*
0 Rectangle, with rotation*
0 The origin of the aperture is its center*
0 $1 length*
0 $2 width*
0 $3 Rotation angle, in degrees counterclockwise*
0 Add horizontal line*
21,1,$1,$2,0,0,$3*%
G04 Aperture macros list end*
%ADD10C,1.524000*%
%ADD11C,1.600000*%
%ADD12RotRect,1.800000X1.800000X225.000000*%
%ADD13C,1.800000*%
%ADD14R,1.800000X1.800000*%
%ADD15C,3.200000*%
%ADD16RotRect,1.800000X1.800000X112.500000*%
%ADD17RotRect,1.800000X1.800000X202.500000*%
%ADD18RotRect,1.800000X1.800000X157.500000*%
%ADD19RotRect,1.800000X1.800000X247.500000*%
%ADD20RotRect,1.800000X1.800000X22.500000*%
%ADD21RotRect,1.800000X1.800000X45.000000*%
%ADD22RotRect,1.800000X1.800000X67.500000*%
%ADD23RotRect,1.800000X1.800000X135.000000*%
%ADD24RotRect,1.800000X1.800000X315.000000*%
%ADD25RotRect,1.800000X1.800000X337.500000*%
%ADD26RotRect,1.800000X1.800000X292.500000*%
%ADD27C,1.700000*%
%ADD28R,1.700000X1.700000*%
%ADD29O,1.700000X1.700000*%
%ADD30RoundRect,0.250000X0.600000X0.725000X-0.600000X0.725000X-0.600000X-0.725000X0.600000X-0.725000X0*%
%ADD31O,1.700000X1.950000*%
G04 APERTURE END LIST*
D10*
%TO.C,U3*%
X158120390Y-65242943D03*
X156324339Y-63446892D03*
X152732236Y-67038995D03*
X154528287Y-68835046D03*
%TD*%
D11*
%TO.C,C12*%
X124747820Y-52736455D03*
X127247820Y-52736455D03*
%TD*%
D10*
%TO.C,U9*%
X117594221Y-153899069D03*
X120134221Y-153899069D03*
X120134221Y-148819069D03*
X117594221Y-148819069D03*
%TD*%
D12*
%TO.C,L7*%
X78789221Y-133538155D03*
D13*
X76993170Y-135334206D03*
%TD*%
D10*
%TO.C,U4*%
X168931945Y-82759225D03*
X167959929Y-80412571D03*
X163266621Y-82356603D03*
X164238637Y-84703257D03*
%TD*%
D11*
%TO.C,C9*%
X166259729Y-87492107D03*
X167216438Y-89801806D03*
%TD*%
D14*
%TO.C,L16*%
X171162327Y-107079562D03*
D13*
X173702327Y-107079562D03*
%TD*%
D11*
%TO.C,C14*%
X114527380Y-149626402D03*
X112027380Y-149626402D03*
%TD*%
D10*
%TO.C,U17*%
X121397820Y-48456454D03*
X118857820Y-48456454D03*
X118857820Y-53536454D03*
X121397820Y-53536454D03*
%TD*%
D11*
%TO.C,C3*%
X167937327Y-106429562D03*
X167937327Y-108929562D03*
%TD*%
D15*
%TO.C,REF\u002A\u002A*%
X62037380Y-101036402D03*
%TD*%
D11*
%TO.C,C6*%
X76751865Y-77788046D03*
X77708574Y-75478347D03*
%TD*%
D16*
%TO.C,L9*%
X105176733Y-51185797D03*
D13*
X104204717Y-48839143D03*
%TD*%
D11*
%TO.C,C13*%
X133181675Y-147941471D03*
X130871976Y-148898180D03*
%TD*%
D10*
%TO.C,U1*%
X141428625Y-53197412D03*
X139081971Y-52225396D03*
X137137939Y-56918704D03*
X139484593Y-57890720D03*
%TD*%
D11*
%TO.C,C4*%
X73410000Y-115230000D03*
X72453291Y-112920301D03*
%TD*%
D10*
%TO.C,U14*%
X71515671Y-79245157D03*
X70543655Y-81591811D03*
X75236963Y-83535843D03*
X76208979Y-81189189D03*
%TD*%
D14*
%TO.C,L1*%
X67829713Y-95275962D03*
D13*
X65289713Y-95275962D03*
%TD*%
D10*
%TO.C,U7*%
X155430839Y-139802132D03*
X157226890Y-138006081D03*
X153634787Y-134413978D03*
X151838736Y-136210029D03*
%TD*%
D11*
%TO.C,C5*%
X88956427Y-63211002D03*
X90724194Y-61443235D03*
%TD*%
D10*
%TO.C,U16*%
X101077483Y-51741837D03*
X98730829Y-52713853D03*
X100674861Y-57407161D03*
X103021515Y-56435145D03*
%TD*%
%TO.C,U11*%
X80871650Y-137112581D03*
X82667701Y-138908632D03*
X86259804Y-135316529D03*
X84463753Y-133520478D03*
%TD*%
D17*
%TO.C,L3*%
X69504055Y-115497049D03*
D13*
X67157401Y-116469065D03*
%TD*%
D15*
%TO.C,REF\u002A\u002A*%
X177037380Y-101236402D03*
%TD*%
D18*
%TO.C,L5*%
X73988762Y-75939976D03*
D13*
X71642108Y-74967960D03*
%TD*%
D10*
%TO.C,U10*%
X97563415Y-149158112D03*
X99910069Y-150130128D03*
X101854101Y-145436820D03*
X99507447Y-144464804D03*
%TD*%
D11*
%TO.C,C10*%
X157462780Y-70638169D03*
X159230547Y-72405936D03*
%TD*%
D14*
%TO.C,L15*%
X113594220Y-152844069D03*
D13*
X113594220Y-155384069D03*
%TD*%
D15*
%TO.C,REF\u002A\u002A*%
X119437380Y-158636402D03*
%TD*%
D14*
%TO.C,L2*%
X125397821Y-49511455D03*
D13*
X125397821Y-46971455D03*
%TD*%
D10*
%TO.C,U12*%
X70060096Y-119596299D03*
X71032112Y-121942953D03*
X75725420Y-119998921D03*
X74753404Y-117652267D03*
%TD*%
D11*
%TO.C,C15*%
X96106304Y-143921917D03*
X93796605Y-142965208D03*
%TD*%
D19*
%TO.C,L11*%
X94271628Y-146652684D03*
D13*
X93299612Y-148999338D03*
%TD*%
D20*
%TO.C,L10*%
X169487985Y-86858476D03*
D13*
X171834639Y-85886460D03*
%TD*%
D11*
%TO.C,C11*%
X142885736Y-58433607D03*
X145195435Y-59390316D03*
%TD*%
D10*
%TO.C,U8*%
X137914558Y-150613686D03*
X140261212Y-149641670D03*
X138317180Y-144948362D03*
X135970526Y-145920378D03*
%TD*%
D11*
%TO.C,C7*%
X162240175Y-124567478D03*
X161283466Y-126877177D03*
%TD*%
D10*
%TO.C,U6*%
X167476370Y-123110367D03*
X168448386Y-120763713D03*
X163755078Y-118819681D03*
X162783062Y-121166335D03*
%TD*%
D11*
%TO.C,C8*%
X150035613Y-139144522D03*
X148267846Y-140912289D03*
%TD*%
D21*
%TO.C,L14*%
X160202820Y-68817370D03*
D13*
X161998871Y-67021319D03*
%TD*%
D15*
%TO.C,LED*%
X119437380Y-43636402D03*
%TD*%
D10*
%TO.C,U5*%
X172217328Y-103079562D03*
X172217328Y-100539562D03*
X167137328Y-100539562D03*
X167137328Y-103079562D03*
%TD*%
D22*
%TO.C,L6*%
X144720413Y-55702840D03*
D13*
X145692429Y-53356186D03*
%TD*%
D11*
%TO.C,C16*%
X81537772Y-131737906D03*
X79770005Y-129970139D03*
%TD*%
D23*
%TO.C,L13*%
X87135627Y-60470963D03*
D13*
X85339576Y-58674912D03*
%TD*%
D24*
%TO.C,L8*%
X151856413Y-141884561D03*
D13*
X153652464Y-143680612D03*
%TD*%
D11*
%TO.C,C1*%
X71054713Y-95925962D03*
X71054713Y-93425962D03*
%TD*%
%TO.C,C2*%
X105810365Y-54414053D03*
X108120064Y-53457344D03*
%TD*%
D10*
%TO.C,U15*%
X83561201Y-62553392D03*
X81765150Y-64349443D03*
X85357253Y-67941546D03*
X87153304Y-66145495D03*
%TD*%
D25*
%TO.C,L12*%
X164965010Y-126507938D03*
D13*
X167311664Y-127479954D03*
%TD*%
D10*
%TO.C,U13*%
X66774713Y-99275962D03*
X66774713Y-101815962D03*
X71854713Y-101815962D03*
X71854713Y-99275962D03*
%TD*%
D26*
%TO.C,L4*%
X133815307Y-151169727D03*
D13*
X134787323Y-153516381D03*
%TD*%
D27*
%TO.C,U2*%
X114837380Y-67496402D03*
X114837380Y-64956402D03*
X114837380Y-62416402D03*
X114837380Y-59876402D03*
X114837380Y-57336402D03*
X114837380Y-54796402D03*
X114837380Y-52256402D03*
X130077380Y-52256402D03*
X130077380Y-54796402D03*
X130077380Y-57336402D03*
X130077380Y-59876402D03*
X130077380Y-62416402D03*
X130077380Y-64956402D03*
X130077380Y-67496402D03*
%TD*%
D28*
%TO.C,J1*%
X116090000Y-143770000D03*
D29*
X118630000Y-143770000D03*
X121170000Y-143770000D03*
X123710000Y-143770000D03*
%TD*%
D30*
%TO.C,J3*%
X144150000Y-72500000D03*
D31*
X141650000Y-72500000D03*
X139150000Y-72500000D03*
X136650000Y-72500000D03*
X134150000Y-72500000D03*
%TD*%
D28*
%TO.C,J4*%
X76640000Y-99680000D03*
D29*
X76640000Y-102220000D03*
X76640000Y-104760000D03*
X76640000Y-107300000D03*
%TD*%
D28*
%TO.C,J2*%
X163060000Y-108360000D03*
D29*
X163060000Y-105820000D03*
X163060000Y-103280000D03*
X163060000Y-100740000D03*
%TD*%
M02*
