0
SECTION
2
HEADER
9
$INSUNITS
70
4
9
$ACADVER
1
AC1014
9
$HANDSEED
5
FFFF
0
ENDSEC
0
SECTION
2
TABLES
0
TABLE
2
VPORT
5
8
100
AcDbSymbolTable
0
ENDTAB
0
TABLE
2
LTYPE
5
5
100
AcDbSymbolTable
0
LTYPE
5
14
100
AcDbSymbolTableRecord
100
AcDbLinetypeTableRecord
2
BYBLOCK
70
0
0
LTYPE
5
15
100
AcDbSymbolTableRecord
100
AcDbLinetypeTableRecord
2
BYLAYER
70
0
0
ENDTAB
0
TABLE
2
LAYER
5
2
100
AcDbSymbolTable
70
2
0
LAYER
5
50
100
AcDbSymbolTableRecord
100
AcDbLayerTableRecord
2
0
70
0
6
CONTINUOUS
0
ENDTAB
0
TABLE
2
STYLE
5
3
100
AcDbSymbolTable
70
1
0
STYLE
5
11
100
AcDbSymbolTableRecord
100
AcDbTextStyleTableRecord
2
STANDARD
70
0
0
ENDTAB
0
TABLE
2
VIEW
5
6
100
AcDbSymbolTable
70
0
0
ENDTAB
0
TABLE
2
UCS
5
7
100
AcDbSymbolTable
70
0
0
ENDTAB
0
TABLE
2
APPID
5
9
100
AcDbSymbolTable
70
2
0
APPID
5
12
100
AcDbSymbolTableRecord
100
AcDbRegAppTableRecord
2
ACAD
70
0
0
ENDTAB
0
TABLE
2
DIMSTYLE
5
A
100
AcDbSymbolTable
70
1
0
ENDTAB
0
TABLE
2
BLOCK_RECORD
5
1
100
AcDbSymbolTable
70
1
0
BLOCK_RECORD
5
1F
100
AcDbSymbolTableRecord
100
AcDbBlockTableRecord
2
*MODEL_SPACE
0
BLOCK_RECORD
5
1B
100
AcDbSymbolTableRecord
100
AcDbBlockTableRecord
2
*PAPER_SPACE
0
ENDTAB
0
ENDSEC
0
SECTION
2
BLOCKS
0
BLOCK
5
20
100
AcDbEntity
100
AcDbBlockBegin
2
*MODEL_SPACE
0
ENDBLK
5
21
100
AcDbEntity
100
AcDbBlockEnd
0
BLOCK
5
1C
100
AcDbEntity
100
AcDbBlockBegin
2
*PAPER_SPACE
0
ENDBLK
5
1D
100
AcDbEntity
100
AcDbBlockEnd
0
ENDSEC
0
SECTION
2
ENTITIES
0
LWPOLYLINE
5
100
100
AcDbEntity
8
0
100
AcDbPolyline
90
4
70
1
43
0.0
10
-91.980000000000018
20
63.828367154226186
10
-102.14000000000001
20
63.828367154226186
10
-102.14000000000001
20
86.688367154226171
10
-91.980000000000018
20
86.688367154226171
0
LWPOLYLINE
5
101
100
AcDbEntity
8
0
100
AcDbPolyline
90
245
70
1
43
0.0
10
-100.795233
20
33.61486
10
-100.523916
20
33.569420000000001
10
-100.248931
20
33.561641000000002
10
-99.975479000000007
20
33.591669000000003
10
-99.708735000000019
20
33.658937000000002
10
-99.453744
20
33.762172
10
-99.215332000000004
20
33.899419999999999
10
-98.998008000000013
20
34.068086000000001
10
-98.805885000000018
20
34.264977000000002
10
-98.642596999999995
20
34.486369000000003
10
-98.511234000000002
20
34.728073999999999
10
-97.69945700000001
20
36.550718000000003
10
-96.924205999999998
20
38.389195000000001
10
-96.185789999999997
20
40.242773000000007
10
-95.48450200000002
20
42.110715999999996
10
-94.820622
20
43.992277999999999
10
-94.194415000000021
20
45.886710000000008
10
-93.606127999999998
20
47.793260000000004
10
-93.055997000000005
20
49.711167000000003
10
-92.544241
20
51.639668999999998
10
-92.071062999999995
20
53.577995999999999
10
-91.636651999999998
20
55.525379000000008
10
-91.241181000000012
20
57.481040999999998
10
-90.884805999999998
20
59.444203999999999
10
-90.567671000000004
20
61.414087000000002
10
-90.289900000000003
20
63.389904000000001
10
-90.051606000000021
20
65.370870999999994
10
-89.852881999999994
20
67.356196999999995
10
-89.693808000000018
20
69.345093000000006
10
-89.574447000000021
20
71.336766999999995
10
-89.494845999999995
20
73.330426000000003
10
-89.455038000000002
20
75.325276000000002
10
-89.455038000000002
20
77.320524000000006
10
-89.494845999999995
20
79.315374000000006
10
-89.574447000000021
20
81.309032999999999
10
-89.693808000000018
20
83.300707000000003
10
-89.852881999999994
20
85.289603
10
-90.051606000000021
20
87.274929
10
-90.289900000000003
20
89.255896000000007
10
-90.567671000000004
20
91.231713000000013
10
-90.884805999999998
20
93.201595999999995
10
-91.241181000000012
20
95.164759000000018
10
-91.636651999999998
20
97.120420999999993
10
-92.071062999999995
20
99.06780400000001
10
-92.544241
20
101.00613100000001
10
-93.055997000000005
20
102.93463300000001
10
-93.606127999999998
20
104.85254
10
-94.194415000000021
20
106.75909000000001
10
-94.820622
20
108.65352200000001
10
-95.48450200000002
20
110.535084
10
-96.185789999999997
20
112.40302700000001
10
-96.924205999999998
20
114.25660499999999
10
-97.69945700000001
20
116.095082
10
-98.511234000000002
20
117.91772600000002
10
-98.64257600000002
20
118.15944399999999
10
-98.805866000000009
20
118.38084000000002
10
-98.997991000000013
20
118.57773400000001
10
-99.215317999999996
20
118.74640100000001
10
-99.453733
20
118.88365100000001
10
-99.70872700000001
20
118.98688700000001
10
-99.97547400000002
20
119.05415600000001
10
-100.24893
20
119.08418400000001
10
-100.52391800000001
20
119.07640499999999
10
-100.795239
20
119.03096500000001
10
-101.05775700000001
20
118.94872300000002
10
-101.30650600000001
20
118.83123600000002
10
-101.536781
20
118.680727
10
-101.744224
20
118.50004300000002
10
-101.75029100000002
20
118.493977
10
-101.97606
20
118.29958400000001
10
-102.22820300000001
20
118.14089000000001
10
-102.501124
20
118.02141200000001
10
-102.78876400000001
20
117.94380200000001
10
-103.08474200000001
20
117.90978200000001
10
-103.39356600000002
20
117.878238
10
-103.69608900000001
20
117.80859900000002
10
-103.98764800000001
20
117.70200199999999
10
-104.26374800000002
20
117.56009200000001
10
-104.52013200000002
20
117.38505600000002
10
-104.75284500000001
20
117.17959500000001
10
-104.95829999999999
20
116.94687600000002
10
-105.13332800000001
20
116.690488
10
-105.27523000000001
20
116.414384
10
-105.38181899999999
20
116.12282100000002
10
-105.45144999999999
20
115.820296
10
-105.48305000000001
20
115.51147400000002
10
-105.51707
20
115.21549400000001
10
-105.594672
20
114.927851
10
-105.71414900000001
20
114.65493000000001
10
-105.87284699999999
20
114.40278800000002
10
-106.067245
20
114.17702200000001
10
-106.62689399999999
20
113.61737400000001
10
-107.11072000000001
20
113.161931
10
-107.621161
20
112.73653100000001
10
-108.15635700000001
20
112.342726
10
-108.71435300000002
20
111.981955
10
-109.29311400000002
20
111.65553199999999
10
-109.89052800000002
20
111.36465000000001
10
-110.50441499999999
20
111.11037000000002
10
-111.132535
20
110.893619
10
-111.77259599999999
20
110.715188
10
-112.422263
20
110.575729
10
-113.07916500000002
20
110.47575100000002
10
-113.74090500000001
20
110.41561700000001
10
-114.40506900000001
20
110.39554800000002
10
-115.06923200000001
20
110.41561700000001
10
-115.73097199999999
20
110.47575100000002
10
-116.387874
20
110.575729
10
-117.037541
20
110.715188
10
-117.67760199999999
20
110.893619
10
-118.305722
20
111.11037000000002
10
-118.91960900000001
20
111.36465000000001
10
-119.51702300000001
20
111.65553199999999
10
-120.09578500000002
20
111.98195400000002
10
-120.65378100000001
20
112.342726
10
-121.188976
20
112.73653000000002
10
-121.69941800000001
20
113.16193
10
-122.183243
20
113.61737400000001
10
-126.54220800000002
20
117.976338
10
-126.75786700000002
20
118.163207
10
-126.997924
20
118.317482
10
-127.25749300000001
20
118.43602400000002
10
-127.53129100000001
20
118.51641800000002
10
-127.81374300000002
20
118.557029
10
-128.09909999999999
20
118.557029
10
-128.381552
20
118.51641900000001
10
-128.65535
20
118.43602400000002
10
-128.91492
20
118.31748300000001
10
-129.154977
20
118.163207
10
-129.37063499999999
20
117.976338
10
-149.49520100000001
20
97.851773000000009
10
-149.675782
20
97.644519000000003
10
-149.82621800000001
20
97.414446000000012
10
-149.94368399999999
20
97.165918000000019
10
-150.025961
20
96.903630000000021
10
-150.07149300000003
20
96.632536999999999
10
-150.07942199999999
20
96.357761000000011
10
-150.04959700000001
20
96.084494000000007
10
-149.98258200000004
20
95.817897000000002
10
-149.87964299999999
20
95.563008999999994
10
-149.31724500000001
20
94.360550000000018
10
-148.79137600000001
20
93.141672999999997
10
-148.30251699999999
20
91.907487000000003
10
-147.851111
20
90.659115999999997
10
-147.437569
20
89.397694999999999
10
-147.06226799999999
20
88.124373000000006
10
-146.72555
20
86.840309000000019
10
-146.42772099999999
20
85.546672000000001
10
-146.16905199999999
20
84.244640000000004
10
-145.94977800000004
20
82.935396000000011
10
-145.77010000000001
20
81.620133999999993
10
-145.63018
20
80.300050000000013
10
-145.530146
20
78.976347000000004
10
-145.47008900000003
20
77.650227000000001
10
-145.450064
20
76.322900000000004
10
-145.47008900000003
20
74.995572999999993
10
-145.530146
20
73.669453000000004
10
-145.63018
20
72.345749999999995
10
-145.77010000000001
20
71.025666000000001
10
-145.94977800000004
20
69.710403999999997
10
-146.16905199999999
20
68.401160000000004
10
-146.42772099999999
20
67.099127999999993
10
-146.72555
20
65.805491000000004
10
-147.06226799999999
20
64.521427000000003
10
-147.437569
20
63.24810500000001
10
-147.851111
20
61.986683999999997
10
-148.30251699999999
20
60.738313000000005
10
-148.79137600000001
20
59.504127000000004
10
-149.31724500000001
20
58.285249999999998
10
-149.87964299999999
20
57.082791
10
-149.98253600000001
20
56.827886999999997
10
-150.04954599999999
20
56.561295999999999
10
-150.07936799999999
20
56.288035000000001
10
-150.07144
20
56.013266000000002
10
-150.02591000000001
20
55.742179000000007
10
-149.94363899999999
20
55.479896000000004
10
-149.82617999999999
20
55.231371000000003
10
-149.67575400000001
20
55.00129900000001
10
-149.49520100000001
20
54.794027000000007
10
-129.37063499999999
20
34.66946200000001
10
-129.154977
20
34.482591999999997
10
-128.91492
20
34.328316999999998
10
-128.65535
20
34.209775
10
-128.381552
20
34.129381000000002
10
-128.09909999999999
20
34.088769999999997
10
-127.81374300000002
20
34.088769999999997
10
-127.53129100000001
20
34.129381000000002
10
-127.25749300000001
20
34.209775
10
-126.997923
20
34.328316999999998
10
-126.75786600000002
20
34.482593000000001
10
-126.54220800000002
20
34.66946200000001
10
-122.183243
20
39.028426000000003
10
-121.69941800000001
20
39.483870000000003
10
-121.18897699999999
20
39.909269999999999
10
-120.65378100000001
20
40.303075
10
-120.09578500000002
20
40.663845999999999
10
-119.51702400000002
20
40.990268999999998
10
-118.91961000000002
20
41.281151000000008
10
-118.305723
20
41.535431000000003
10
-117.67760199999999
20
41.752181999999998
10
-117.037541
20
41.930612000000011
10
-116.387874
20
42.070070999999999
10
-115.73097199999999
20
42.170050000000003
10
-115.06923200000001
20
42.230184000000001
10
-114.40506900000001
20
42.250252000000003
10
-113.74090500000001
20
42.230184000000001
10
-113.07916500000002
20
42.170050000000003
10
-112.422263
20
42.070070999999999
10
-111.77259599999999
20
41.930612000000011
10
-111.132535
20
41.752181999999998
10
-110.50441499999999
20
41.535431000000003
10
-109.89052800000002
20
41.281150000000004
10
-109.29311400000002
20
40.990268
10
-108.71435200000001
20
40.663845999999999
10
-108.156356
20
40.303074000000009
10
-107.621161
20
39.909269999999999
10
-107.110719
20
39.483870000000003
10
-106.62689399999999
20
39.028426000000003
10
-106.067245
20
38.468778
10
-105.872848
20
38.243015
10
-105.714161
20
37.990865999999997
10
-105.59468699999999
20
37.717944000000003
10
-105.517076
20
37.430303000000002
10
-105.48305000000001
20
37.134326000000001
10
-105.45136400000001
20
36.825522999999997
10
-105.38171900000002
20
36.523015999999998
10
-105.27512200000001
20
36.231470999999999
10
-105.133218
20
35.955384000000009
10
-104.95819300000001
20
35.699010999999999
10
-104.752746
20
35.466304000000001
10
-104.52004500000001
20
35.260851000000002
10
-104.263676
20
35.085819000000001
10
-103.98759300000002
20
34.943905999999998
10
-103.69605200000001
20
34.837300999999997
10
-103.39354700000001
20
34.767646999999997
10
-103.08474200000001
20
34.736018000000001
10
-102.78876500000001
20
34.701991999999997
10
-102.501125
20
34.624381999999997
10
-102.228206
20
34.504905000000001
10
-101.97606300000001
20
34.346212000000008
10
-101.75029100000002
20
34.151823
10
-101.744224
20
34.145757000000003
10
-101.53676500000002
20
33.965093000000003
10
-101.30649400000001
20
33.814586000000006
10
-101.05774700000001
20
33.697101000000004
0
LWPOLYLINE
5
102
100
AcDbEntity
8
0
100
AcDbPolyline
90
18
70
1
43
0.0
10
-127.54637500000001
20
108.670293
10
-127.56540600000001
20
108.765964
10
-127.54637500000001
20
108.86163500000002
10
-127.49218200000001
20
108.94274100000001
10
-127.41107599999999
20
108.99693400000001
10
-127.31540500000001
20
109.01596499999999
10
-127.21973400000002
20
108.99693400000001
10
-127.13862800000001
20
108.94274100000001
10
-126.00725799999999
20
107.81137100000001
10
-125.953065
20
107.730265
10
-125.93403500000001
20
107.63459400000002
10
-125.953065
20
107.53892300000001
10
-126.00725799999999
20
107.45781700000002
10
-126.08836400000001
20
107.40362400000001
10
-126.18403499999999
20
107.38459400000002
10
-126.279706
20
107.40362400000001
10
-126.360812
20
107.45781700000002
10
-127.49218200000001
20
108.58918700000001
0
LWPOLYLINE
5
103
100
AcDbEntity
8
0
100
AcDbPolyline
90
18
70
1
43
0.0
10
-124.93008000000002
20
111.28658799999999
10
-124.94911100000002
20
111.38225900000002
10
-124.93008000000002
20
111.47793
10
-124.87588700000002
20
111.55903600000002
10
-124.79478100000001
20
111.61322900000002
10
-124.69911000000002
20
111.63226000000002
10
-124.60343899999999
20
111.61322900000002
10
-124.52233300000002
20
111.55903600000002
10
-123.39096300000001
20
110.427666
10
-123.33677000000002
20
110.34656
10
-123.31774000000001
20
110.250889
10
-123.33677000000002
20
110.15521800000002
10
-123.39096300000001
20
110.074112
10
-123.47206900000002
20
110.019919
10
-123.56774000000001
20
110.00088900000002
10
-123.663411
20
110.019919
10
-123.74451700000002
20
110.074112
10
-124.87588700000002
20
111.20548200000002
0
LWPOLYLINE
5
104
100
AcDbEntity
8
0
100
AcDbPolyline
90
18
70
1
43
0.0
10
-133.20322900000002
20
103.01343900000001
10
-133.22226000000001
20
103.10911000000002
10
-133.20322900000002
20
103.20478100000001
10
-133.14903600000002
20
103.285887
10
-133.06792999999999
20
103.34008
10
-132.97225900000001
20
103.35911100000001
10
-132.876588
20
103.34008
10
-132.79548199999999
20
103.285887
10
-131.66411199999999
20
102.15451700000001
10
-131.60991899999999
20
102.07341100000001
10
-131.590889
20
101.97774000000001
10
-131.60991899999999
20
101.882069
10
-131.66411199999999
20
101.80096300000001
10
-131.74521800000002
20
101.74677000000001
10
-131.840889
20
101.72774000000001
10
-131.93655999999999
20
101.74677000000001
10
-132.01766599999999
20
101.80096300000001
10
-133.14903600000002
20
102.932333
0
LWPOLYLINE
5
105
100
AcDbEntity
8
0
100
AcDbPolyline
90
18
70
1
43
0.0
10
-130.58693400000004
20
105.62973400000001
10
-130.605965
20
105.72540500000001
10
-130.58693400000004
20
105.82107600000001
10
-130.53274099999999
20
105.90218200000001
10
-130.45163500000001
20
105.95637500000001
10
-130.355964
20
105.97540600000002
10
-130.26029299999999
20
105.95637500000001
10
-130.17918700000001
20
105.90218200000001
10
-129.04781700000001
20
104.77081200000001
10
-128.99362400000001
20
104.689706
10
-128.974594
20
104.59403500000001
10
-128.99362400000001
20
104.49836400000001
10
-129.04781700000001
20
104.417258
10
-129.12892299999999
20
104.36306500000001
10
-129.22459400000002
20
104.34403500000002
10
-129.32026500000001
20
104.36306500000001
10
-129.40137100000001
20
104.417258
10
-130.53274099999999
20
105.54862800000001
0
LWPOLYLINE
5
106
100
AcDbEntity
8
0
100
AcDbPolyline
90
24
70
1
43
0.0
10
-105.28086600000002
20
98.580254000000011
10
-105.41032000000001
20
98.63937300000002
10
-105.51787500000002
20
98.73257000000001
10
-105.59481599999999
20
98.852292000000006
10
-105.634911
20
98.988843000000003
10
-105.634911
20
99.131157000000002
10
-105.59481599999999
20
99.267707999999999
10
-105.51787500000002
20
99.387430000000009
10
-105.41032000000001
20
99.480627000000013
10
-105.28086600000002
20
99.539746000000008
10
-105.14000000000001
20
99.560000000000016
10
-103.14
20
99.560000000000016
10
-102.99913400000001
20
99.539746000000008
10
-102.86968000000002
20
99.480627000000013
10
-102.762125
20
99.387430000000009
10
-102.68518400000002
20
99.267707999999999
10
-102.64508900000001
20
99.131157000000002
10
-102.64508900000001
20
98.988843000000003
10
-102.68518400000002
20
98.852292000000006
10
-102.762125
20
98.73257000000001
10
-102.86968000000002
20
98.63937300000002
10
-102.99913400000001
20
98.580254000000011
10
-103.14
20
98.560000000000016
10
-105.14000000000001
20
98.560000000000016
0
LWPOLYLINE
5
107
100
AcDbEntity
8
0
100
AcDbPolyline
90
24
70
1
43
0.0
10
-105.28086600000002
20
92.580253999999996
10
-105.41032000000001
20
92.639373000000006
10
-105.51787500000002
20
92.732569999999996
10
-105.59481599999999
20
92.85229200000002
10
-105.634911
20
92.988843000000003
10
-105.634911
20
93.131157000000002
10
-105.59481599999999
20
93.267707999999999
10
-105.51787500000002
20
93.387429999999995
10
-105.41032000000001
20
93.480626999999998
10
-105.28086600000002
20
93.539745999999994
10
-105.14000000000001
20
93.560000000000002
10
-103.14
20
93.560000000000002
10
-102.99913400000001
20
93.539745999999994
10
-102.86968000000002
20
93.480626999999998
10
-102.762125
20
93.387429999999995
10
-102.68518400000002
20
93.267707999999999
10
-102.64508900000001
20
93.131157000000002
10
-102.64508900000001
20
92.988843000000003
10
-102.68518400000002
20
92.85229200000002
10
-102.762125
20
92.732569999999996
10
-102.86968000000002
20
92.639373000000006
10
-102.99913400000001
20
92.580253999999996
10
-103.14
20
92.560000000000002
10
-105.14000000000001
20
92.560000000000002
0
CIRCLE
5
108
100
AcDbEntity
8
0
100
AcDbCircle
10
-137.48854
20
106.3229
30
0
40
1.6500000000000001
210
0
220
0
230
1
0
CIRCLE
5
109
100
AcDbEntity
8
0
100
AcDbCircle
10
-140.399857
20
99.100143000000003
30
0
40
0.85000000000000009
210
0
220
0
230
1
0
CIRCLE
5
110
100
AcDbEntity
8
0
100
AcDbCircle
10
-136.935034
20
97.756640000000004
30
0
40
0.72499999999999998
210
0
220
0
230
1
0
CIRCLE
5
111
100
AcDbEntity
8
0
100
AcDbCircle
10
-128.27000000000001
20
97.79000000000002
30
0
40
0.59999999999999998
210
0
220
0
230
1
0
CIRCLE
5
112
100
AcDbEntity
8
0
100
AcDbCircle
10
-143.19999999999999
20
96.300000000000011
30
0
40
0.85000000000000009
210
0
220
0
230
1
0
CIRCLE
5
113
100
AcDbEntity
8
0
100
AcDbCircle
10
-143.19999999999999
20
85.90000000000002
30
0
40
0.5
210
0
220
0
230
1
0
CIRCLE
5
114
100
AcDbEntity
8
0
100
AcDbCircle
10
-140.73798099999999
20
86.334119999999999
30
0
40
0.5
210
0
220
0
230
1
0
CIRCLE
5
115
100
AcDbEntity
8
0
100
AcDbCircle
10
-141.80000000000001
20
77
30
0
40
0.5
210
0
220
0
230
1
0
CIRCLE
5
116
100
AcDbEntity
8
0
100
AcDbCircle
10
-139.30951300000001
20
77.217889
30
0
40
0.5
210
0
220
0
230
1
0
CIRCLE
5
117
100
AcDbEntity
8
0
100
AcDbCircle
10
-128.27000000000001
20
87.629999999999995
30
0
40
0.59999999999999998
210
0
220
0
230
1
0
CIRCLE
5
118
100
AcDbEntity
8
0
100
AcDbCircle
10
-131.99000000000001
20
84.804000000000016
30
0
40
0.38100000000000001
210
0
220
0
230
1
0
CIRCLE
5
119
100
AcDbEntity
8
0
100
AcDbCircle
10
-124.45999999999999
20
82.550000000000011
30
0
40
0.34999999999999998
210
0
220
0
230
1
0
CIRCLE
5
120
100
AcDbEntity
8
0
100
AcDbCircle
10
-120.61
20
104.14000000000001
30
0
40
0.47499999999999998
210
0
220
0
230
1
0
CIRCLE
5
121
100
AcDbEntity
8
0
100
AcDbCircle
10
-118.11
20
104.14000000000001
30
0
40
0.47499999999999998
210
0
220
0
230
1
0
CIRCLE
5
122
100
AcDbEntity
8
0
100
AcDbCircle
10
-115.61
20
104.14000000000001
30
0
40
0.47499999999999998
210
0
220
0
230
1
0
CIRCLE
5
123
100
AcDbEntity
8
0
100
AcDbCircle
10
-113.03
20
99.060000000000002
30
0
40
0.34999999999999998
210
0
220
0
230
1
0
CIRCLE
5
124
100
AcDbEntity
8
0
100
AcDbCircle
10
-103
20
115.5
30
0
40
1.6000000000000003
210
0
220
0
230
1
0
CIRCLE
5
125
100
AcDbEntity
8
0
100
AcDbCircle
10
-121.92
20
90.170000000000016
30
0
40
0.40000000000000008
210
0
220
0
230
1
0
CIRCLE
5
126
100
AcDbEntity
8
0
100
AcDbCircle
10
-119.38000000000001
20
90.170000000000016
30
0
40
0.40000000000000008
210
0
220
0
230
1
0
CIRCLE
5
127
100
AcDbEntity
8
0
100
AcDbCircle
10
-113.03
20
93.980000000000018
30
0
40
0.34999999999999998
210
0
220
0
230
1
0
CIRCLE
5
128
100
AcDbEntity
8
0
100
AcDbCircle
10
-116.84
20
90.170000000000016
30
0
40
0.40000000000000008
210
0
220
0
230
1
0
CIRCLE
5
129
100
AcDbEntity
8
0
100
AcDbCircle
10
-119.38000000000001
20
82.550000000000011
30
0
40
0.34999999999999998
210
0
220
0
230
1
0
CIRCLE
5
130
100
AcDbEntity
8
0
100
AcDbCircle
10
-114.20999999999999
20
84.804000000000016
30
0
40
0.38100000000000001
210
0
220
0
230
1
0
CIRCLE
5
131
100
AcDbEntity
8
0
100
AcDbCircle
10
-142.66202000000001
20
66.884120999999993
30
0
40
0.47499999999999998
210
0
220
0
230
1
0
CIRCLE
5
132
100
AcDbEntity
8
0
100
AcDbCircle
10
-140.19999999999999
20
66.450000000000003
30
0
40
0.47499999999999998
210
0
220
0
230
1
0
CIRCLE
5
133
100
AcDbEntity
8
0
100
AcDbCircle
10
-145.55000000000001
20
57.800000000000004
30
0
40
0.47499999999999998
210
0
220
0
230
1
0
CIRCLE
5
134
100
AcDbEntity
8
0
100
AcDbCircle
10
-143.20076900000001
20
56.944949000000008
30
0
40
0.47499999999999998
210
0
220
0
230
1
0
CIRCLE
5
135
100
AcDbEntity
8
0
100
AcDbCircle
10
-140.85153700000001
20
56.08989900000001
30
0
40
0.47499999999999998
210
0
220
0
230
1
0
CIRCLE
5
136
100
AcDbEntity
8
0
100
AcDbCircle
10
-137.73798099999999
20
66.015879999999996
30
0
40
0.47499999999999998
210
0
220
0
230
1
0
CIRCLE
5
137
100
AcDbEntity
8
0
100
AcDbCircle
10
-137.48854
20
46.322900000000004
30
0
40
1.6500000000000001
210
0
220
0
230
1
0
CIRCLE
5
138
100
AcDbEntity
8
0
100
AcDbCircle
10
-127.00000000000001
20
48.260000000000005
30
0
40
0.40000000000000008
210
0
220
0
230
1
0
CIRCLE
5
139
100
AcDbEntity
8
0
100
AcDbCircle
10
-124.50000000000001
20
48.260000000000005
30
0
40
0.40000000000000008
210
0
220
0
230
1
0
CIRCLE
5
140
100
AcDbEntity
8
0
100
AcDbCircle
10
-131.99000000000001
20
44.164000000000001
30
0
40
0.38100000000000001
210
0
220
0
230
1
0
CIRCLE
5
141
100
AcDbEntity
8
0
100
AcDbCircle
10
-111.76000000000002
20
60.920000000000002
30
0
40
0.40000000000000008
210
0
220
0
230
1
0
CIRCLE
5
142
100
AcDbEntity
8
0
100
AcDbCircle
10
-111.76000000000002
20
58.420000000000002
30
0
40
0.40000000000000008
210
0
220
0
230
1
0
CIRCLE
5
143
100
AcDbEntity
8
0
100
AcDbCircle
10
-114.20999999999999
20
44.164000000000001
30
0
40
0.38100000000000001
210
0
220
0
230
1
0
CIRCLE
5
144
100
AcDbEntity
8
0
100
AcDbCircle
10
-102.93000000000001
20
37.299999999999997
30
0
40
1.6000000000000003
210
0
220
0
230
1
0
ENDSEC
0
SECTION
2
OBJECTS
0
DICTIONARY
5
C
100
AcDbDictionary
3
ACAD_GROUP
350
D
3
ACAD_MLINESTYLE
350
17
0
DICTIONARY
5
D
100
AcDbDictionary
0
DICTIONARY
5
1A
330
C
100
AcDbDictionary
0
DICTIONARY
5
17
100
AcDbDictionary
0
ENDSEC
0
EOF
