%TF.GenerationSoftware,KiCad,Pcbnew,7.0.9*%
%TF.CreationDate,2024-07-27T15:43:33+09:00*%
%TF.ProjectId,____,fb90fa7f-2e6b-4696-9361-645f70636258,rev?*%
%TF.SameCoordinates,Original*%
%TF.FileFunction,Profile,NP*%
%FSLAX46Y46*%
G04 Gerber Fmt 4.6, Leading zero omitted, Abs format (unit mm)*
G04 Created by KiCad (PCBNEW 7.0.9) date 2024-07-27 15:43:33*
%MOMM*%
%LPD*%
G01*
G04 APERTURE LIST*
%TA.AperFunction,Profile*%
%ADD10C,0.200000*%
%TD*%
G04 APERTURE END LIST*
D10*
X122198204Y-115588948D02*
G75*
G03*
X106641855Y-115588948I-7778174J-7778172D01*
G01*
X149894601Y-59054364D02*
G75*
G03*
X149894604Y-97534583I39570429J-19240106D01*
G01*
X98526236Y-119889281D02*
G75*
G03*
X101759185Y-120471617I1818764J831881D01*
G01*
X98526195Y-36699648D02*
G75*
G03*
X98526195Y-119889300I90938827J-41594826D01*
G01*
X129385596Y-119947912D02*
X149510162Y-99823347D01*
X103099701Y-119881312D02*
G75*
G03*
X105498010Y-117483048I-99701J2498012D01*
G01*
X149510142Y-99823327D02*
G75*
G03*
X149894604Y-97534583I-1414242J1414227D01*
G01*
X101765272Y-36123377D02*
G75*
G03*
X103099703Y-36707591I1414228J1414177D01*
G01*
X106641856Y-40999999D02*
G75*
G03*
X122198203Y-40999999I7778174J7778171D01*
G01*
X106641855Y-41000000D02*
X106082206Y-40440352D01*
X101765252Y-36123397D02*
X101759185Y-36117331D01*
X104500000Y-39205604D02*
G75*
G03*
X104500000Y-39205604I-1500000J0D01*
G01*
X106082206Y-116148596D02*
X106641855Y-115588948D01*
X91959162Y-63248841D02*
X102277283Y-63248841D01*
X102277283Y-86748841D02*
X91959162Y-86748841D01*
X91959162Y-86748841D02*
X91959162Y-63248841D01*
X126557170Y-119947911D02*
G75*
G03*
X129385595Y-119947911I1414213J1414210D01*
G01*
X101759185Y-120471617D02*
X101765252Y-120465551D01*
X105498007Y-39105900D02*
G75*
G03*
X103099703Y-36707593I-2498007J-99700D01*
G01*
X104500000Y-117383344D02*
G75*
G03*
X104500000Y-117383344I-1500000J0D01*
G01*
X122198204Y-115588948D02*
X126557169Y-119947912D01*
X139153501Y-48294474D02*
G75*
G03*
X139153501Y-48294474I-1650000J0D01*
G01*
X149510162Y-56765601D02*
X129385596Y-36641036D01*
X126557169Y-36641036D02*
X122198204Y-41000000D01*
X139153501Y-108294474D02*
G75*
G03*
X139153501Y-108294474I-1650000J0D01*
G01*
X102277283Y-63248841D02*
X102277283Y-86748841D01*
X129385596Y-36641036D02*
G75*
G03*
X126557169Y-36641036I-1414213J-1414211D01*
G01*
X103099703Y-119881344D02*
G75*
G03*
X101765252Y-120465551I79797J-1998456D01*
G01*
X101759227Y-36117289D02*
G75*
G03*
X98526195Y-36699648I-1414227J-1414211D01*
G01*
X106082206Y-116148596D02*
G75*
G03*
X105498012Y-117483048I1414194J-1414204D01*
G01*
X149894580Y-59054353D02*
G75*
G03*
X149510161Y-56765602I-1798680J874553D01*
G01*
X105497980Y-39105901D02*
G75*
G03*
X106082206Y-40440352I1998420J79801D01*
G01*
M02*
