0
SECTION
2
HEADER
9
$INSUNITS
70
4
9
$ACADVER
1
AC1014
9
$HANDSEED
5
FFFF
0
ENDSEC
0
SECTION
2
TABLES
0
TABLE
2
VPORT
5
8
100
AcDbSymbolTable
0
ENDTAB
0
TABLE
2
LTYPE
5
5
100
AcDbSymbolTable
0
LTYPE
5
14
100
AcDbSymbolTableRecord
100
AcDbLinetypeTableRecord
2
BYBLOCK
70
0
0
LTYPE
5
15
100
AcDbSymbolTableRecord
100
AcDbLinetypeTableRecord
2
BYLAYER
70
0
0
LTYPE
5
16
100
AcDbSymbolTableRecord
100
AcDbLinetypeTableRecord
2
DASHED
70
0
3
Dashed __ __ __ __ __ __ __ __ __ __ __ __ __ _
72
65
73
2
40
0.75
49
0.5
74
0
49
-0.25
74
0
0
ENDTAB
0
TABLE
2
LAYER
5
2
100
AcDbSymbolTable
70
2
0
LAYER
5
50
100
AcDbSymbolTableRecord
100
AcDbLayerTableRecord
2
0
70
0
62
7
6
CONTINUOUS
0
ENDTAB
0
TABLE
2
STYLE
5
3
100
AcDbSymbolTable
70
1
0
STYLE
5
11
100
AcDbSymbolTableRecord
100
AcDbTextStyleTableRecord
2
STANDARD
70
0
0
ENDTAB
0
TABLE
2
VIEW
5
6
100
AcDbSymbolTable
70
0
0
ENDTAB
0
TABLE
2
UCS
5
7
100
AcDbSymbolTable
70
0
0
ENDTAB
0
TABLE
2
APPID
5
9
100
AcDbSymbolTable
70
2
0
APPID
5
12
100
AcDbSymbolTableRecord
100
AcDbRegAppTableRecord
2
ACAD
70
0
0
ENDTAB
0
TABLE
2
DIMSTYLE
5
A
100
AcDbSymbolTable
70
1
0
ENDTAB
0
TABLE
2
BLOCK_RECORD
5
1
100
AcDbSymbolTable
70
1
0
BLOCK_RECORD
5
1F
100
AcDbSymbolTableRecord
100
AcDbBlockTableRecord
2
*MODEL_SPACE
0
BLOCK_RECORD
5
1B
100
AcDbSymbolTableRecord
100
AcDbBlockTableRecord
2
*PAPER_SPACE
0
ENDTAB
0
ENDSEC
0
SECTION
2
BLOCKS
0
BLOCK
5
20
100
AcDbEntity
100
AcDbBlockBegin
2
*MODEL_SPACE
0
ENDBLK
5
21
100
AcDbEntity
100
AcDbBlockEnd
0
BLOCK
5
1C
100
AcDbEntity
100
AcDbBlockBegin
2
*PAPER_SPACE
0
ENDBLK
5
1D
100
AcDbEntity
100
AcDbBlockEnd
0
ENDSEC
0
SECTION
2
ENTITIES
0
LWPOLYLINE
5
100
100
AcDbEntity
8
0
100
AcDbPolyline
90
28
70
1
43
0.0
10
42.300000003957194
20
-5
42
0.41421356237309537
10
43.300000003957194
20
-5.9999999999999973
10
43.743456657445343
20
-6.0000000000000062
42
-0.4614911009441221
10
44.730893602220725
20
-7.1580135440166304
42
-0.034104091048315854
10
43.342582386646754
20
-13.172340429862629
42
-0.3302118060282157
10
40.472212692415212
20
-15.300000004090052
10
-40.472212694070507
20
-15.30000000409008
42
-0.33021180602821382
10
-43.342582388302034
20
-13.17234042986275
42
-0.034104091048316298
10
-44.730893603875998
20
-7.1580135440166668
42
-0.4614911009441201
10
-43.743456659100637
20
-6.0000000000000009
10
-43.300000003957194
20
-6.0000000000000009
42
0.41421356237309537
10
-42.300000003957194
20
-5
10
-42.300000003957194
20
5
42
0.41421356237309537
10
-43.300000003957194
20
5.9999999999999973
10
-43.743456659322995
20
6.0000000000000009
42
-0.46149110093449031
10
-44.730893604103372
20
7.1580135439852999
42
-0.32403603918835777
10
-7.1580135448286475
20
44.730893603856785
42
-0.46149110093930401
10
-6.0000000008276633
20
43.743456659078916
10
-6.0000000008276597
20
43.300000005479575
42
0.41421356237309537
10
-5.0000000008276597
20
42.300000005479575
10
4.9999999991723438
20
42.300000005479575
42
0.4142135623730952
10
5.9999999991723403
20
43.300000005479575
10
5.9999999991723438
20
43.743456659078923
42
-0.46149110093930745
10
7.1580135431733307
20
44.730893603856785
42
-0.32403603918835783
10
44.730893602448063
20
7.158013543985307
42
-0.46149110093448759
10
43.743456657667686
20
6.0000000000000062
10
43.300000003957194
20
6.0000000000000009
42
0.41421356237309537
10
42.300000003957194
20
5
0
CIRCLE
5
101
100
AcDbEntity
8
0
100
AcDbCircle
10
-42.765818323004588
20
-42.765818822307089
30
0
40
1.6500000000000004
210
0
220
0
230
1
0
CIRCLE
5
102
100
AcDbEntity
8
0
100
AcDbCircle
10
-42.765818823829491
20
42.765818322871709
30
0
40
1.6500000000000004
210
0
220
0
230
1
0
CIRCLE
5
103
100
AcDbEntity
8
0
100
AcDbCircle
10
42.765818321349286
20
42.765818823696605
30
0
40
1.6500000000000004
210
0
220
0
230
1
0
CIRCLE
5
104
100
AcDbEntity
8
0
100
AcDbCircle
10
42.765818822174204
20
-42.765818321482179
30
0
40
1.6500000000000004
210
0
220
0
230
1
0
LWPOLYLINE
5
105
100
AcDbEntity
8
0
100
AcDbPolyline
90
24
70
1
43
0.0
10
40.975600830780785
20
-44.510845411040194
42
1.0064116433189938
10
44.533585775140565
20
-40.998051368515817
10
44.228572635941731
20
-40.693038229316976
42
-0.38770750472615351
10
44.043928154609375
20
-36.652726946132852
42
0.361690547624262
10
44.040839820256259
20
36.656437741610461
42
-0.3914122824114295
10
44.252610444780551
20
40.723884553320019
10
44.510845410907294
20
40.975600832303186
42
1.0064116433189938
10
40.998051368382917
20
44.533585776662967
10
40.693038229184069
20
44.228572637464126
42
-0.38770750472615295
10
36.652726945999945
20
44.04392815613177
42
0.36169054762426195
10
-36.656437741743353
20
44.040839821778668
42
-0.39141228241143139
10
-40.723884553452912
20
44.252610446302981
10
-40.975600832436072
20
44.510845412429717
42
1.0064116433189938
10
-44.53358577679586
20
40.99805136990534
10
-44.228572637597019
20
40.693038230706478
42
-0.38770750472615201
10
-44.04392815626467
20
36.65272694752236
42
0.36169054762426206
10
-44.040839821911568
20
-36.656437740220966
42
-0.39141228241142945
10
-44.252610446435867
20
-40.72388455193051
10
-44.510845412562603
20
-40.97560083091367
42
1.0064116433189938
10
-40.998051370038226
20
-44.533585775273458
10
-40.693038230839385
20
-44.228572636074617
42
-0.38770750472615323
10
-36.65272694765526
20
-44.043928154742275
42
0.36169054762426206
10
36.656437740088059
20
-44.040839820389159
42
-0.39141228241142817
10
40.72388455179761
20
-44.252610444913458
0
ENDSEC
0
SECTION
2
OBJECTS
0
DICTIONARY
5
C
100
AcDbDictionary
3
ACAD_GROUP
350
D
3
ACAD_MLINESTYLE
350
17
0
DICTIONARY
5
D
100
AcDbDictionary
0
DICTIONARY
5
1A
330
C
100
AcDbDictionary
0
DICTIONARY
5
17
100
AcDbDictionary
0
ENDSEC
0
EOF
