0
SECTION
2
HEADER
9
$INSUNITS
70
4
9
$ACADVER
1
AC1014
9
$HANDSEED
5
FFFF
0
ENDSEC
0
SECTION
2
TABLES
0
TABLE
2
VPORT
5
8
100
AcDbSymbolTable
0
ENDTAB
0
TABLE
2
LTYPE
5
5
100
AcDbSymbolTable
0
LTYPE
5
14
100
AcDbSymbolTableRecord
100
AcDbLinetypeTableRecord
2
BYBLOCK
70
0
0
LTYPE
5
15
100
AcDbSymbolTableRecord
100
AcDbLinetypeTableRecord
2
BYLAYER
70
0
0
ENDTAB
0
TABLE
2
LAYER
5
2
100
AcDbSymbolTable
70
2
0
LAYER
5
50
100
AcDbSymbolTableRecord
100
AcDbLayerTableRecord
2
0
70
0
6
CONTINUOUS
0
ENDTAB
0
TABLE
2
STYLE
5
3
100
AcDbSymbolTable
70
1
0
STYLE
5
11
100
AcDbSymbolTableRecord
100
AcDbTextStyleTableRecord
2
STANDARD
70
0
0
ENDTAB
0
TABLE
2
VIEW
5
6
100
AcDbSymbolTable
70
0
0
ENDTAB
0
TABLE
2
UCS
5
7
100
AcDbSymbolTable
70
0
0
ENDTAB
0
TABLE
2
APPID
5
9
100
AcDbSymbolTable
70
2
0
APPID
5
12
100
AcDbSymbolTableRecord
100
AcDbRegAppTableRecord
2
ACAD
70
0
0
ENDTAB
0
TABLE
2
DIMSTYLE
5
A
100
AcDbSymbolTable
70
1
0
ENDTAB
0
TABLE
2
BLOCK_RECORD
5
1
100
AcDbSymbolTable
70
1
0
BLOCK_RECORD
5
1F
100
AcDbSymbolTableRecord
100
AcDbBlockTableRecord
2
*MODEL_SPACE
0
BLOCK_RECORD
5
1B
100
AcDbSymbolTableRecord
100
AcDbBlockTableRecord
2
*PAPER_SPACE
0
ENDTAB
0
ENDSEC
0
SECTION
2
BLOCKS
0
BLOCK
5
20
100
AcDbEntity
100
AcDbBlockBegin
2
*MODEL_SPACE
0
ENDBLK
5
21
100
AcDbEntity
100
AcDbBlockEnd
0
BLOCK
5
1C
100
AcDbEntity
100
AcDbBlockBegin
2
*PAPER_SPACE
0
ENDBLK
5
1D
100
AcDbEntity
100
AcDbBlockEnd
0
ENDSEC
0
SECTION
2
ENTITIES
0
LWPOLYLINE
5
100
100
AcDbEntity
8
0
100
AcDbPolyline
90
4
70
1
43
0.0
10
-97.505898664858762
20
-15.045632514299571
10
-97.505898664858762
20
8.4543674857004252
10
-87.187778243373543
20
8.4543674857004252
10
-87.187778243373543
20
-15.045632514299571
0
CIRCLE
5
101
100
AcDbEntity
8
0
100
AcDbCircle
10
-86.465060967909707
20
-39.088870472149054
30
0
40
1.5000000000000036
210
0
220
0
230
1
0
CIRCLE
5
102
100
AcDbEntity
8
0
100
AcDbCircle
10
-51.961560383328241
20
30.000000000000018
30
0
40
1.6500000000000004
210
0
220
0
230
1
0
CIRCLE
5
103
100
AcDbEntity
8
0
100
AcDbCircle
10
-51.961560383328262
20
-30.000000000000007
30
0
40
1.6500000000000004
210
0
220
0
230
1
0
CIRCLE
5
104
100
AcDbEntity
8
0
100
AcDbCircle
10
-86.465060967909707
20
39.088870472149097
30
0
40
1.5000000000000036
210
0
220
0
230
1
0
LWPOLYLINE
5
105
100
AcDbEntity
8
0
100
AcDbPolyline
90
24
70
1
43
0.0
10
-90.938865770768373
20
-41.594826376223438
42
0.52290378367832036
10
-87.705875644562141
20
-42.177143424088086
10
-87.699809055404529
20
-42.171076834930489
42
-0.18856501079344293
10
-86.365357926310665
20
-41.586881541679347
42
0.39103392219903832
10
-83.967049898379429
20
-39.188573513748103
42
-0.18856501079344201
10
-83.382854605128273
20
-37.854122384654239
10
-82.823205755228628
20
-37.294473534754609
42
-0.4142135623730952
10
-67.26685656912457
20
-37.294473534754601
10
-62.907891853010412
20
-41.653438250868774
42
0.41421356237309875
10
-60.079464728264227
20
-41.653438250868774
10
-39.954899099367083
20
-21.528872621971619
42
0.31976658175760747
10
-39.570457161501984
20
-19.240108665702941
42
-0.23022629818385715
10
-39.570457161501992
20
19.240108665702927
42
0.31976658175760792
10
-39.954899099367076
20
21.528872621971619
10
-60.07946472826422
20
41.653438250868788
42
0.41421356237309415
10
-62.907891853010412
20
41.653438250868788
10
-67.266856569124556
20
37.294473534754637
42
-0.4142135623730952
10
-82.823205755228614
20
37.29447353475463
10
-83.382854605128273
20
37.854122384654282
42
-0.18856501079344143
10
-83.967049898379415
20
39.188573513748139
42
0.39103392219903832
10
-86.365357926310679
20
41.586881541679396
42
-0.18856501079344293
10
-87.699809055404529
20
42.171076834930538
10
-87.705875644562099
20
42.177143424088122
42
0.52290378367831702
10
-90.938865770768416
20
41.594826376223466
42
0.21784372575948888
0
ENDSEC
0
SECTION
2
OBJECTS
0
DICTIONARY
5
C
100
AcDbDictionary
3
ACAD_GROUP
350
D
3
ACAD_MLINESTYLE
350
17
0
DICTIONARY
5
D
100
AcDbDictionary
0
DICTIONARY
5
1A
330
C
100
AcDbDictionary
0
DICTIONARY
5
17
100
AcDbDictionary
0
ENDSEC
0
EOF
