M48
; DRILL file {KiCad 7.0.9} date Sat Jul 27 15:49:38 2024
; FORMAT={-:-/ absolute / metric / decimal}
; #@! TF.CreationDate,2024-07-27T15:49:38+09:00
; #@! TF.GenerationSoftware,Kicad,Pcbnew,7.0.9
; #@! TF.FileFunction,MixedPlating,1,2
FMAT,2
METRIC
; #@! TA.AperFunction,Plated,PTH,ViaDrill
T1C0.400
; #@! TA.AperFunction,Plated,PTH,ComponentDrill
T2C0.762
; #@! TA.AperFunction,Plated,PTH,ComponentDrill
T3C0.800
; #@! TA.AperFunction,Plated,PTH,ComponentDrill
T4C0.900
; #@! TA.AperFunction,Plated,PTH,ComponentDrill
T5C0.950
; #@! TA.AperFunction,Plated,PTH,ComponentDrill
T6C1.000
; #@! TA.AperFunction,NonPlated,NPTH,ComponentDrill
T7C3.200
%
G90
G05
T1
X67.46Y-108.5
X71.825Y-104.875
X92.95Y-60.25
X96.36Y-64.59
X96.99Y-75.0
X100.05Y-62.43
X100.76Y-61.53
X101.75Y-53.875
X102.85Y-64.92
X102.99Y-62.41
X106.38Y-63.29
X107.725Y-50.65
X110.09Y-143.51
X110.92Y-65.98
X117.25Y-51.175
X119.84Y-51.26
X127.36Y-57.63
X127.8Y-65.79
X127.8Y-65.79
X128.82Y-66.47
X132.55Y-65.15
X134.1Y-67.75
X140.69Y-60.17
X141.16Y-56.34
X151.6Y-74.175
X152.1Y-76.575
X154.175Y-64.0
X166.125Y-79.55
X166.44Y-112.28
X170.12Y-95.95
X170.925Y-92.25
T2
X66.775Y-99.276
X66.775Y-101.816
X70.06Y-119.596
X70.544Y-81.592
X71.032Y-121.943
X71.516Y-79.245
X71.855Y-99.276
X71.855Y-101.816
X74.753Y-117.652
X75.237Y-83.536
X75.725Y-119.999
X76.209Y-81.189
X80.872Y-137.113
X81.765Y-64.349
X82.668Y-138.909
X83.561Y-62.553
X84.464Y-133.52
X85.357Y-67.942
X86.26Y-135.317
X87.153Y-66.145
X97.563Y-149.158
X98.731Y-52.714
X99.507Y-144.465
X99.91Y-150.13
X100.675Y-57.407
X101.077Y-51.742
X101.854Y-145.437
X103.022Y-56.435
X117.594Y-148.819
X117.594Y-153.899
X118.858Y-48.456
X118.858Y-53.536
X120.134Y-148.819
X120.134Y-153.899
X121.398Y-48.456
X121.398Y-53.536
X135.971Y-145.92
X137.138Y-56.919
X137.915Y-150.614
X138.317Y-144.948
X139.082Y-52.225
X139.485Y-57.891
X140.261Y-149.642
X141.429Y-53.197
X151.839Y-136.21
X152.732Y-67.039
X153.635Y-134.414
X154.528Y-68.835
X155.431Y-139.802
X156.324Y-63.447
X157.227Y-138.006
X158.12Y-65.243
X162.783Y-121.166
X163.267Y-82.357
X163.755Y-118.82
X164.239Y-84.703
X167.137Y-100.54
X167.137Y-103.08
X167.476Y-123.11
X167.96Y-80.413
X168.448Y-120.764
X168.932Y-82.759
X172.217Y-100.54
X172.217Y-103.08
T3
X71.055Y-93.426
X71.055Y-95.926
X72.453Y-112.92
X73.41Y-115.23
X76.752Y-77.788
X77.709Y-75.478
X79.77Y-129.97
X81.538Y-131.738
X88.956Y-63.211
X90.724Y-61.443
X93.797Y-142.965
X96.106Y-143.922
X105.81Y-54.414
X108.12Y-53.457
X112.027Y-149.626
X114.527Y-149.626
X124.748Y-52.736
X127.248Y-52.736
X130.872Y-148.898
X133.182Y-147.941
X142.886Y-58.434
X145.195Y-59.39
X148.268Y-140.912
X150.036Y-139.145
X157.463Y-70.638
X159.231Y-72.406
X161.283Y-126.877
X162.24Y-124.567
X166.26Y-87.492
X167.216Y-89.802
X167.937Y-106.43
X167.937Y-108.93
T4
X65.29Y-95.276
X67.157Y-116.469
X67.83Y-95.276
X69.504Y-115.497
X71.642Y-74.968
X73.989Y-75.94
X76.993Y-135.334
X78.789Y-133.538
X85.34Y-58.675
X87.136Y-60.471
X93.3Y-148.999
X94.272Y-146.653
X104.205Y-48.839
X105.177Y-51.186
X113.594Y-152.844
X113.594Y-155.384
X125.398Y-46.971
X125.398Y-49.511
X133.815Y-151.17
X134.787Y-153.516
X144.72Y-55.703
X145.692Y-53.356
X151.856Y-141.885
X153.652Y-143.681
X160.203Y-68.817
X161.999Y-67.021
X164.965Y-126.508
X167.312Y-127.48
X169.488Y-86.858
X171.162Y-107.08
X171.835Y-85.886
X173.702Y-107.08
T5
X134.15Y-72.5
X136.65Y-72.5
X139.15Y-72.5
X141.65Y-72.5
X144.15Y-72.5
T6
X76.64Y-99.68
X76.64Y-102.22
X76.64Y-104.76
X76.64Y-107.3
X114.837Y-52.256
X114.837Y-54.796
X114.837Y-57.336
X114.837Y-59.876
X114.837Y-62.416
X114.837Y-64.956
X114.837Y-67.496
X116.09Y-143.77
X118.63Y-143.77
X121.17Y-143.77
X123.71Y-143.77
X130.077Y-52.256
X130.077Y-54.796
X130.077Y-57.336
X130.077Y-59.876
X130.077Y-62.416
X130.077Y-64.956
X130.077Y-67.496
X163.06Y-100.74
X163.06Y-103.28
X163.06Y-105.82
X163.06Y-108.36
T7
X62.037Y-101.036
X119.437Y-43.636
X119.437Y-158.636
X177.037Y-101.236
T0
M30
